<svg width="29" height="30" viewBox="0 0 29 30" fill="none" xmlns="http://www.w3.org/2000/svg">
    <path fill-rule="evenodd" clip-rule="evenodd" d="M25.326 15.0963H20.2746V3.98327C20.2746 2.30939 18.9176 0.952446 17.2438 0.952446H3.09992C1.42604 0.952446 0.0690918 2.30939 0.0690918 3.98327V24.1888C0.0690918 25.5285 0.601289 26.8133 1.5486 27.7606C2.49592 28.7079 3.78076 29.2401 5.12047 29.2401H23.3054C26.0952 29.2401 28.3568 26.9786 28.3568 24.1888V18.1271C28.3568 16.4532 26.9998 15.0963 25.326 15.0963ZM2.08944 24.1888V3.98327C2.08944 3.42531 2.54176 2.973 3.09971 2.973H17.2436C17.8015 2.973 18.2538 3.42531 18.2538 3.98327V24.1888C18.2479 25.2827 18.603 26.348 19.2641 27.2196H5.12026C3.44639 27.2196 2.08944 25.8626 2.08944 24.1888ZM23.3053 27.2196C24.9792 27.2196 26.3361 25.8626 26.3361 24.1888V18.1271C26.3361 17.5692 25.8838 17.1168 25.3259 17.1168H20.2745V24.1888C20.2745 25.8626 21.6314 27.2196 23.3053 27.2196Z" fill="#F9FAFA"/>
    <path d="M5.12038 7.01409H9.16148C9.71944 7.01409 10.1718 6.56178 10.1718 6.00382C10.1718 5.44586 9.71944 4.99355 9.16148 4.99355H5.12038C4.56242 4.99355 4.11011 5.44586 4.11011 6.00382C4.11011 6.56178 4.56242 7.01409 5.12038 7.01409Z" fill="#F9FAFA"/>
    <path d="M15.2231 12.0655H5.12038C4.56242 12.0655 4.11011 12.5178 4.11011 13.0758C4.11011 13.6337 4.56242 14.086 5.12038 14.086H15.2231C15.7811 14.086 16.2334 13.6337 16.2334 13.0758C16.2334 12.5178 15.7811 12.0655 15.2231 12.0655Z" fill="#F9FAFA"/>
    <path d="M15.2231 16.1066H5.12038C4.56242 16.1066 4.11011 16.5589 4.11011 17.1168C4.11011 17.6748 4.56242 18.1271 5.12038 18.1271H15.2231C15.7811 18.1271 16.2334 17.6748 16.2334 17.1168C16.2334 16.5589 15.7811 16.1066 15.2231 16.1066Z" fill="#F9FAFA"/>
    <path d="M15.223 20.1477H10.1717C9.61369 20.1477 9.16138 20.6 9.16138 21.1579C9.16138 21.7159 9.61369 22.1682 10.1717 22.1682H15.223C15.781 22.1682 16.2333 21.7159 16.2333 21.1579C16.2333 20.6 15.781 20.1477 15.223 20.1477Z" fill="#F9FAFA"/>
</svg>