<svg width="23" height="23" viewBox="0 0 23 23" fill="none" xmlns="http://www.w3.org/2000/svg">
<path d="M19.8304 4.07537C19.4494 3.9963 19.0685 3.94599 18.6876 3.8813V3.49318C18.6874 3.21311 18.6277 2.93628 18.5125 2.68102C18.3973 2.42576 18.2291 2.19791 18.0191 2.01255C17.8049 1.82452 17.5531 1.68431 17.2804 1.60127C17.0078 1.51823 16.7205 1.49427 16.4379 1.53099C14.557 1.75394 12.8117 2.62274 11.5001 3.98912C10.1884 2.62274 8.44316 1.75394 6.56226 1.53099C6.2796 1.49427 5.99237 1.51823 5.71971 1.60127C5.44704 1.68431 5.19521 1.82452 4.98101 2.01255C4.77105 2.19791 4.60288 2.42576 4.48764 2.68102C4.37241 2.93628 4.31273 3.21311 4.31257 3.49318V3.8813C3.93163 3.94599 3.55069 3.9963 3.16976 4.07537C2.68139 4.17332 2.242 4.43733 1.92624 4.82254C1.61047 5.20775 1.4378 5.6904 1.43757 6.18849V18.3641C1.43513 18.6704 1.49797 18.9737 1.62191 19.2538C1.74584 19.5338 1.92802 19.7843 2.15632 19.9885C2.38764 20.1898 2.65924 20.3394 2.95298 20.4274C3.24673 20.5154 3.55586 20.5398 3.85976 20.4988C6.35189 20.1629 8.88847 20.5107 11.1982 21.5051C11.2869 21.5426 11.3822 21.562 11.4785 21.562C11.5748 21.562 11.6701 21.5426 11.7588 21.5051C14.0685 20.5107 16.6051 20.1629 19.0973 20.4988C19.4036 20.54 19.7152 20.5149 20.0109 20.4252C20.3067 20.3354 20.5797 20.1831 20.8115 19.9787C21.0432 19.7742 21.2283 19.5222 21.3542 19.24C21.4801 18.9577 21.5438 18.6516 21.541 18.3426V6.18849C21.5418 5.69342 21.3722 5.21315 21.0607 4.82836C20.7492 4.44356 20.3148 4.17768 19.8304 4.07537ZM16.6248 2.95412C16.7045 2.94359 16.7855 2.95033 16.8624 2.97389C16.9393 2.99746 17.0102 3.03729 17.0704 3.09068C17.127 3.14132 17.1723 3.20336 17.2032 3.27272C17.2342 3.34209 17.2502 3.41722 17.2501 3.49318V15.9347C17.2541 16.1009 17.2005 16.2633 17.0983 16.3944C16.9961 16.5254 16.8516 16.617 16.6894 16.6535C15.0095 16.9401 13.4531 17.7208 12.2188 18.896V5.3188C13.3406 4.00797 14.9123 3.16442 16.6248 2.95412ZM5.75007 3.49318C5.75193 3.34888 5.81008 3.21102 5.91212 3.10898C6.01416 3.00694 6.15202 2.94879 6.29632 2.94693H6.37538C8.08885 3.1591 9.66073 4.0053 10.7813 5.3188V18.896C9.54889 17.7156 7.99228 16.9298 6.31069 16.6391C6.14856 16.6026 6.00408 16.511 5.90187 16.38C5.79965 16.2489 5.74601 16.0865 5.75007 15.9204V3.49318ZM3.68726 19.0757C3.58533 19.089 3.48173 19.0804 3.38344 19.0503C3.28514 19.0202 3.19444 18.9694 3.11746 18.9013C3.04048 18.8332 2.97901 18.7493 2.9372 18.6554C2.89538 18.5615 2.8742 18.4597 2.87507 18.3569V6.18849C2.87168 6.02034 2.92736 5.85633 3.03242 5.725C3.13749 5.59367 3.28528 5.50334 3.45007 5.46974C3.73757 5.41224 4.02507 5.36912 4.31257 5.32599V15.9347C4.31243 16.4381 4.48842 16.9257 4.81004 17.313C5.13166 17.7002 5.57864 17.9628 6.07351 18.0551C7.13076 18.2407 8.13145 18.6661 8.99882 19.2985C7.25542 18.9106 5.45701 18.8351 3.68726 19.0757ZM20.1251 18.3569C20.1259 18.4597 20.1048 18.5615 20.0629 18.6554C20.0211 18.7493 19.9597 18.8332 19.8827 18.9013C19.8057 18.9694 19.715 19.0202 19.6167 19.0503C19.5184 19.0804 19.4148 19.089 19.3129 19.0757C17.5431 18.8351 15.7447 18.9106 14.0013 19.2985C14.8687 18.6661 15.8694 18.2407 16.9266 18.0551C17.4215 17.9628 17.8685 17.7002 18.1901 17.313C18.5117 16.9257 18.6877 16.4381 18.6876 15.9347V5.34037C18.9751 5.38349 19.2626 5.42662 19.5573 5.48412C19.7207 5.51918 19.8668 5.61014 19.9705 5.74133C20.0741 5.87251 20.1288 6.03572 20.1251 6.20287V18.3569Z" fill="black" style="fill:black;fill-opacity:1;"/>
</svg>
