<svg width="15" height="14" viewBox="0 0 15 14" xmlns="http://www.w3.org/2000/svg">
    <g clip-path="url(#clip0)">
        <path d="M14.4666 10.8002L11.633 8.91052C11.2734 8.67264 10.7913 8.75091 10.5255 9.09039L9.70007 10.1517C9.594 10.2915 9.40117 10.3321 9.24771 10.2469L9.0907 10.1603C8.57021 9.8766 7.92258 9.5234 6.61774 8.21809C5.3129 6.91278 4.95899 6.26467 4.67528 5.74513L4.58919 5.58812C4.50277 5.43469 4.54258 5.24104 4.6825 5.13412L5.74306 4.30895C6.0824 4.04307 6.16079 3.56118 5.92318 3.20148L4.03346 0.367826C3.78994 0.00152881 3.30138 -0.108431 2.9244 0.118187L1.73947 0.829976C1.36715 1.04886 1.094 1.40334 0.97729 1.81915C0.5506 3.37385 0.871595 6.05702 4.82415 10.01C7.96832 13.154 10.309 13.9995 11.9178 13.9995C12.2881 14.001 12.6569 13.9529 13.0144 13.8562C13.4302 13.7396 13.7848 13.4665 14.0035 13.094L14.716 11.9098C14.943 11.5328 14.8331 11.0439 14.4666 10.8002Z" fill="currentColor"/>
        <path d="M8.76698 2.3345C10.9564 2.33693 12.7306 4.1112 12.7331 6.30059C12.7331 6.42944 12.8375 6.53388 12.9664 6.53388C13.0952 6.53388 13.1996 6.42944 13.1996 6.30059C13.1969 3.8536 11.214 1.8706 8.76698 1.86792C8.63813 1.86792 8.53369 1.97236 8.53369 2.10121C8.53369 2.23006 8.63813 2.3345 8.76698 2.3345Z" fill="currentColor"/>
        <path d="M8.76698 3.73416C10.1836 3.73582 11.3316 4.88382 11.3333 6.30045C11.3333 6.4293 11.4377 6.53374 11.5666 6.53374C11.6954 6.53374 11.7999 6.4293 11.7999 6.30045C11.7979 4.62622 10.4412 3.26949 8.76698 3.26758C8.63813 3.26758 8.53369 3.37202 8.53369 3.50087C8.53369 3.62972 8.63813 3.73416 8.76698 3.73416Z" fill="currentColor"/>
        <path d="M8.76698 5.13406C9.41089 5.13483 9.93269 5.65663 9.93348 6.30056C9.93348 6.42941 10.0379 6.53385 10.1668 6.53385C10.2956 6.53385 10.4001 6.42941 10.4001 6.30056C10.399 5.39906 9.66848 4.66849 8.76698 4.66748C8.63813 4.66748 8.53369 4.77192 8.53369 4.90077C8.53369 5.02962 8.63813 5.13406 8.76698 5.13406Z" fill="currentColor"/>
    </g>
    <defs>
        <clipPath id="clip0">
            <rect width="14" height="14" transform="translate(0.833984)" />
        </clipPath>
    </defs>
</svg>
