<svg width="20" height="17" viewBox="0 0 20 17" xmlns="http://www.w3.org/2000/svg">
    <path d="M17.6043 3.40143H15.523L14.374 1.66708C13.9404 1.01669 13.1817 0.626465 12.4012 0.626465H7.63174C6.85128 0.626465 6.0925 1.01669 5.65891 1.66708L4.5099 3.40143H2.42868C1.10624 3.40143 0.0439453 4.46372 0.0439453 5.78616V14.1978C0.0439453 15.5202 1.10624 16.5825 2.42868 16.5825H17.6043C18.9267 16.5825 19.989 15.5202 19.989 14.1978V5.78616C19.989 4.46372 18.9267 3.40143 17.6043 3.40143ZM10.0165 14.6314C7.04639 14.6314 4.63998 12.2249 4.63998 9.25487C4.63998 6.28479 7.04639 3.90005 10.0165 3.90005C12.9866 3.90005 15.393 6.30647 15.393 9.27655C15.393 12.2249 12.9866 14.6314 10.0165 14.6314Z" fill="currentColor"/>

    <circle cx="10.0165" cy="9.25487" r="2.5" fill="currentColor"/>
</svg>
