<svg width="17" height="17" viewBox="0 0 17 17" fill="none" xmlns="http://www.w3.org/2000/svg">
<g clip-path="url(#clip0_148_5004)">
<path d="M16.5641 13.7919L3.24117 0.468991C2.66012 -0.112059 1.71809 -0.112059 1.13795 0.468991L0.435787 1.17006C-0.145262 1.75129 -0.145262 2.69332 0.435787 3.27346L13.7587 16.5964C14.3399 17.1774 15.282 17.1774 15.8621 16.5964L16.5632 15.8953C17.1453 15.3152 17.1453 14.373 16.5641 13.7919Z" fill="black" style="fill:black;fill-opacity:1;"/>
<path d="M13.7587 0.46916L0.435787 13.7921C-0.145262 14.3731 -0.145262 15.3153 0.435787 15.8955L1.13686 16.5966C1.71809 17.1776 2.66012 17.1776 3.24026 16.5966L16.5641 3.27454C17.1453 2.69349 17.1453 1.75146 16.5641 1.17132L15.863 0.470249C15.282 -0.11189 14.3399 -0.11189 13.7587 0.46916Z" fill="black" style="fill:black;fill-opacity:1;"/>
</g>
<defs>
<clipPath id="clip0_148_5004">
<rect width="17" height="17" fill="white" style="fill:white;fill-opacity:1;"/>
</clipPath>
</defs>
</svg>
