<svg width="17" height="16" viewBox="0 0 17 16" xmlns="http://www.w3.org/2000/svg">
    <g clip-path="url(#clip0_148_2480)">
        <path d="M15.75 3.83687H14.2156V2.34819C14.2156 1.51003 13.5337 0.828125 12.6956 0.828125L2.20375 0.828594C1.55207 0.828656 1.02197 1.35887 1.02197 2.01053V13.8919C1.02197 14.5978 1.59625 15.172 2.30216 15.172H10.2761C10.9819 15.172 11.5563 14.5978 11.5563 13.8919V8.88288H15.2403C16.0154 8.88288 16.6462 8.25225 16.6462 7.47713V4.733C16.6462 4.23884 16.2441 3.83687 15.75 3.83687ZM11.1752 13.8919C11.1752 14.3876 10.7718 14.7909 10.2761 14.7909H2.30216C1.80647 14.7909 1.40307 14.3876 1.40307 13.8919V2.01053C1.40307 1.56903 1.76225 1.20975 2.20379 1.20969L11.6923 1.20925C11.3767 1.48759 11.1762 1.89347 11.1756 2.34622C11.1756 2.34691 11.1752 2.34753 11.1752 2.34822L11.1752 13.8919ZM11.5565 8.50178V2.34819C11.5565 1.72016 12.0676 1.20919 12.6956 1.20919C13.3236 1.20919 13.8345 1.72016 13.8345 2.34819V7.47709C13.8345 7.88125 14.007 8.24509 14.281 8.50175H11.5565V8.50178ZM16.2651 7.47713C16.2651 8.04213 15.8054 8.50178 15.2403 8.50178C14.6753 8.50178 14.2156 8.04209 14.2156 7.47713C14.2156 6.65191 14.2156 5.04503 14.2156 4.21794H15.75C16.0341 4.21794 16.2651 4.44897 16.2651 4.733V7.47713ZM9.26219 2.05316H3.3525C3.02054 2.05316 2.75038 2.32325 2.75038 2.65528V3.61572C2.75038 3.94775 3.02057 4.21794 3.3525 4.21794H9.26219C9.59416 4.21794 9.86432 3.94775 9.86432 3.61572V2.65531C9.86432 2.32328 9.59413 2.05316 9.26219 2.05316ZM9.48322 3.61572C9.48322 3.73762 9.3841 3.83684 9.26216 3.83684H3.3525C3.2306 3.83684 3.13144 3.73762 3.13144 3.61572V2.65531C3.13144 2.53341 3.23057 2.43425 3.3525 2.43425H9.26219C9.3841 2.43425 9.48325 2.53338 9.48325 2.65531L9.48322 3.61572ZM9.86432 5.74591C9.86432 5.85116 9.77904 5.93644 9.67379 5.93644H2.94091C2.83566 5.93644 2.75038 5.85116 2.75038 5.74591C2.75038 5.64066 2.83566 5.55538 2.94091 5.55538H9.67379C9.77904 5.55534 9.86432 5.64066 9.86432 5.74591ZM9.86432 7.46447C9.86432 7.56972 9.77904 7.655 9.67379 7.655H2.94091C2.83566 7.655 2.75038 7.56972 2.75038 7.46447C2.75038 7.35922 2.83566 7.27394 2.94091 7.27394H9.67379C9.77904 7.27394 9.86432 7.35922 9.86432 7.46447ZM9.86432 9.18297C9.86432 9.28822 9.77904 9.3735 9.67379 9.3735H2.94091C2.83566 9.3735 2.75038 9.28822 2.75038 9.18297C2.75038 9.07772 2.83566 8.99244 2.94091 8.99244H9.67379C9.77904 8.99244 9.86432 9.07772 9.86432 9.18297ZM9.86432 10.9015C9.86432 11.0068 9.77904 11.0921 9.67379 11.0921H2.94091C2.83566 11.0921 2.75038 11.0068 2.75038 10.9015C2.75038 10.7963 2.83566 10.711 2.94091 10.711H9.67379C9.77904 10.711 9.86432 10.7963 9.86432 10.9015ZM8.36488 12.6201C8.36488 12.7254 8.2796 12.8107 8.17435 12.8107H2.94091C2.83566 12.8107 2.75038 12.7254 2.75038 12.6201C2.75038 12.5149 2.83566 12.4296 2.94091 12.4296H8.17432C8.27957 12.4296 8.36488 12.5149 8.36488 12.6201Z" fill="currentColor"/>
    </g>
    <defs>
        <clipPath id="clip0_148_2480">
            <rect width="16" height="16" fill="white" transform="translate(0.833984)"/>
        </clipPath>
    </defs>
</svg>
