<svg width="25" height="25" viewBox="0 0 25 25" fill="none" xmlns="http://www.w3.org/2000/svg">
    <path d="M2.21662 16.3885C1.74139 13.2994 1.26615 10.2104 0.790917 7.12139C0.685526 6.43662 1.46467 5.96959 2.01889 6.38529C3.49951 7.49576 4.98006 8.60615 6.46068 9.71662C6.94818 10.0822 7.64271 9.96326 7.98068 9.45623L11.6786 3.90936C12.0694 3.32318 12.9306 3.32318 13.3214 3.90936L17.0193 9.45623C17.3572 9.96326 18.0518 10.0822 18.5393 9.71662C20.0199 8.60615 21.5004 7.49576 22.9811 6.38529C23.5353 5.96959 24.3144 6.43662 24.2091 7.12139C23.7339 10.2104 23.2587 13.2994 22.7834 16.3885H2.21662Z" fill="#FE9F45"/>
    <path d="M21.7113 21.53H3.28906C2.69687 21.53 2.2168 21.05 2.2168 20.4578V18.1023H22.7836V20.4578C22.7835 21.05 22.3034 21.53 21.7113 21.53Z" fill="#FE9F45"/>
</svg>