<svg width="22" height="22" viewBox="0 0 22 22" xmlns="http://www.w3.org/2000/svg">
    <path d="M14.3843 20.2066H7.40957C6.71176 20.1965 6.04347 19.9234 5.53834 19.4418C5.03322 18.9603 4.72849 18.3058 4.68508 17.6092L3.85866 5.04025C3.85442 4.94912 3.86829 4.85806 3.89946 4.77232C3.93064 4.68659 3.9785 4.60789 4.04029 4.54076C4.10394 4.4712 4.181 4.41523 4.26684 4.37621C4.35267 4.33719 4.44551 4.31594 4.53978 4.31372H17.2541C17.3475 4.31351 17.4399 4.33252 17.5257 4.36955C17.6114 4.40659 17.6886 4.46086 17.7525 4.529C17.8164 4.59713 17.8655 4.67768 17.897 4.76563C17.9284 4.85359 17.9414 4.94706 17.9352 5.04025L17.1451 17.6092C17.1012 18.312 16.7914 18.9716 16.2785 19.4541C15.7657 19.9366 15.0884 20.2056 14.3843 20.2066ZM5.30263 5.67597L6.00192 17.5275C6.02502 17.8849 6.18347 18.22 6.44499 18.4647C6.70652 18.7093 7.05146 18.8451 7.40957 18.8443H14.3843C14.7418 18.8429 15.0855 18.7064 15.3466 18.4622C15.6076 18.218 15.7667 17.8841 15.7919 17.5275L16.5275 5.72138L5.30263 5.67597Z" fill="currentColor"/>
    <path d="M19.071 5.67597H2.72409C2.54345 5.67597 2.3702 5.6042 2.24246 5.47647C2.11473 5.34873 2.04297 5.17549 2.04297 4.99484C2.04297 4.8142 2.11473 4.64095 2.24246 4.51322C2.3702 4.38548 2.54345 4.31372 2.72409 4.31372H19.071C19.2517 4.31372 19.4249 4.38548 19.5527 4.51322C19.6804 4.64095 19.7522 4.8142 19.7522 4.99484C19.7522 5.17549 19.6804 5.34873 19.5527 5.47647C19.4249 5.6042 19.2517 5.67597 19.071 5.67597Z" fill="currentColor"/>
    <path d="M13.6223 5.67609H8.17331C7.9934 5.67374 7.82151 5.60122 7.69428 5.47399C7.56706 5.34676 7.49454 5.17488 7.49219 4.99497V3.36027C7.5037 2.89422 7.69397 2.45044 8.02362 2.12079C8.35327 1.79114 8.79705 1.60087 9.26311 1.58936H12.5325C13.0063 1.6012 13.4567 1.79779 13.7876 2.13714C14.1184 2.47649 14.3036 2.93173 14.3034 3.40568V4.99497C14.3011 5.17488 14.2285 5.34676 14.1013 5.47399C13.9741 5.60122 13.8022 5.67374 13.6223 5.67609ZM8.85443 4.31385H12.9412V3.40568C12.9412 3.2973 12.8981 3.19335 12.8215 3.11671C12.7448 3.04007 12.6409 2.99701 12.5325 2.99701H9.26311C9.15472 2.99701 9.05077 3.04007 8.97413 3.11671C8.89749 3.19335 8.85443 3.2973 8.85443 3.40568V4.31385Z" fill="currentColor"/>
    <path d="M13.622 16.5741C13.4421 16.5717 13.2702 16.4992 13.143 16.372C13.0158 16.2448 12.9433 16.0729 12.9409 15.893V8.62766C12.9409 8.44701 13.0127 8.27376 13.1404 8.14603C13.2681 8.01829 13.4414 7.94653 13.622 7.94653C13.8027 7.94653 13.9759 8.01829 14.1037 8.14603C14.2314 8.27376 14.3032 8.44701 14.3032 8.62766V15.893C14.3008 16.0729 14.2283 16.2448 14.1011 16.372C13.9738 16.4992 13.802 16.5717 13.622 16.5741Z" fill="currentColor"/>
    <path d="M8.17331 16.5741C7.9934 16.5717 7.82151 16.4992 7.69428 16.372C7.56706 16.2448 7.49454 16.0729 7.49219 15.893V8.62766C7.49219 8.44701 7.56395 8.27376 7.69168 8.14603C7.81942 8.01829 7.99267 7.94653 8.17331 7.94653C8.35395 7.94653 8.5272 8.01829 8.65494 8.14603C8.78267 8.27376 8.85443 8.44701 8.85443 8.62766V15.893C8.85208 16.0729 8.77956 16.2448 8.65234 16.372C8.52511 16.4992 8.35322 16.5717 8.17331 16.5741Z" fill="currentColor"/>
    <path d="M10.8979 16.5741C10.718 16.5717 10.5461 16.4992 10.4189 16.372C10.2917 16.2448 10.2191 16.0729 10.2168 15.893V8.62766C10.2168 8.44701 10.2886 8.27376 10.4163 8.14603C10.544 8.01829 10.7173 7.94653 10.8979 7.94653C11.0786 7.94653 11.2518 8.01829 11.3795 8.14603C11.5073 8.27376 11.579 8.44701 11.579 8.62766V15.893C11.5767 16.0729 11.5042 16.2448 11.3769 16.372C11.2497 16.4992 11.0778 16.5717 10.8979 16.5741Z" fill="currentColor"/>
</svg>
