<svg width="24" height="25" viewBox="0 0 24 25" fill="none" xmlns="http://www.w3.org/2000/svg">
<path d="M2.75 9.99154C5.06 6.40527 8.44 4.34045 12 4.34045C13.78 4.34045 15.51 4.85419 17.09 5.8125C18.67 6.7807 20.09 8.19347 21.25 9.99154C22.25 11.5426 22.25 14.0619 21.25 15.613C18.94 19.2091 15.56 21.2641 12 21.2641C10.22 21.2641 8.49 20.7503 6.91 19.792C5.33 18.8238 3.91 17.4111 2.75 15.613C1.75 14.0718 1.75 11.5426 2.75 9.99154ZM12 16.7985C14.24 16.7985 16.04 15.0103 16.04 12.8072C16.04 10.6041 14.24 8.81588 12 8.81588C9.76 8.81588 7.96 10.6041 7.96 12.8072C7.96 15.0103 9.76 16.7985 12 16.7985Z" fill="#C9CECF" style="fill:#C9CECF;fill:color(display-p3 0.7900 0.8090 0.8100);fill-opacity:1;"/>
<path d="M12.0001 9.98169C13.5701 9.98169 14.8501 11.2463 14.8501 12.8072C14.8501 14.3583 13.5701 15.6229 12.0001 15.6229C10.4301 15.6229 9.1401 14.3583 9.1401 12.8072C9.1401 11.2561 10.4301 9.98169 12.0001 9.98169Z" fill="#C9CECF" style="fill:#C9CECF;fill:color(display-p3 0.7900 0.8090 0.8100);fill-opacity:1;"/>
</svg>
