<svg width="24" height="24" viewBox="0 0 24 24" fill="currentColor" xmlns="http://www.w3.org/2000/svg">
    <path d="M2.75 9.15005C5.06 5.52005 8.44 3.43005 12 3.43005C13.78 3.43005 15.51 3.95005 17.09 4.92005C18.67 5.90005 20.09 7.33005 21.25 9.15005C22.25 10.7201 22.25 13.2701 21.25 14.8401C18.94 18.4801 15.56 20.5601 12 20.5601C10.22 20.5601 8.49 20.0401 6.91 19.0701C5.33 18.0901 3.91 16.6601 2.75 14.8401C1.75 13.2801 1.75 10.7201 2.75 9.15005ZM12 16.0401C14.24 16.0401 16.04 14.2301 16.04 12.0001C16.04 9.77005 14.24 7.96005 12 7.96005C9.76 7.96005 7.96 9.77005 7.96 12.0001C7.96 14.2301 9.76 16.0401 12 16.0401Z"/>
    <path d="M12.0001 9.14001C13.5701 9.14001 14.8501 10.42 14.8501 12C14.8501 13.57 13.5701 14.85 12.0001 14.85C10.4301 14.85 9.1401 13.57 9.1401 12C9.1401 10.43 10.4301 9.14001 12.0001 9.14001Z"/>
</svg>