<svg width="17" height="16" viewBox="0 0 17 16" xmlns="http://www.w3.org/2000/svg">
    <g clip-path="url(#clip0_148_2400)">
        <path d="M7.33399 11.1251C7.12694 11.1251 6.95899 10.9571 6.95899 10.7501V10.1532C6.95899 9.72955 7.18459 9.33115 7.54784 9.11285L8.10889 8.7764C8.50099 8.54105 8.74464 8.11085 8.74464 7.65335V7.53565C8.74464 6.7578 8.11184 6.125 7.33399 6.125C6.55614 6.125 5.92334 6.7578 5.92334 7.53565C5.92334 7.7427 5.75539 7.91065 5.54834 7.91065C5.34129 7.91065 5.17334 7.7427 5.17334 7.53565C5.17334 6.34425 6.14259 5.375 7.33399 5.375C8.52539 5.375 9.49464 6.34425 9.49464 7.53565V7.65335C9.49464 8.37285 9.11159 9.0496 8.49464 9.41945L7.93384 9.7559C7.79519 9.83915 7.70899 9.9915 7.70899 10.1531V10.75C7.70899 10.9571 7.54104 11.1251 7.33399 11.1251Z" fill="currentColor"/>
        <path d="M1.33398 15.875C1.25563 15.875 1.17723 15.8504 1.11108 15.8015C0.982434 15.7063 0.928234 15.5401 0.976334 15.3875L1.92358 12.375C1.29198 11.3618 0.958984 10.1988 0.958984 9C0.958984 5.48485 3.81883 2.625 7.33398 2.625C10.8491 2.625 13.709 5.48485 13.709 9C13.709 12.5152 10.8491 15.375 7.33398 15.375C6.04933 15.375 4.81983 14.9998 3.76148 14.2868L1.54638 15.809C1.48243 15.853 1.40818 15.875 1.33398 15.875ZM3.76393 13.4551C3.84203 13.4551 3.91993 13.4795 3.98608 13.5279C4.96263 14.2456 6.12038 14.625 7.33398 14.625C10.4355 14.625 12.959 12.1016 12.959 9C12.959 5.89845 10.4355 3.375 7.33398 3.375C4.23243 3.375 1.70898 5.89845 1.70898 9C1.70898 10.1114 2.03318 11.1877 2.64648 12.1128C2.70898 12.207 2.72558 12.3247 2.69163 12.4326L2.01803 14.575L3.55148 13.521C3.61543 13.477 3.68973 13.4551 3.76393 13.4551Z" fill="currentColor"/>
        <path d="M16.334 13.375C16.2598 13.375 16.1858 13.3531 16.1216 13.3091L14.1416 11.949C13.971 11.8318 13.9278 11.5984 14.0449 11.4275C14.1624 11.2571 14.3958 11.2136 14.5664 11.3308L15.6502 12.0752L14.9763 9.9326C14.9424 9.8247 14.959 9.707 15.0215 9.6128C15.6348 8.68775 15.959 7.61135 15.959 6.5C15.959 3.39845 13.4355 0.875 10.334 0.875C9.21314 0.875 8.13209 1.2024 7.20779 1.82155C7.03519 1.9368 6.80274 1.89065 6.68754 1.71875C6.57229 1.54665 6.61819 1.3137 6.79034 1.1985C7.83844 0.4961 9.06404 0.125 10.334 0.125C13.8492 0.125 16.709 2.98485 16.709 6.5C16.709 7.69875 16.376 8.8618 15.7444 9.875L16.6917 12.8875C16.7398 13.0401 16.6856 13.2063 16.5569 13.3015C16.4908 13.3504 16.4124 13.375 16.334 13.375Z" fill="currentColor"/>
        <path d="M7.33398 12.625C7.54109 12.625 7.70898 12.4571 7.70898 12.25C7.70898 12.0429 7.54109 11.875 7.33398 11.875C7.12688 11.875 6.95898 12.0429 6.95898 12.25C6.95898 12.4571 7.12688 12.625 7.33398 12.625Z" fill="currentColor"/>
    </g>
    <defs>
        <clipPath id="clip0_148_2400">
            <rect width="16" height="16" fill="white" transform="translate(0.833984)"/>
        </clipPath>
    </defs>
</svg>
