<svg width="28" height="28" viewBox="0 0 28 28" fill="none" xmlns="http://www.w3.org/2000/svg">
<path d="M13.8539 2.81348C10.9112 2.81348 8.89848 5.18828 9.38238 8.09197L10.1146 12.4899C10.4053 14.2333 12.0879 15.658 13.8539 15.658C15.6208 15.658 17.3029 14.233 17.5929 12.4899L18.3257 8.09197C18.8102 5.18828 16.7974 2.81348 13.8539 2.81348Z" fill="white" style="fill:white;fill-opacity:1;"/>
<path d="M23.0343 17.6869L17.673 15.8999C16.6479 16.8636 15.2908 17.4759 13.8541 17.4759C12.4174 17.4759 11.0605 16.8636 10.0355 15.8999L4.67355 17.6869C3.72483 18.0032 2.94922 19.0803 2.94922 20.0797V24.6232H24.7589V20.0797C24.7589 19.0803 23.9831 18.0032 23.0343 17.6869Z" fill="white" style="fill:white;fill-opacity:1;"/>
<path d="M21.333 5.67505C22.2681 7.93263 22.2681 10.4176 21.333 12.6751L20.0737 12.1534C20.8698 10.233 20.8698 8.11719 20.0737 6.19685L21.333 5.67505Z" fill="white" style="fill:white;fill-opacity:1;"/>
<path d="M23.8515 4.6311C25.1069 7.66075 25.0151 10.9115 23.8515 13.7184L22.5923 13.1966C23.6667 10.6034 23.6667 7.74608 22.5923 5.1529L23.8515 4.6311Z" fill="white" style="fill:white;fill-opacity:1;"/>
<path d="M6.37486 12.6751C5.4395 10.4176 5.4395 7.93263 6.37486 5.67505L7.63492 6.19685C6.83805 8.11719 6.83805 10.233 7.63492 12.1534L6.37486 12.6751Z" fill="white" style="fill:white;fill-opacity:1;"/>
<path d="M3.85654 13.7184C2.60166 10.6888 2.69408 7.43801 3.85654 4.6311L5.11687 5.1529C4.04138 7.74608 4.04138 10.6034 5.11687 13.1966L3.85654 13.7184Z" fill="white" style="fill:white;fill-opacity:1;"/>
</svg>
