<svg width="27" height="27" viewBox="0 0 27 27" fill="none" xmlns="http://www.w3.org/2000/svg">
<g clip-path="url(#clip0_148_1642)">
<path d="M16.1575 2.845C15.0363 2.56583 13.8773 2.46679 12.7125 2.55069C12.1466 2.59146 11.5813 2.67589 11.0321 2.80181L10.4688 0.343708C11.1432 0.189143 11.8371 0.0854146 12.5313 0.0354224C13.962 -0.0676206 15.387 0.0544068 16.7669 0.398129L16.1575 2.845Z" fill="white" style="fill:white;fill-opacity:1;"/>
<path opacity="0.9" d="M21.9097 6.44095C20.7983 5.11969 19.3734 4.06511 17.7891 3.39143L18.7759 1.0708C20.7233 1.89878 22.4744 3.19447 23.8396 4.81784L21.9097 6.44095Z" fill="white" style="fill:white;fill-opacity:1;"/>
<path opacity="0.8" d="M24.4518 12.7299L24.4505 12.7112C24.3248 10.9666 23.8071 9.32855 22.9116 7.84229L25.0718 6.54102C26.174 8.37058 26.8113 10.3856 26.9657 12.53L24.4518 12.7299Z" fill="white" style="fill:white;fill-opacity:1;"/>
<path opacity="0.7" d="M24.9561 20.6446L22.8174 19.3085C23.7318 17.8448 24.2927 16.1653 24.4394 14.4514L26.9521 14.6666C26.7715 16.7764 26.0813 18.8438 24.9561 20.6446Z" fill="white" style="fill:white;fill-opacity:1;"/>
<path opacity="0.6" d="M18.5745 26.0135L17.6274 23.6765C19.22 23.0311 20.6606 21.9997 21.7937 20.6938L23.6985 22.3465C22.3059 23.9516 20.534 25.2196 18.5745 26.0135Z" fill="white" style="fill:white;fill-opacity:1;"/>
<path opacity="0.5" d="M14.4711 26.9647C13.047 27.0671 11.6287 26.9467 10.2554 26.6067L10.8612 24.1589C11.977 24.4351 13.1307 24.5328 14.2901 24.4494C14.8616 24.4083 15.4324 24.3225 15.9864 24.1947L16.5537 26.6518C15.8731 26.8088 15.1724 26.9142 14.4711 26.9647Z" fill="white" style="fill:white;fill-opacity:1;"/>
<path opacity="0.4" d="M8.24552 25.9367C6.29688 25.1117 4.54394 23.8186 3.17627 22.1973L5.10371 20.5713C6.21709 21.8909 7.64345 22.9433 9.2288 23.6144L8.24552 25.9367Z" fill="white" style="fill:white;fill-opacity:1;"/>
<path opacity="0.3" d="M1.94132 20.4768C0.832525 18.6422 0.19175 16.6213 0.0367637 14.4699L0.0341797 14.4329L2.54945 14.2517L2.55272 14.2982C2.67812 16.039 3.19872 17.682 4.09952 19.1722L1.94132 20.4768Z" fill="white" style="fill:white;fill-opacity:1;"/>
<path opacity="0.2" d="M2.56446 12.5321L0.0522461 12.313C0.235973 10.2036 0.929324 8.13733 2.05721 6.33813L4.1939 7.67743C3.27722 9.13986 2.71375 10.8186 2.56446 12.5321Z" fill="white" style="fill:white;fill-opacity:1;"/>
</g>
<defs>
<clipPath id="clip0_148_1642">
<rect width="27" height="27" fill="white" style="fill:white;fill-opacity:1;"/>
</clipPath>
</defs>
</svg>
