<svg width="18" height="18" viewBox="0 0 18 18" fill="none" xmlns="http://www.w3.org/2000/svg">
<g clip-path="url(#clip0_160_7422)">
<path d="M7.02184 0.792664C4.05337 0.792664 1.63354 3.21245 1.63354 6.18096V9.18533C1.63354 9.45969 1.84905 9.67516 2.12338 9.67516H4.08276C4.35712 9.67516 4.5726 9.45965 4.5726 9.18533V6.18096C4.5726 4.82899 5.66984 3.73175 7.02181 3.73175C8.37378 3.73175 9.47102 4.82899 9.47102 6.18096V7.16063C9.47102 7.43499 9.68653 7.65047 9.96086 7.65047H11.9202C12.1946 7.65047 12.4101 7.43496 12.4101 7.16063V6.18096C12.4101 3.21245 9.99032 0.792664 7.02184 0.792664Z" fill="white" style="fill:white;fill-opacity:1;"/>
<path d="M11.9192 8.69548H2.12237C1.30919 8.69548 0.652832 9.35187 0.652832 10.165V16.0432C0.652832 16.8563 1.30919 17.5127 2.12237 17.5127H11.9193C12.7324 17.5127 13.3888 16.8563 13.3888 16.0432V10.165C13.3888 9.35187 12.7324 8.69548 11.9192 8.69548Z" fill="white" style="fill:white;fill-opacity:1;"/>
<path d="M12.4093 6.18096V7.16063C12.4093 7.43499 12.1938 7.65047 11.9194 7.65047H9.96005C9.68569 7.65047 9.47021 7.43496 9.47021 7.16063V6.18096C9.47021 4.82899 8.37297 3.73175 7.021 3.73175V0.792664C9.98944 0.792664 12.4093 3.21245 12.4093 6.18096Z" fill="white" style="fill:white;fill-opacity:1;"/>
<path d="M13.389 10.165V16.0432C13.389 16.8563 12.7326 17.5127 11.9194 17.5127H7.021V8.69548H11.9194C12.7326 8.69548 13.389 9.35187 13.389 10.165Z" fill="white" style="fill:white;fill-opacity:1;"/>
<path d="M8.49151 12.1241C8.49151 12.7609 8.08008 13.2997 7.51184 13.5054V15.0632C7.51184 15.3865 7.2669 15.553 7.022 15.553C6.7771 15.553 6.53216 15.3865 6.53216 15.0632V13.5054C5.96391 13.2997 5.55249 12.7609 5.55249 12.1241C5.55249 11.3109 6.20885 10.6545 7.02203 10.6545C7.83521 10.6545 8.49151 11.3109 8.49151 12.1241Z" fill="#FE9F45" style="fill:#FE9F45;fill:color(display-p3 0.9961 0.6235 0.2706);fill-opacity:1;"/>
<path d="M8.49051 12.1241C8.49051 12.7609 8.07908 13.2997 7.51083 13.5054V15.0632C7.51083 15.3865 7.2659 15.553 7.021 15.553V10.6545C7.83415 10.6545 8.49051 11.3109 8.49051 12.1241Z" fill="#FE9F45" style="fill:#FE9F45;fill:color(display-p3 0.9961 0.6235 0.2706);fill-opacity:1;"/>
</g>
<defs>
<clipPath id="clip0_160_7422">
<rect width="16.7209" height="16.7209" fill="white" style="fill:white;fill-opacity:1;" transform="translate(0.652832 0.792252)"/>
</clipPath>
</defs>
</svg>
