<svg width="88" height="88" viewBox="0 0 88 88" fill="none" xmlns="http://www.w3.org/2000/svg">
<path d="M63.5935 8.59372H56.257C55.6618 7.56711 54.5507 6.87514 53.281 6.87514H42.7962C41.9977 2.95744 38.5249 0 34.3749 0C30.2248 0 26.7521 2.95744 25.9537 6.87514H15.4687C14.1991 6.87514 13.0879 7.56711 12.4927 8.59372H5.15623C2.31308 8.59372 0 10.9068 0 13.7499V82.8438C0 85.6867 2.31308 87.9998 5.15623 87.9998H63.5935C66.4366 87.9998 68.7497 85.6867 68.7497 82.8438V13.7499C68.7497 10.9068 66.4366 8.59372 63.5935 8.59372ZM27.4997 10.3126C28.4488 10.3126 29.2185 9.54298 29.2185 8.59389C29.2185 5.75057 31.5315 3.43749 34.3749 3.43749C37.2182 3.43749 39.5314 5.75057 39.5314 8.59389C39.5314 9.54298 40.3011 10.3126 41.2502 10.3126H53.281V17.1874H15.4687L15.4683 10.3126H27.4997ZM65.3122 82.8438C65.3122 83.7915 64.5412 84.5623 63.5935 84.5623H5.15623C4.20851 84.5623 3.43749 83.7915 3.43749 82.8438V13.7499C3.43749 12.8022 4.20851 12.0312 5.15623 12.0312H12.0312V15.4687H8.59389C7.6448 15.4687 6.87514 16.2383 6.87514 17.1874V79.4061C6.87514 80.3552 7.6448 81.1249 8.59389 81.1249H26.64C27.5891 81.1249 28.3587 80.3552 28.3587 79.4061C28.3587 78.457 27.5891 77.6874 26.64 77.6874H10.3126V18.9062H12.4925C13.0877 19.933 14.1989 20.6249 15.4687 20.6249H53.281C54.5508 20.6249 55.662 19.933 56.2572 18.9062H58.4373V77.6874H42.1087C41.1596 77.6874 40.3899 78.457 40.3899 79.4061C40.3899 80.3552 41.1596 81.1249 42.1087 81.1249H60.156C61.1051 81.1249 61.8748 80.3552 61.8748 79.4061V17.1874C61.8748 16.2383 61.1051 15.4687 60.156 15.4687H56.7185V12.0312H63.5935C64.5412 12.0312 65.3122 12.8022 65.3122 13.7499V82.8438Z" fill="black" fill-opacity="0.23" style="fill:black;fill-opacity:0.23;"/>
<path d="M34.3756 10.3128C35.3247 10.3128 36.0943 9.54312 36.0943 8.59402C36.0943 7.64493 35.3247 6.87527 34.3756 6.87527H34.3742C33.4251 6.87527 32.6561 7.64493 32.6561 8.59402C32.6561 9.54312 33.4263 10.3128 34.3756 10.3128Z" fill="black" fill-opacity="0.23" style="fill:black;fill-opacity:0.23;"/>
<path d="M80.7715 18.7107C80.4804 18.1284 79.8853 17.7608 79.2343 17.7608H74.078C73.1289 17.7608 72.3593 18.5304 72.3593 19.4795C72.3593 20.4286 73.1289 21.1983 74.078 21.1983H75.7968L72.703 25.3233C72.3125 25.8441 72.2495 26.5408 72.5408 27.1233C72.8319 27.7056 73.427 28.0733 74.078 28.0733H79.2343C80.1834 28.0733 80.953 27.3036 80.953 26.3545C80.953 25.4054 80.1834 24.6358 79.2343 24.6358H77.5155L80.6093 20.5108C80.9998 19.9898 81.0629 19.2932 80.7715 18.7107Z" fill="black" fill-opacity="0.23" style="fill:black;fill-opacity:0.23;"/>
<path d="M86.2813 9.16673H82.8438L87.6563 2.75012C88.0468 2.22934 88.1099 1.53256 87.8185 0.950075C87.5274 0.367763 86.9323 0.00012207 86.2813 0.00012207H79.4063C78.4572 0.00012207 77.6875 0.769778 77.6875 1.71887C77.6875 2.66797 78.4572 3.43762 79.4063 3.43762H82.8438L78.0313 9.85423C77.6408 10.375 77.5777 11.0718 77.869 11.6541C78.1602 12.2366 78.7552 12.6042 79.4063 12.6042H86.2813C87.2304 12.6042 88 11.8346 88 10.8855C88 9.93639 87.2304 9.16673 86.2813 9.16673Z" fill="black" fill-opacity="0.23" style="fill:black;fill-opacity:0.23;"/>
<path d="M25.9223 41.3023C25.2788 41.9458 24.4232 42.3004 23.5131 42.3004C22.6032 42.3004 21.7478 41.946 21.1041 41.3023C20.4328 40.6313 19.3448 40.6313 18.6733 41.3023C18.0021 41.9735 18.0021 43.0618 18.6733 43.7332C19.9661 45.0258 21.6849 45.7379 23.513 45.7379C25.3412 45.7379 27.0599 45.0258 28.3528 43.7332C29.024 43.062 29.024 41.9737 28.3528 41.3023C27.6818 40.6313 26.5936 40.6313 25.9223 41.3023Z" fill="black" fill-opacity="0.23" style="fill:black;fill-opacity:0.23;"/>
<path d="M45.2364 45.738C47.0646 45.738 48.7834 45.0259 50.0762 43.7332C50.7474 43.062 50.7474 41.9737 50.0762 41.3024C49.4049 40.6314 48.3169 40.6314 47.6454 41.3024C47.0019 41.9459 46.1463 42.3005 45.2362 42.3005C44.3261 42.3005 43.4707 41.9461 42.827 41.3024C42.1557 40.6314 41.0677 40.6314 40.3962 41.3024C39.725 41.9736 39.725 43.0619 40.3962 43.7332C41.6896 45.0259 43.4083 45.738 45.2364 45.738Z" fill="black" fill-opacity="0.23" style="fill:black;fill-opacity:0.23;"/>
<path d="M36.8026 52.3572H31.9473C30.9982 52.3572 30.2285 53.1268 30.2285 54.0759C30.2285 55.025 30.9982 55.7947 31.9473 55.7947H36.8026C37.7517 55.7947 38.5213 55.025 38.5213 54.0759C38.5213 53.1268 37.7517 52.3572 36.8026 52.3572Z" fill="black" fill-opacity="0.23" style="fill:black;fill-opacity:0.23;"/>
<path d="M34.3747 77.6875H34.3733C33.4242 77.6875 32.6553 78.4572 32.6553 79.4062C32.6553 80.3553 33.4254 81.125 34.3747 81.125C35.324 81.125 36.0935 80.3553 36.0935 79.4062C36.0935 78.4572 35.3238 77.6875 34.3747 77.6875Z" fill="black" fill-opacity="0.23" style="fill:black;fill-opacity:0.23;"/>
</svg>
