<svg width="96" height="108" viewBox="0 0 96 108" fill="none" xmlns="http://www.w3.org/2000/svg">
    <path d="M95.7532 89.8756C95.2197 87.58 94.1659 85.3864 92.621 83.356C88.2493 77.6104 85.8419 70.4932 85.8419 63.3154V57.7589C85.8419 56.8852 85.1335 56.1769 84.2598 56.1769C83.3861 56.1769 82.6778 56.8852 82.6778 57.7589V63.3154C82.6778 67.8542 83.5576 72.3697 85.2202 76.5872H10.7796C12.4424 72.3697 13.322 67.8542 13.322 63.3154V45.9086C13.322 41.2319 14.2385 36.6928 16.0462 32.4175C16.3865 31.6128 16.01 30.6844 15.2052 30.3442C14.4005 30.0035 13.4722 30.3805 13.1319 31.1852C11.1584 35.8526 10.1577 40.8063 10.1577 45.9086V63.3154C10.1577 70.4934 7.75007 77.6107 3.3786 83.356C1.8337 85.3864 0.779853 87.5798 0.246392 89.8756C-0.0187565 91.0164 0.247024 92.1968 0.975813 93.1143C1.70439 94.0317 2.79409 94.558 3.96501 94.558H35.9606C35.9033 95.0354 35.8731 95.5169 35.8731 96.0004C35.8731 97.3886 36.11 98.7521 36.5768 100.054C36.8086 100.699 37.417 101.102 38.066 101.102C38.2432 101.102 38.4238 101.072 38.6003 101.008C39.4225 100.713 39.8501 99.8074 39.555 98.9849C39.2116 98.0273 39.0372 97.0232 39.0372 96.0006C39.0372 95.5152 39.081 95.0332 39.1591 94.5582H56.5867C56.6646 95.0332 56.7087 95.5152 56.7087 96.0006C56.7087 100.873 52.7449 104.836 47.8729 104.836C46.5014 104.836 45.1852 104.529 43.9609 103.923C43.1779 103.536 42.2289 103.857 41.8414 104.64C41.4539 105.423 41.7745 106.372 42.5577 106.759C44.222 107.583 46.0103 108 47.8729 108C54.4896 108 59.8727 102.617 59.8727 96.0006C59.8727 95.5171 59.8424 95.0356 59.7852 94.5582H92.0344C93.2055 94.5582 94.295 94.0319 95.0236 93.1146C95.7526 92.1968 96.0183 91.0164 95.7532 89.8756ZM92.5461 91.1465C92.4727 91.2389 92.3088 91.3939 92.0346 91.3939H3.96522C3.691 91.3939 3.52689 91.2389 3.4537 91.1465C3.38029 91.0541 3.26638 90.8592 3.3284 90.5922C3.76019 88.7344 4.6244 86.9446 5.89677 85.2721C7.21745 83.5365 8.37339 81.686 9.35657 79.7515H86.6432C87.6264 81.686 88.7823 83.5365 90.103 85.2721C91.3756 86.9446 92.2396 88.7344 92.6714 90.592C92.7334 90.859 92.6195 91.0541 92.5461 91.1465Z" fill="#C3C3C3"/>
    <path d="M17.4749 26.2695C17.7525 26.4661 18.0716 26.5606 18.3878 26.5606C18.8835 26.5606 19.3718 26.3282 19.6802 25.8928C20.9068 24.1608 22.2982 22.5368 23.8215 21.0543C24.7239 21.468 25.7261 21.7006 26.7818 21.7006C30.7133 21.7006 33.9117 18.5022 33.9117 14.5707C33.9117 14.4524 33.9086 14.3349 33.9029 14.218C35.9937 13.2867 38.178 12.5641 40.4097 12.066C43.5062 11.3746 45.669 8.6727 45.669 5.49534C45.6688 4.20989 46.7144 3.16406 47.9998 3.16406C49.2853 3.16406 50.3309 4.20989 50.3309 5.49513C50.3309 8.67248 52.4936 11.3744 55.5902 12.0658C61.6625 13.4213 67.2243 16.3822 71.7624 20.6565C70.8821 21.766 70.3544 23.1673 70.3544 24.6904C70.3544 28.2764 73.2716 31.1936 76.8576 31.1936C77.6819 31.1936 78.47 31.038 79.1964 30.7568C81.4754 35.448 82.6775 40.6553 82.6775 45.9084V49.9485C82.6775 50.8222 83.3859 51.5306 84.2596 51.5306C85.1333 51.5306 85.8416 50.8222 85.8416 49.9485V45.9084C85.8416 39.9999 84.449 34.1421 81.8093 28.8991C82.7756 27.7638 83.3608 26.2944 83.3608 24.6902C83.3608 21.1043 80.4435 18.187 76.8576 18.187C75.9512 18.187 75.0876 18.3739 74.3029 18.7106C69.2843 13.8544 63.076 10.495 56.2793 8.97771C54.6397 8.61173 53.4945 7.17947 53.4945 5.49513C53.495 2.46523 51.03 0 47.9998 0C44.9697 0 42.5047 2.46523 42.5047 5.49513C42.5047 7.17947 41.3595 8.61173 39.7201 8.97771C37.4314 9.4886 35.19 10.2191 33.0345 11.148C31.8214 8.94059 29.4736 7.44082 26.7818 7.44082C22.8504 7.44082 19.6522 10.6393 19.6522 14.5707C19.6522 16.2941 20.267 17.8765 21.2886 19.1105C19.7549 20.6396 18.3477 22.2999 17.0981 24.0642C16.5929 24.7771 16.7617 25.7645 17.4749 26.2695ZM80.1969 24.6904C80.1969 26.5317 78.6988 28.0296 76.8578 28.0296C75.0167 28.0296 73.5186 26.5315 73.5186 24.6904C73.5186 22.8494 75.0167 21.3513 76.8578 21.3513C78.6988 21.3513 80.1969 22.8494 80.1969 24.6904ZM26.7818 10.6049C28.9686 10.6049 30.7477 12.3839 30.7477 14.5707C30.7477 16.7575 28.9686 18.5366 26.7818 18.5366C24.5951 18.5366 22.8162 16.7575 22.8162 14.5707C22.8162 12.3839 24.5951 10.6049 26.7818 10.6049Z" fill="#C3C3C3"/>
    <path d="M47.7224 51.9799C47.7136 51.9799 47.7049 51.9799 47.6961 51.9799C45.7782 51.9799 43.9711 52.6131 42.6059 53.7646C41.9379 54.3278 41.8531 55.326 42.4165 55.9938C42.9797 56.6618 43.9779 56.7466 44.6457 56.1832C45.4297 55.5221 46.541 55.1437 47.6971 55.1437H47.7131C48.8748 55.1471 49.9904 55.5327 50.7741 56.2016C51.0721 56.456 51.437 56.5804 51.8005 56.5804C52.2475 56.5804 52.6917 56.392 53.0045 56.0254C53.5717 55.361 53.4928 54.3624 52.8284 53.795C51.4634 52.6302 49.6502 51.9856 47.7224 51.9799Z" fill="#C3C3C3"/>
    <path d="M38.6866 45.6909C38.6836 45.6909 38.6811 45.6909 38.6781 45.6909C37.8084 45.6909 37.1109 46.394 37.1062 47.2648C37.1018 48.1385 37.8162 48.8506 38.6899 48.855H38.6984C39.5683 48.855 40.2758 48.152 40.2802 47.2812C40.2846 46.4075 39.5801 45.6954 38.7064 45.6909H38.6866Z" fill="#C3C3C3"/>
    <path d="M57.2005 45.6909H57.1963C57.1957 45.6909 57.1953 45.6909 57.1946 45.6909H57.1807H57.1746C57.1737 45.6909 57.1731 45.6909 57.1723 45.6909C56.3026 45.6909 55.605 46.394 55.6004 47.2648C55.5961 48.087 56.2285 48.7654 57.0311 48.8466C57.0415 48.8476 57.0522 48.8474 57.0628 48.8483C57.1029 48.8514 57.1432 48.8548 57.1841 48.855H57.1925H57.1946C57.2151 48.855 57.2349 48.8527 57.2552 48.8518C57.2881 48.8506 57.3212 48.8502 57.3535 48.847C58.1525 48.7673 58.7764 48.0931 58.7764 47.273C58.7764 46.4136 58.0909 45.7158 57.237 45.6931C57.225 45.6926 57.213 45.6912 57.2005 45.6909Z" fill="#C3C3C3"/>
    <path d="M87.104 20.1213L88.5247 21.542L87.104 22.9627C86.4862 23.5805 86.4862 24.5822 87.104 25.1999C87.4128 25.5087 87.8178 25.6633 88.2226 25.6633C88.6274 25.6633 89.0324 25.5089 89.3412 25.1999L90.7619 23.7792L92.1825 25.1999C92.4913 25.5087 92.8963 25.6633 93.3011 25.6633C93.7059 25.6633 94.1109 25.5089 94.4197 25.1999C95.0376 24.582 95.0376 23.5803 94.4197 22.9627L92.9991 21.542L94.4197 20.1213C95.0376 19.5035 95.0376 18.5017 94.4197 17.8841C93.8019 17.2663 92.8002 17.2663 92.1825 17.8841L90.7619 19.3048L89.3412 17.8841C88.7234 17.2663 87.7216 17.2663 87.104 17.8841C86.4862 18.5017 86.4862 19.5035 87.104 20.1213Z" fill="#C3C3C3"/>
    <path d="M80.4038 15.1284C84.5396 15.1284 87.9045 11.7636 87.9045 7.6275C87.9045 3.49143 84.5398 0.12677 80.4038 0.12677C76.2677 0.12677 72.9028 3.49164 72.9028 7.6275C72.9028 11.7633 76.2679 15.1284 80.4038 15.1284ZM80.4038 3.29083C82.795 3.29083 84.7404 5.23631 84.7404 7.6275C84.7404 10.0187 82.795 11.9644 80.4038 11.9644C78.0126 11.9644 76.0669 10.0189 76.0669 7.6275C76.0669 5.2361 78.0126 3.29083 80.4038 3.29083Z" fill="#C3C3C3"/>
    <path d="M7.58569 12.9294C7.8945 13.2382 8.2995 13.3928 8.70429 13.3928C9.10908 13.3928 9.51408 13.2384 9.8229 12.9294L10.7955 11.9568L11.7682 12.9294C12.077 13.2382 12.482 13.3928 12.8868 13.3928C13.2916 13.3928 13.6966 13.2384 14.0054 12.9294C14.6232 12.3116 14.6232 11.3098 14.0054 10.6922L13.0327 9.71957L14.0054 8.74694C14.6232 8.1291 14.6232 7.12736 14.0054 6.50973C13.3875 5.8919 12.3858 5.8919 11.7682 6.50973L10.7955 7.48237L9.8229 6.50973C9.20506 5.8919 8.20332 5.8919 7.58569 6.50973C6.96786 7.12757 6.96786 8.12931 7.58569 8.74694L8.55832 9.71957L7.58569 10.6922C6.96786 11.3098 6.96786 12.3116 7.58569 12.9294Z" fill="#C3C3C3"/>
</svg>