<svg width="28" height="34" viewBox="0 0 28 34" fill="none" xmlns="http://www.w3.org/2000/svg">
<path d="M24.9723 26.0128V14.9943C24.9723 9.84016 21.4367 5.51634 16.6658 4.30247C11.8877 5.51634 8.35928 9.84016 8.35928 14.9943V26.1124C7.11685 26.7017 6.23633 27.9652 6.23633 29.4351H27.3222C27.3152 27.8801 26.3282 26.5597 24.9723 26.0128Z" fill="#FE9F45" style="fill:#FE9F45;fill:color(display-p3 0.9961 0.6235 0.2706);fill-opacity:1;"/>
<path d="M15.4094 32.9919C16.2968 32.5091 16.9003 31.565 16.9003 30.4857V29.4352H13.9185V30.4857C13.9185 31.565 14.5219 32.5091 15.4094 32.9919Z" fill="#FE9F45" style="fill:#FE9F45;fill:color(display-p3 0.9961 0.6235 0.2706);fill-opacity:1;"/>
<path d="M25.6328 25.5941V14.9943C25.6328 9.61275 21.9765 5.06901 17.021 3.71315V2.96048C17.021 1.32757 15.6934 0 14.0605 0H14.025C12.3921 0 11.0642 1.32757 11.0642 2.96048V3.6563C6.00244 4.93422 2.23965 9.53482 2.23965 14.9943V25.7147C0.933154 26.4957 0.116699 27.9156 0.116699 29.4351C0.116699 29.6126 0.187695 29.7828 0.308333 29.9035C0.436181 30.0313 0.599528 30.0951 0.777018 30.0951H10.5248V30.4856C10.5248 32.4238 12.1009 33.9999 14.0391 33.9999C15.9774 33.9999 17.5534 32.4238 17.5534 30.4856V30.0951H27.3012C27.6704 30.0951 27.9685 29.797 27.9685 29.4279C27.9757 27.8304 27.0528 26.3395 25.6328 25.5941ZM12.399 3.30132V2.96048C12.399 2.05888 13.1303 1.32757 14.0319 1.32757H14.0674C14.969 1.32757 15.7003 2.05888 15.7003 2.96048V3.30132H12.399ZM16.2328 30.4856C16.2328 31.6925 15.253 32.6723 14.0461 32.6723C12.8391 32.6723 11.8596 31.6925 11.8596 30.4856V30.0951H16.24L16.2328 30.4856ZM16.9003 28.7675H1.52248C1.72132 27.9228 2.28208 27.1843 3.07025 26.7727H15.4732C15.8423 26.7727 16.1404 26.4743 16.1404 26.1052C16.1404 25.7361 15.8423 25.4379 15.4732 25.4379H3.56722V14.9943C3.56722 9.27913 8.21746 4.62889 13.9326 4.62889C19.6478 4.62889 24.2981 9.27913 24.2981 14.9943V26.0128C24.2981 26.2827 24.4614 26.5312 24.7168 26.6307C25.6539 26.9998 26.3428 27.8163 26.5627 28.7675H16.9003Z" fill="black" style="fill:black;fill-opacity:1;"/>
<path d="M18.029 25.4449C17.8515 25.4449 17.6812 25.5159 17.5603 25.6368C17.4396 25.7574 17.3687 25.9349 17.3687 26.1052C17.3687 26.2757 17.4396 26.4532 17.5603 26.5739C17.6812 26.6945 17.8587 26.7655 18.029 26.7655C18.1993 26.7655 18.3767 26.6945 18.4977 26.5739C18.6183 26.4532 18.6893 26.2757 18.6893 26.1052C18.6893 25.9277 18.6183 25.7574 18.4977 25.6368C18.3767 25.5159 18.2065 25.4449 18.029 25.4449Z" fill="black" style="fill:black;fill-opacity:1;"/>
</svg>
