<svg width="330" height="330" viewBox="0 0 330 330" fill="none" xmlns="http://www.w3.org/2000/svg">
<path fill-rule="evenodd" clip-rule="evenodd" d="M9.79321 147.551H94.8701V6.12231H9.79321V147.551Z" fill="#E0E0E0" style="fill:#E0E0E0;fill:color(display-p3 0.8780 0.8780 0.8780);fill-opacity:1;"/>
<path fill-rule="evenodd" clip-rule="evenodd" d="M6.73267 147.551H91.8095V6.12231H6.73267V147.551Z" fill="#EBEBEB" style="fill:#EBEBEB;fill:color(display-p3 0.9207 0.9207 0.9207);fill-opacity:1;"/>
<path fill-rule="evenodd" clip-rule="evenodd" d="M9.79321 144.489H88.1374V9.18335H9.79321V144.489Z" fill="white" style="fill:white;fill-opacity:1;"/>
<path fill-rule="evenodd" clip-rule="evenodd" d="M25.0942 127.347H72.8352V26.9387H25.0942V127.347Z" fill="#EBEBEB" style="fill:#EBEBEB;fill:color(display-p3 0.9207 0.9207 0.9207);fill-opacity:1;"/>
<path fill-rule="evenodd" clip-rule="evenodd" d="M25.0282 91.7482C24.9171 82.373 33.3486 73.2208 42.6337 71.9118C47.0615 71.2879 51.766 72.166 55.9038 70.4702C63.2878 67.4423 65.6378 57.6325 73.0702 54.7231L73.4094 127.264H25.0282V91.7482Z" fill="#E0E0E0" style="fill:#E0E0E0;fill:color(display-p3 0.8780 0.8780 0.8780);fill-opacity:1;"/>
<mask id="mask0_148_3712" style="mask-type:luminance" maskUnits="userSpaceOnUse" x="202" y="0" width="117" height="78">
<path fill-rule="evenodd" clip-rule="evenodd" d="M202.349 0H318.101V77.7754H202.349V0Z" fill="white" style="fill:white;fill-opacity:1;"/>
</mask>
<g mask="url(#mask0_148_3712)">
<path fill-rule="evenodd" clip-rule="evenodd" d="M318.101 -0.000488281V77.7752H206.374L202.349 0.543669L318.101 -0.000488281Z" fill="#E0E0E0" style="fill:#E0E0E0;fill:color(display-p3 0.8780 0.8780 0.8780);fill-opacity:1;"/>
</g>
<mask id="mask1_148_3712" style="mask-type:luminance" maskUnits="userSpaceOnUse" x="0" y="0" width="330" height="330">
<path fill-rule="evenodd" clip-rule="evenodd" d="M0 330H329.29V0H0V330Z" fill="white" style="fill:white;fill-opacity:1;"/>
</mask>
<g mask="url(#mask1_148_3712)">
<path fill-rule="evenodd" clip-rule="evenodd" d="M202.349 77.6115H314.075V0.543213H202.349V77.6115Z" fill="white" style="fill:white;fill-opacity:1;"/>
<path fill-rule="evenodd" clip-rule="evenodd" d="M202.88 77.082H313.547V1.07364H202.88V77.082ZM201.819 78.1417H314.606V0.0141602H201.819V78.1417Z" fill="#E0E0E0" style="fill:#E0E0E0;fill:color(display-p3 0.8780 0.8780 0.8780);fill-opacity:1;"/>
<path fill-rule="evenodd" clip-rule="evenodd" d="M214.45 68.0368H301.975V10.1191H214.45V68.0368Z" fill="white" style="fill:white;fill-opacity:1;"/>
<path fill-rule="evenodd" clip-rule="evenodd" d="M301.975 10.1189C301.975 10.1189 301.824 10.1286 301.543 10.1338C301.247 10.1368 300.835 10.142 300.299 10.1487C299.19 10.1554 297.579 10.1659 295.492 10.1793C291.287 10.1957 285.175 10.2181 277.455 10.2471C262.02 10.2777 240.172 10.3209 214.45 10.3716L214.703 10.1189C214.709 27.8145 214.718 47.4213 214.726 68.0292V68.0366L214.45 67.7608C247.467 67.7817 277.907 67.8011 301.975 67.8167L301.755 68.0366C301.804 50.4111 301.843 35.9604 301.87 25.8965C301.895 20.8664 301.914 16.9373 301.927 14.2433C301.937 12.9128 301.945 11.8908 301.951 11.1811C301.959 10.4879 301.975 10.1189 301.975 10.1189C301.975 10.1189 301.991 10.4559 301.998 11.1349C302.004 11.8349 302.012 12.8427 302.023 14.1561C302.036 16.8381 302.055 20.7516 302.079 25.7593C302.107 35.8553 302.146 50.3537 302.195 68.0366L302.196 68.2565H301.975C277.907 68.2722 247.467 68.2916 214.45 68.3124L214.173 68.3132V68.0366V68.0292C214.182 47.4213 214.19 27.8145 214.196 10.1189V9.86548H214.45C240.24 9.91691 262.145 9.96015 277.621 9.98996C285.316 10.019 291.41 10.0421 295.601 10.0585C297.667 10.072 299.259 10.0817 300.357 10.0891C300.881 10.0951 301.283 10.1003 301.573 10.104C301.844 10.1085 301.975 10.1189 301.975 10.1189Z" fill="#E0E0E0" style="fill:#E0E0E0;fill:color(display-p3 0.8780 0.8780 0.8780);fill-opacity:1;"/>
<path fill-rule="evenodd" clip-rule="evenodd" d="M202.35 0.327611C202.396 0.267231 203.127 0.746537 204.27 1.57172C205.413 2.3969 206.97 3.56721 208.65 4.9112C210.331 6.25743 211.809 7.52912 212.85 8.48177C213.891 9.43516 214.499 10.0628 214.45 10.1195C214.346 10.2365 211.66 8.0211 208.305 5.3428C204.948 2.66674 202.251 0.453587 202.35 0.327611Z" fill="#E0E0E0" style="fill:#E0E0E0;fill:color(display-p3 0.8780 0.8780 0.8780);fill-opacity:1;"/>
<path fill-rule="evenodd" clip-rule="evenodd" d="M314.076 0.544022C314.17 0.66329 311.538 2.90402 308.196 5.54729C304.855 8.19204 302.069 10.2382 301.975 10.119C301.881 9.99968 304.512 7.7597 307.854 5.11494C311.196 2.47093 313.981 0.424755 314.076 0.544022Z" fill="#E0E0E0" style="fill:#E0E0E0;fill:color(display-p3 0.8780 0.8780 0.8780);fill-opacity:1;"/>
<path fill-rule="evenodd" clip-rule="evenodd" d="M313.987 77.6226C309.835 74.2577 305.682 70.8929 301.53 67.5281L313.987 77.6226Z" fill="white" style="fill:white;fill-opacity:1;"/>
<path fill-rule="evenodd" clip-rule="evenodd" d="M301.53 67.5283C301.626 67.4098 304.493 69.5738 307.932 72.3609C311.372 75.1495 314.083 77.5043 313.987 77.6228C313.892 77.7413 311.025 75.5781 307.585 72.7895C304.146 70.0024 301.434 67.6468 301.53 67.5283Z" fill="#E0E0E0" style="fill:#E0E0E0;fill:color(display-p3 0.8780 0.8780 0.8780);fill-opacity:1;"/>
<path fill-rule="evenodd" clip-rule="evenodd" d="M202.349 77.6121C202.255 77.4921 204.859 75.2752 208.166 72.6602C211.474 70.0446 214.232 68.0215 214.326 68.1408C214.421 68.2608 211.816 70.4776 208.509 73.0933C205.202 75.7083 202.444 77.7313 202.349 77.6121Z" fill="#E0E0E0" style="fill:#E0E0E0;fill:color(display-p3 0.8780 0.8780 0.8780);fill-opacity:1;"/>
<path fill-rule="evenodd" clip-rule="evenodd" d="M232.221 47.5564H287.293V28.1636H232.221V47.5564Z" fill="#E0E0E0" style="fill:#E0E0E0;fill:color(display-p3 0.8780 0.8780 0.8780);fill-opacity:1;"/>
<path fill-rule="evenodd" clip-rule="evenodd" d="M148.644 258.393C148.644 255.011 151.234 252.567 154.714 252.567C156.56 252.567 158.147 253.23 159.199 254.461L157.839 255.739C157.013 254.849 155.993 254.411 154.811 254.411C152.464 254.411 150.764 256.062 150.764 258.393C150.764 260.724 152.464 262.375 154.811 262.375C155.993 262.375 157.013 261.938 157.839 261.031L159.199 262.326C158.147 263.557 156.56 264.22 154.698 264.22C151.234 264.22 148.644 261.776 148.644 258.393Z" fill="#EBEBEB" style="fill:#EBEBEB;fill:color(display-p3 0.9207 0.9207 0.9207);fill-opacity:1;"/>
<path fill-rule="evenodd" clip-rule="evenodd" d="M123.837 266.526H136.395V253.97H123.837V266.526ZM137.141 267.271H123.092V253.224H137.141V267.271Z" fill="#EBEBEB" style="fill:#EBEBEB;fill:color(display-p3 0.9207 0.9207 0.9207);fill-opacity:1;"/>
<path fill-rule="evenodd" clip-rule="evenodd" d="M120.414 270.19C120 269.876 123.353 264.837 128.521 259.493C133.677 254.134 138.59 250.603 138.921 251.006C139.276 251.427 134.992 255.566 129.918 260.841C124.831 266.1 120.848 270.53 120.414 270.19Z" fill="#E0E0E0" style="fill:#E0E0E0;fill:color(display-p3 0.8780 0.8780 0.8780);fill-opacity:1;"/>
<path fill-rule="evenodd" clip-rule="evenodd" d="M139.153 269.91C138.701 270.235 134.869 265.573 129.801 260.174C124.751 254.755 120.356 250.621 120.71 250.192C121.03 249.788 126.066 253.322 131.219 258.849C136.387 264.356 139.577 269.617 139.153 269.91Z" fill="#E0E0E0" style="fill:#E0E0E0;fill:color(display-p3 0.8780 0.8780 0.8780);fill-opacity:1;"/>
<path fill-rule="evenodd" clip-rule="evenodd" d="M42.4078 210.513L40.2331 204.294L37.221 210.145L42.4078 210.513ZM43.1133 212.584L36.2103 212.094L34.623 215.192L31.98 215.004L39.1723 201.643L41.6975 201.822L46.9492 216.067L44.2667 215.877L43.1133 212.584Z" fill="#EBEBEB" style="fill:#EBEBEB;fill:color(display-p3 0.9207 0.9207 0.9207);fill-opacity:1;"/>
<path fill-rule="evenodd" clip-rule="evenodd" d="M4.42321 213.869L19.8875 214.967L20.9857 199.505L5.52216 198.407L4.42321 213.869ZM20.5779 215.763L3.62695 214.559L4.83102 197.611L21.7827 198.815L20.5779 215.763Z" fill="#EBEBEB" style="fill:#EBEBEB;fill:color(display-p3 0.9207 0.9207 0.9207);fill-opacity:1;"/>
<path fill-rule="evenodd" clip-rule="evenodd" d="M0.0226749 217.962C-0.365759 217.621 4.22014 211.845 10.9696 205.791C17.705 199.715 23.9333 195.767 24.2308 196.189C24.5581 196.638 18.9158 201.237 12.2677 207.233C5.60538 213.208 0.434221 218.334 0.0226749 217.962Z" fill="#E0E0E0" style="fill:#E0E0E0;fill:color(display-p3 0.8780 0.8780 0.8780);fill-opacity:1;"/>
<path fill-rule="evenodd" clip-rule="evenodd" d="M22.8773 219.241C22.4002 219.536 18.2101 213.464 12.4925 206.434C6.79869 199.383 1.72669 194.028 2.11437 193.622C2.45808 193.244 8.21301 198.046 14.0007 205.213C19.8108 212.358 23.3179 218.983 22.8773 219.241Z" fill="#E0E0E0" style="fill:#E0E0E0;fill:color(display-p3 0.8780 0.8780 0.8780);fill-opacity:1;"/>
<path fill-rule="evenodd" clip-rule="evenodd" d="M326.575 139.305C326.198 137.973 325.022 137.67 323.158 138.198L319.164 139.329L320.251 143.17L324.246 142.039C326.11 141.511 326.952 140.636 326.575 139.305ZM317.58 133.736L318.619 137.407L322.119 136.415C323.831 135.931 324.63 135.048 324.286 133.831C323.935 132.595 322.792 132.26 321.08 132.746L317.58 133.736ZM329.138 138.847C329.784 141.129 328.372 142.968 324.947 143.937L318.327 145.811L314.557 132.496L320.797 130.73C323.993 129.825 326.088 130.691 326.685 132.803C327.073 134.172 326.674 135.374 325.803 136.215C327.359 136.269 328.647 137.116 329.138 138.847Z" fill="#EBEBEB" style="fill:#EBEBEB;fill:color(display-p3 0.9207 0.9207 0.9207);fill-opacity:1;"/>
<path fill-rule="evenodd" clip-rule="evenodd" d="M285.919 139.725L290.142 154.64L305.06 150.418L300.836 135.503L285.919 139.725ZM289.628 155.56L284.999 139.212L301.35 134.583L305.979 150.931L289.628 155.56Z" fill="#EBEBEB" style="fill:#EBEBEB;fill:color(display-p3 0.9207 0.9207 0.9207);fill-opacity:1;"/>
<path fill-rule="evenodd" clip-rule="evenodd" d="M287.395 159.985C286.914 159.797 289.263 152.806 293.553 144.818C297.822 136.816 302.336 130.985 302.76 131.281C303.22 131.592 299.477 137.835 295.265 145.734C291.029 153.617 287.909 160.195 287.395 159.985Z" fill="#E0E0E0" style="fill:#E0E0E0;fill:color(display-p3 0.8780 0.8780 0.8780);fill-opacity:1;"/>
<path fill-rule="evenodd" clip-rule="evenodd" d="M309.324 153.421C308.975 153.86 302.971 149.573 295.204 144.906C287.451 140.209 280.861 136.896 281.087 136.383C281.283 135.911 288.327 138.472 296.206 143.244C304.099 147.989 309.65 153.028 309.324 153.421Z" fill="#E0E0E0" style="fill:#E0E0E0;fill:color(display-p3 0.8780 0.8780 0.8780);fill-opacity:1;"/>
</g>
<path fill-rule="evenodd" clip-rule="evenodd" d="M327.454 300.306C327.454 300.395 254.282 300.466 164.041 300.466C73.7679 300.466 0.611816 300.395 0.611816 300.306C0.611816 300.218 73.7679 300.147 164.041 300.147C254.282 300.147 327.454 300.218 327.454 300.306Z" fill="black" style="fill:black;fill-opacity:1;"/>
<path fill-rule="evenodd" clip-rule="evenodd" d="M39.7842 230.816H231.36V36.7349H39.7842V230.816Z" fill="white" style="fill:white;fill-opacity:1;"/>
<path fill-rule="evenodd" clip-rule="evenodd" d="M231.284 230.933C231.284 230.933 231.277 230.851 231.274 230.697C231.272 230.541 231.269 230.313 231.265 230.012C231.261 229.406 231.254 228.509 231.246 227.327C231.238 224.961 231.224 221.459 231.207 216.892C231.186 207.77 231.157 194.398 231.119 177.386C231.078 143.413 231.019 94.9034 230.948 36.7382L231.284 37.0744C175.564 37.0901 109.878 37.1072 39.8355 37.1258H39.8169L40.2046 36.7382C40.1859 107.907 40.1673 174.566 40.1517 230.932L39.8169 230.598C97.2268 230.669 145.056 230.728 178.536 230.768C195.301 230.806 208.473 230.836 217.458 230.855C221.956 230.873 225.405 230.887 227.733 230.895C228.898 230.903 229.781 230.91 230.378 230.914C230.673 230.917 230.897 230.921 231.051 230.923C231.204 230.926 231.284 230.933 231.284 230.933C231.287 230.936 231.216 230.939 231.071 230.943C230.921 230.945 230.703 230.948 230.415 230.952C229.827 230.955 228.956 230.962 227.807 230.97C225.493 230.979 222.066 230.992 217.596 231.01C208.628 231.03 195.482 231.059 178.749 231.097C145.218 231.138 97.3155 231.197 39.8169 231.268H39.4821V230.932C39.4665 174.566 39.4479 107.907 39.4285 36.7382V36.3499H39.8169H39.8355C109.878 36.3685 175.564 36.3864 231.284 36.4013H231.621L231.62 36.7382C231.55 94.9921 231.491 143.576 231.45 177.601C231.412 194.58 231.382 207.926 231.362 217.032C231.344 221.57 231.33 225.05 231.322 227.4C231.314 228.567 231.307 229.453 231.303 230.05C231.299 230.342 231.296 230.563 231.294 230.715C231.291 230.863 231.287 230.936 231.284 230.933Z" fill="#263238" style="fill:#263238;fill:color(display-p3 0.1490 0.1960 0.2200);fill-opacity:1;"/>
<path fill-rule="evenodd" clip-rule="evenodd" d="M54.8422 68.4133V73.5649H53.8849V69.2154H52.7957V68.4133H54.8422Z" fill="black" style="fill:black;fill-opacity:1;"/>
<path fill-rule="evenodd" clip-rule="evenodd" d="M55.8354 73.0053C55.8354 72.637 56.1076 72.3948 56.4393 72.3948C56.7704 72.3948 57.0425 72.637 57.0425 73.0053C57.0425 73.3586 56.7704 73.6165 56.4393 73.6165C56.1076 73.6165 55.8354 73.3586 55.8354 73.0053Z" fill="black" style="fill:black;fill-opacity:1;"/>
<path fill-rule="evenodd" clip-rule="evenodd" d="M123.63 47.5927C123.63 46.5401 122.857 45.7828 121.819 45.7828C120.781 45.7828 120.009 46.5401 120.009 47.5927C120.009 48.6452 120.781 49.4033 121.819 49.4033C122.857 49.4033 123.63 48.6452 123.63 47.5927ZM119.045 47.5931C119.045 46.0702 120.222 44.9438 121.819 44.9438C123.417 44.9438 124.594 46.0627 124.594 47.5931C124.594 49.1242 123.417 50.2423 121.819 50.2423C120.222 50.2423 119.045 49.1167 119.045 47.5931Z" fill="black" style="fill:black;fill-opacity:1;"/>
<path fill-rule="evenodd" clip-rule="evenodd" d="M130.187 45.0176V50.1692H129.399L126.558 46.6806V50.1692H125.609V45.0176H126.397L129.237 48.5061V45.0176H130.187Z" fill="black" style="fill:black;fill-opacity:1;"/>
<path fill-rule="evenodd" clip-rule="evenodd" d="M131.569 45.0176H132.526V49.3597H135.22V50.1692H131.569V45.0176Z" fill="black" style="fill:black;fill-opacity:1;"/>
<mask id="mask2_148_3712" style="mask-type:luminance" maskUnits="userSpaceOnUse" x="0" y="0" width="330" height="330">
<path fill-rule="evenodd" clip-rule="evenodd" d="M0 330H329.29V0H0V330Z" fill="white" style="fill:white;fill-opacity:1;"/>
</mask>
<g mask="url(#mask2_148_3712)">
<path fill-rule="evenodd" clip-rule="evenodd" d="M135.978 50.1692H136.934V45.0176H135.978V50.1692Z" fill="black" style="fill:black;fill-opacity:1;"/>
<path fill-rule="evenodd" clip-rule="evenodd" d="M142.903 45.0176V50.1692H142.115L139.274 46.6806V50.1692H138.324V45.0176H139.113L141.953 48.5061V45.0176H142.903Z" fill="black" style="fill:black;fill-opacity:1;"/>
<path fill-rule="evenodd" clip-rule="evenodd" d="M148.15 49.3669V50.1689H144.286V45.0181H148.047V45.8201H145.243V47.1597H147.731V47.9468H145.243V49.3669H148.15Z" fill="black" style="fill:black;fill-opacity:1;"/>
<path fill-rule="evenodd" clip-rule="evenodd" d="M152.293 45.8271H150.584V45.0176H154.957V45.8271H153.249V50.1692H152.293V45.8271Z" fill="black" style="fill:black;fill-opacity:1;"/>
<path fill-rule="evenodd" clip-rule="evenodd" d="M159.541 49.3669V50.1689H155.677V45.0181H159.438V45.8201H156.634V47.1597H159.122V47.9468H156.634V49.3669H159.541Z" fill="black" style="fill:black;fill-opacity:1;"/>
<path fill-rule="evenodd" clip-rule="evenodd" d="M160.173 49.6246L160.504 48.8814C160.917 49.2124 161.571 49.4479 162.205 49.4479C163.007 49.4479 163.346 49.1609 163.346 48.7785C163.346 47.6671 160.284 48.3954 160.284 46.4819C160.284 45.6508 160.946 44.9441 162.359 44.9441C162.977 44.9441 163.625 45.1058 164.074 45.4003L163.773 46.1435C163.309 45.8714 162.801 45.7387 162.352 45.7387C161.557 45.7387 161.233 46.0481 161.233 46.4379C161.233 47.5344 164.288 46.8203 164.288 48.7122C164.288 49.5359 163.618 50.2425 162.205 50.2425C161.402 50.2425 160.6 49.9928 160.173 49.6246Z" fill="black" style="fill:black;fill-opacity:1;"/>
<path fill-rule="evenodd" clip-rule="evenodd" d="M166.208 45.8271H164.5V45.0176H168.872V45.8271H167.164V50.1692H166.208V45.8271Z" fill="black" style="fill:black;fill-opacity:1;"/>
<path fill-rule="evenodd" clip-rule="evenodd" d="M78.3836 90.2919L77.4121 88.04L76.4481 90.2919H78.3836ZM78.7006 91.0429H76.124L75.6163 92.2348H74.6299L76.9486 87.084H77.8909L80.2163 92.2348H79.2158L78.7006 91.0429Z" fill="black" style="fill:black;fill-opacity:1;"/>
<path fill-rule="evenodd" clip-rule="evenodd" d="M54.8347 48.071C54.8347 49.2294 53.8953 50.1686 52.7367 50.1686C51.5773 50.1686 50.6379 49.2294 50.6379 48.071C50.6379 46.9119 51.5773 45.9727 52.7367 45.9727C53.8953 45.9727 54.8347 46.9119 54.8347 48.071Z" fill="black" style="fill:black;fill-opacity:1;"/>
<path fill-rule="evenodd" clip-rule="evenodd" d="M61.1799 48.071C61.1799 49.2294 60.2405 50.1686 59.0819 50.1686C57.9226 50.1686 56.9832 49.2294 56.9832 48.071C56.9832 46.9119 57.9226 45.9727 59.0819 45.9727C60.2405 45.9727 61.1799 46.9119 61.1799 48.071Z" fill="black" style="fill:black;fill-opacity:1;"/>
<path fill-rule="evenodd" clip-rule="evenodd" d="M67.5244 48.071C67.5244 49.2294 66.585 50.1686 65.4264 50.1686C64.267 50.1686 63.3276 49.2294 63.3276 48.071C63.3276 46.9119 64.267 45.9727 65.4264 45.9727C66.585 45.9727 67.5244 46.9119 67.5244 48.071Z" fill="black" style="fill:black;fill-opacity:1;"/>
<path fill-rule="evenodd" clip-rule="evenodd" d="M231.284 58.4314C231.284 58.5388 188.636 58.626 136.039 58.626C83.4241 58.626 40.7852 58.5388 40.7852 58.4314C40.7852 58.3241 83.4241 58.2376 136.039 58.2376C188.636 58.2376 231.284 58.3241 231.284 58.4314Z" fill="black" style="fill:black;fill-opacity:1;"/>
<path fill-rule="evenodd" clip-rule="evenodd" d="M210.343 72.8321C210.343 72.9394 177.143 73.0259 136.197 73.0259C95.2373 73.0259 62.043 72.9394 62.043 72.8321C62.043 72.7247 95.2373 72.6375 136.197 72.6375C177.143 72.6375 210.343 72.7247 210.343 72.8321Z" fill="black" style="fill:black;fill-opacity:1;"/>
<path fill-rule="evenodd" clip-rule="evenodd" d="M119.272 77.869C119.272 77.9764 106.567 78.0629 90.898 78.0629C75.2235 78.0629 62.5215 77.9764 62.5215 77.869C62.5215 77.7617 75.2235 77.6752 90.898 77.6752C106.567 77.6752 119.272 77.7617 119.272 77.869Z" fill="black" style="fill:black;fill-opacity:1;"/>
<path fill-rule="evenodd" clip-rule="evenodd" d="M64.6064 92.3063H69.9073V87.0064H64.6064V92.3063ZM63.8606 93.0518H70.6526V86.261H63.8606V93.0518Z" fill="black" style="fill:black;fill-opacity:1;"/>
<path fill-rule="evenodd" clip-rule="evenodd" d="M78.9365 103.632C78.9365 103.117 78.5465 102.889 77.8248 102.889H76.2793V104.375H77.8248C78.5465 104.375 78.9365 104.147 78.9365 103.632ZM76.2793 100.725V102.145H77.6332C78.296 102.145 78.6718 101.909 78.6718 101.439C78.6718 100.96 78.296 100.725 77.6332 100.725H76.2793ZM79.9007 103.728C79.9007 104.611 79.2088 105.126 77.884 105.126H75.323V99.9746H77.7371C78.9732 99.9746 79.636 100.497 79.636 101.314C79.636 101.844 79.3714 102.234 78.9732 102.447C79.5257 102.624 79.9007 103.058 79.9007 103.728Z" fill="black" style="fill:black;fill-opacity:1;"/>
<path fill-rule="evenodd" clip-rule="evenodd" d="M64.6064 105.198H69.9073V99.8976H64.6064V105.198ZM63.8606 105.943H70.6526V99.1519H63.8606V105.943Z" fill="black" style="fill:black;fill-opacity:1;"/>
<path fill-rule="evenodd" clip-rule="evenodd" d="M74.9548 115.441C74.9548 113.903 76.1328 112.792 77.7149 112.792C78.5544 112.792 79.2753 113.094 79.754 113.653L79.1352 114.234C78.7601 113.83 78.2964 113.631 77.7589 113.631C76.692 113.631 75.9188 114.382 75.9188 115.441C75.9188 116.501 76.692 117.252 77.7589 117.252C78.2964 117.252 78.7601 117.053 79.1352 116.641L79.754 117.229C79.2753 117.789 78.5544 118.09 77.7074 118.09C76.1328 118.09 74.9548 116.979 74.9548 115.441Z" fill="black" style="fill:black;fill-opacity:1;"/>
<path fill-rule="evenodd" clip-rule="evenodd" d="M64.6064 118.089H69.9073V112.789H64.6064V118.089ZM63.8606 118.834H70.6526V112.043H63.8606V118.834Z" fill="black" style="fill:black;fill-opacity:1;"/>
<path fill-rule="evenodd" clip-rule="evenodd" d="M77.5304 130.099C78.6785 130.099 79.4218 129.4 79.4218 128.333C79.4218 127.266 78.6785 126.567 77.5304 126.567H76.2793V130.099H77.5304ZM75.323 125.757H77.5753C79.2454 125.757 80.3868 126.787 80.3868 128.333C80.3868 129.879 79.2454 130.909 77.5753 130.909H75.323V125.757Z" fill="black" style="fill:black;fill-opacity:1;"/>
<path fill-rule="evenodd" clip-rule="evenodd" d="M64.6064 130.98H69.9073V125.68H64.6064V130.98ZM63.8606 131.726H70.6526V124.935H63.8606V131.726Z" fill="black" style="fill:black;fill-opacity:1;"/>
<path fill-rule="evenodd" clip-rule="evenodd" d="M136.194 89.6557C136.194 89.763 124.989 89.8495 111.17 89.8495C97.346 89.8495 86.1433 89.763 86.1433 89.6557C86.1433 89.5483 97.346 89.4619 111.17 89.4619C124.989 89.4619 136.194 89.5483 136.194 89.6557Z" fill="black" style="fill:black;fill-opacity:1;"/>
<path fill-rule="evenodd" clip-rule="evenodd" d="M205.081 102.547C205.081 102.655 178.454 102.741 145.615 102.741C112.765 102.741 86.1438 102.655 86.1438 102.547C86.1438 102.44 112.765 102.353 145.615 102.353C178.454 102.353 205.081 102.44 205.081 102.547Z" fill="black" style="fill:black;fill-opacity:1;"/>
<path fill-rule="evenodd" clip-rule="evenodd" d="M102.509 128.33C102.509 128.437 98.8448 128.523 94.326 128.523C89.8057 128.523 86.1428 128.437 86.1428 128.33C86.1428 128.222 89.8057 128.135 94.326 128.135C98.8448 128.135 102.509 128.222 102.509 128.33Z" fill="black" style="fill:black;fill-opacity:1;"/>
<path fill-rule="evenodd" clip-rule="evenodd" d="M145.612 115.439C145.612 115.546 132.299 115.632 115.879 115.632C99.4539 115.632 86.1428 115.546 86.1428 115.439C86.1428 115.331 99.4539 115.245 115.879 115.245C132.299 115.245 145.612 115.331 145.612 115.439Z" fill="black" style="fill:black;fill-opacity:1;"/>
<path fill-rule="evenodd" clip-rule="evenodd" d="M54.9933 146.68V147.489H51.1954V146.849L53.2412 144.906C53.7415 144.428 53.8302 144.126 53.8302 143.839C53.8302 143.368 53.5059 143.096 52.8736 143.096C52.3726 143.096 51.9529 143.265 51.6666 143.633L50.9963 143.118C51.3937 142.58 52.108 142.264 52.9542 142.264C54.0732 142.264 54.7942 142.831 54.7942 143.743C54.7942 144.243 54.654 144.7 53.9405 145.37L52.5642 146.68H54.9933Z" fill="black" style="fill:black;fill-opacity:1;"/>
<path fill-rule="evenodd" clip-rule="evenodd" d="M55.5884 146.93C55.5884 146.561 55.8605 146.319 56.1923 146.319C56.5233 146.319 56.7954 146.561 56.7954 146.93C56.7954 147.283 56.5233 147.541 56.1923 147.541C55.8605 147.541 55.5884 147.283 55.5884 146.93Z" fill="black" style="fill:black;fill-opacity:1;"/>
<path fill-rule="evenodd" clip-rule="evenodd" d="M76.5844 164.217L75.613 161.965L74.649 164.217H76.5844ZM76.9015 164.967H74.3249L73.8172 166.159H72.8308L75.1495 161.009H76.0919L78.4172 166.159H77.4167L76.9015 164.967Z" fill="black" style="fill:black;fill-opacity:1;"/>
<path fill-rule="evenodd" clip-rule="evenodd" d="M208.544 146.756C208.544 146.863 175.343 146.95 134.397 146.95C93.4367 146.95 60.2432 146.863 60.2432 146.756C60.2432 146.649 93.4367 146.562 134.397 146.562C175.343 146.562 208.544 146.649 208.544 146.756Z" fill="black" style="fill:black;fill-opacity:1;"/>
<path fill-rule="evenodd" clip-rule="evenodd" d="M117.472 151.794C117.472 151.901 104.767 151.988 89.0975 151.988C73.4237 151.988 60.7217 151.901 60.7217 151.794C60.7217 151.686 73.4237 151.6 89.0975 151.6C104.767 151.6 117.472 151.686 117.472 151.794Z" fill="black" style="fill:black;fill-opacity:1;"/>
<path fill-rule="evenodd" clip-rule="evenodd" d="M62.8053 166.231H68.1062V160.931H62.8053V166.231ZM62.0608 166.977H68.8528V160.186H62.0608V166.977Z" fill="black" style="fill:black;fill-opacity:1;"/>
<path fill-rule="evenodd" clip-rule="evenodd" d="M77.1367 177.558C77.1367 177.042 76.7468 176.814 76.0251 176.814H74.4795V178.301H76.0251C76.7468 178.301 77.1367 178.072 77.1367 177.558ZM74.4795 174.651V176.071H75.8335C76.4963 176.071 76.872 175.835 76.872 175.364C76.872 174.886 76.4963 174.651 75.8335 174.651H74.4795ZM78.1009 177.653C78.1009 178.536 77.409 179.052 76.0842 179.052H73.5232V173.9H75.9373C77.1734 173.9 77.8362 174.422 77.8362 175.239C77.8362 175.769 77.5716 176.159 77.1734 176.372C77.7259 176.549 78.1009 176.983 78.1009 177.653Z" fill="black" style="fill:black;fill-opacity:1;"/>
<path fill-rule="evenodd" clip-rule="evenodd" d="M62.8053 179.122H68.1062V173.822H62.8053V179.122ZM62.0608 179.868H68.8528V173.077H62.0608V179.868Z" fill="black" style="fill:black;fill-opacity:1;"/>
<path fill-rule="evenodd" clip-rule="evenodd" d="M73.155 189.367C73.155 187.829 74.333 186.717 75.9151 186.717C76.7546 186.717 77.4755 187.019 77.9542 187.578L77.3354 188.16C76.9603 187.755 76.4966 187.556 75.9591 187.556C74.8922 187.556 74.119 188.307 74.119 189.367C74.119 190.426 74.8922 191.177 75.9591 191.177C76.4966 191.177 76.9603 190.978 77.3354 190.566L77.9542 191.154C77.4755 191.714 76.7546 192.016 75.9076 192.016C74.333 192.016 73.155 190.904 73.155 189.367Z" fill="black" style="fill:black;fill-opacity:1;"/>
<path fill-rule="evenodd" clip-rule="evenodd" d="M62.8053 192.013H68.1062V186.713H62.8053V192.013ZM62.0608 192.759H68.8528V185.968H62.0608V192.759Z" fill="black" style="fill:black;fill-opacity:1;"/>
<path fill-rule="evenodd" clip-rule="evenodd" d="M75.7306 204.024C76.8787 204.024 77.6221 203.325 77.6221 202.258C77.6221 201.19 76.8787 200.491 75.7306 200.491H74.4795V204.024H75.7306ZM73.5232 199.682H75.7755C77.4456 199.682 78.587 200.713 78.587 202.258C78.587 203.803 77.4456 204.833 75.7755 204.833H73.5232V199.682Z" fill="black" style="fill:black;fill-opacity:1;"/>
<path fill-rule="evenodd" clip-rule="evenodd" d="M62.8053 204.904H68.1062V199.605H62.8053V204.904ZM62.0608 205.649H68.8528V198.859H62.0608V205.649Z" fill="black" style="fill:black;fill-opacity:1;"/>
<path fill-rule="evenodd" clip-rule="evenodd" d="M134.393 163.58C134.393 163.687 123.188 163.774 109.369 163.774C95.5452 163.774 84.3425 163.687 84.3425 163.58C84.3425 163.473 95.5452 163.386 109.369 163.386C123.188 163.386 134.393 163.473 134.393 163.58Z" fill="black" style="fill:black;fill-opacity:1;"/>
<path fill-rule="evenodd" clip-rule="evenodd" d="M203.281 176.471C203.281 176.579 176.653 176.666 143.815 176.666C110.964 176.666 84.3425 176.579 84.3425 176.471C84.3425 176.364 110.964 176.278 143.815 176.278C176.653 176.278 203.281 176.364 203.281 176.471Z" fill="black" style="fill:black;fill-opacity:1;"/>
<path fill-rule="evenodd" clip-rule="evenodd" d="M100.709 202.254C100.709 202.361 97.0445 202.449 92.5257 202.449C88.0062 202.449 84.3425 202.361 84.3425 202.254C84.3425 202.147 88.0062 202.06 92.5257 202.06C97.0445 202.06 100.709 202.147 100.709 202.254Z" fill="black" style="fill:black;fill-opacity:1;"/>
<path fill-rule="evenodd" clip-rule="evenodd" d="M143.812 189.363C143.812 189.47 130.498 189.557 114.079 189.557C97.6537 189.557 84.3425 189.47 84.3425 189.363C84.3425 189.255 97.6537 189.169 114.079 189.169C130.498 189.169 143.812 189.255 143.812 189.363Z" fill="black" style="fill:black;fill-opacity:1;"/>
<path fill-rule="evenodd" clip-rule="evenodd" d="M191.959 219.939H161.266C156.064 219.939 151.848 215.724 151.848 210.523C151.848 205.322 156.064 201.106 161.266 201.106H191.959C197.161 201.106 201.378 205.322 201.378 210.523C201.378 215.724 197.161 219.939 191.959 219.939Z" fill="#2A72AD" style="fill:#2A72AD;fill:color(display-p3 0.1647 0.4471 0.6784);fill-opacity:1;"/>
<path fill-rule="evenodd" clip-rule="evenodd" d="M168.926 208.284V213.403H167.953L165.401 210.295V213.403H164.23V208.284H165.21L167.756 211.392V208.284H168.926Z" fill="white" style="fill:white;fill-opacity:1;"/>
<path fill-rule="evenodd" clip-rule="evenodd" d="M174.103 212.453V213.403H170.139V208.283H174.008V209.235H171.316V210.346H173.694V211.267H171.316V212.453H174.103Z" fill="white" style="fill:white;fill-opacity:1;"/>
<path fill-rule="evenodd" clip-rule="evenodd" d="M178.221 213.403L176.985 211.626L175.77 213.403H174.409L176.304 210.8L174.505 208.284H175.85L177.028 209.944L178.183 208.284H179.464L177.679 210.756L179.588 213.403H178.221Z" fill="white" style="fill:white;fill-opacity:1;"/>
<path fill-rule="evenodd" clip-rule="evenodd" d="M181.057 209.249H179.418V208.284H183.881V209.249H182.242V213.403H181.057V209.249Z" fill="white" style="fill:white;fill-opacity:1;"/>
<path fill-rule="evenodd" clip-rule="evenodd" d="M190.341 213.015C190.221 213.015 190.103 212.956 190.031 212.848C189.917 212.678 189.963 212.446 190.134 212.332L192.514 210.746C192.625 210.672 192.634 210.561 192.633 210.516C192.631 210.471 192.616 210.36 192.501 210.293L190.151 208.904C189.974 208.799 189.915 208.57 190.02 208.393C190.125 208.216 190.354 208.158 190.531 208.262L192.881 209.65C193.183 209.83 193.369 210.145 193.378 210.496C193.388 210.847 193.219 211.172 192.927 211.366L190.548 212.952C190.484 212.994 190.413 213.015 190.341 213.015Z" fill="white" style="fill:white;fill-opacity:1;"/>
<path fill-rule="evenodd" clip-rule="evenodd" d="M63.0556 105.826C62.8282 105.598 64.2701 103.788 66.2764 101.781C68.2834 99.7743 70.0944 98.3326 70.3217 98.56C70.5491 98.7881 69.1072 100.598 67.1002 102.605C65.0939 104.611 63.283 106.053 63.0556 105.826Z" fill="#FF932F" style="fill:#FF932F;fill:color(display-p3 1.0000 0.5765 0.1843);fill-opacity:1;"/>
<path fill-rule="evenodd" clip-rule="evenodd" d="M71.5621 106.534C71.3347 106.761 69.4044 105.2 67.2513 103.047C65.0974 100.894 63.5362 98.9648 63.7643 98.7375C63.9917 98.5094 65.9212 100.07 68.0751 102.224C70.2275 104.377 71.7895 106.306 71.5621 106.534Z" fill="#FF932F" style="fill:#FF932F;fill:color(display-p3 1.0000 0.5765 0.1843);fill-opacity:1;"/>
<path fill-rule="evenodd" clip-rule="evenodd" d="M61.4206 167.342C61.1932 167.114 62.6351 165.304 64.6414 163.298C66.6484 161.291 68.4593 159.849 68.6867 160.077C68.9141 160.304 67.4722 162.115 65.4652 164.121C63.4589 166.127 61.648 167.57 61.4206 167.342Z" fill="#FF932F" style="fill:#FF932F;fill:color(display-p3 1.0000 0.5765 0.1843);fill-opacity:1;"/>
<path fill-rule="evenodd" clip-rule="evenodd" d="M69.9273 168.051C69.6999 168.279 67.7697 166.717 65.6165 164.564C63.4626 162.411 61.9014 160.482 62.1296 160.254C62.357 160.027 64.2864 161.588 66.4404 163.741C68.5935 165.893 70.1547 167.823 69.9273 168.051Z" fill="#FF932F" style="fill:#FF932F;fill:color(display-p3 1.0000 0.5765 0.1843);fill-opacity:1;"/>
</g>
<path fill-rule="evenodd" clip-rule="evenodd" d="M205.919 318.746L153.596 301.937C153.457 301.893 153.31 301.876 153.165 301.887L112.913 304.898C105.843 287.786 96.9837 266.337 92.9515 256.55C91.5982 253.268 88.5943 250.961 85.0732 250.501L41.5 244.81C39.2189 244.513 37.4804 246.81 38.3865 248.925L62.9282 306.152C63.5862 307.687 64.8567 308.876 66.4313 309.431L116.277 329.314C117.416 329.768 118.652 329.933 119.871 329.793L123.055 329.444C134.106 328.291 188.604 322.728 205.691 320.951C206.911 320.825 207.086 319.121 205.919 318.746Z" fill="#E0E0E0" style="fill:#E0E0E0;fill:color(display-p3 0.8780 0.8780 0.8780);fill-opacity:1;"/>
<mask id="mask3_148_3712" style="mask-type:luminance" maskUnits="userSpaceOnUse" x="37" y="244" width="170" height="86">
<path fill-rule="evenodd" clip-rule="evenodd" d="M37.9475 244.59H206.728V330H37.9475V244.59Z" fill="white" style="fill:white;fill-opacity:1;"/>
</mask>
<g mask="url(#mask3_148_3712)">
<path fill-rule="evenodd" clip-rule="evenodd" d="M205.919 318.746C205.919 318.746 206.011 318.767 206.174 318.853C206.334 318.935 206.568 319.128 206.675 319.483C206.789 319.821 206.742 320.362 206.315 320.728C206.107 320.913 205.797 320.987 205.493 321.006C205.185 321.039 204.855 321.074 204.506 321.112C201.7 321.409 197.575 321.845 192.262 322.407C181.622 323.515 166.236 325.118 147.226 327.098C142.472 327.59 137.491 328.107 132.301 328.644C129.707 328.913 127.06 329.186 124.363 329.466C123.016 329.611 121.655 329.759 120.283 329.908C118.908 330.118 117.424 329.976 116.107 329.419C105.665 325.26 94.5087 320.816 82.7689 316.14C79.8335 314.971 76.8624 313.788 73.857 312.589C72.354 311.991 70.8427 311.388 69.3225 310.782C68.5632 310.48 67.8008 310.176 67.037 309.871C66.6569 309.714 66.2717 309.577 65.8797 309.406C65.4922 309.231 65.1226 309.016 64.7783 308.764C64.0905 308.261 63.507 307.611 63.08 306.868C62.6627 306.104 62.3929 305.336 62.0464 304.569C61.3869 303.034 60.7252 301.491 60.0597 299.94C58.728 296.839 57.3844 293.706 56.0289 290.547C50.6076 277.908 44.994 264.822 39.2448 251.419L38.4571 249.582C38.1933 248.998 37.8871 248.298 37.9579 247.583C38.0093 246.152 39.1554 244.871 40.5586 244.642C40.7307 244.605 40.9088 244.607 41.084 244.59C41.2568 244.603 41.4394 244.607 41.6034 244.628L42.5855 244.757L44.5454 245.013C45.851 245.183 47.1529 245.353 48.451 245.523C53.6458 246.201 58.7869 246.874 63.8677 247.538C68.9492 248.203 73.9696 248.86 78.9229 249.507C80.1614 249.67 81.3955 249.831 82.625 249.991C83.8539 250.174 85.0805 250.255 86.3116 250.553C88.7461 251.176 90.896 252.738 92.2418 254.812C92.9334 255.852 93.3313 257.019 93.7978 258.118C94.2569 259.23 94.7137 260.338 95.169 261.442C96.0796 263.649 96.9828 265.838 97.8778 268.008C99.6677 272.348 101.426 276.613 103.152 280.794C106.599 289.157 109.91 297.188 113.063 304.836L112.901 304.736C127.294 303.671 140.458 302.696 152.11 301.834C152.476 301.807 152.841 301.779 153.204 301.753C153.402 301.741 153.618 301.802 153.777 301.859L154.292 302.025C154.975 302.245 155.653 302.463 156.325 302.68C157.67 303.114 158.991 303.54 160.288 303.958C162.883 304.795 165.383 305.601 167.785 306.376C172.588 307.926 176.995 309.351 180.974 310.635C188.925 313.208 195.162 315.228 199.418 316.607C201.537 317.298 203.162 317.829 204.264 318.188C205.358 318.549 205.919 318.746 205.919 318.746C205.919 318.746 205.348 318.581 204.249 318.236C203.143 317.887 201.514 317.371 199.388 316.7C195.126 315.342 188.881 313.351 180.917 310.813C176.934 309.54 172.523 308.13 167.716 306.593C165.312 305.824 162.81 305.023 160.213 304.193C158.914 303.777 157.592 303.354 156.247 302.924C155.574 302.709 154.896 302.492 154.212 302.273C153.868 302.182 153.521 302.001 153.213 302.016C152.854 302.042 152.493 302.069 152.13 302.096C140.479 302.977 127.316 303.972 112.925 305.06L112.808 305.069L112.763 304.96C109.602 297.316 106.283 289.288 102.826 280.929C101.099 276.749 99.3369 272.485 97.5432 268.147C96.6467 265.977 95.742 263.788 94.8299 261.582C94.3739 260.479 93.9163 259.37 93.4565 258.258C92.9841 257.145 92.5921 256.004 91.9311 255.016C90.6337 253.018 88.562 251.515 86.2177 250.916C85.0522 250.633 83.8002 250.545 82.5766 250.365C81.347 250.205 80.1122 250.044 78.8745 249.883C73.9204 249.237 68.8992 248.582 63.8185 247.918C58.737 247.255 53.5958 246.584 48.4011 245.907C47.1022 245.737 45.8003 245.567 44.4955 245.397L42.5349 245.142C41.8746 245.078 41.2233 244.897 40.6249 245.023C39.4006 245.222 38.3871 246.352 38.3454 247.604C38.2872 248.239 38.5361 248.808 38.8141 249.428L39.6018 251.266C45.3487 264.671 50.9593 277.757 56.3784 290.397C57.7332 293.557 59.0753 296.689 60.4047 299.791C61.0694 301.343 61.7312 302.887 62.3892 304.422C62.7297 305.177 63.0204 305.987 63.4019 306.683C63.8036 307.381 64.3513 307.991 64.9974 308.465C65.3208 308.702 65.6681 308.905 66.0317 309.07C66.3954 309.228 66.7866 309.368 67.1667 309.526C67.9305 309.83 68.6928 310.135 69.4522 310.439C70.9724 311.045 72.4829 311.649 73.986 312.248C76.9914 313.448 79.9625 314.635 82.897 315.807C94.6332 320.495 105.787 324.95 116.226 329.12C117.504 329.658 118.893 329.795 120.248 329.593C121.621 329.446 122.982 329.3 124.33 329.157C127.028 328.882 129.675 328.611 132.27 328.347C137.46 327.817 142.442 327.309 147.196 326.825C166.212 324.896 181.603 323.336 192.247 322.257C197.562 321.726 201.691 321.314 204.498 321.034C204.848 321 205.177 320.968 205.486 320.937C205.796 320.92 206.075 320.855 206.277 320.682C206.685 320.342 206.742 319.822 206.637 319.495C206.54 319.149 206.318 318.955 206.163 318.87C206.007 318.78 205.916 318.754 205.919 318.746Z" fill="#263238" style="fill:#263238;fill:color(display-p3 0.1490 0.1960 0.2200);fill-opacity:1;"/>
</g>
<path fill-rule="evenodd" clip-rule="evenodd" d="M138.581 308.388L158.204 316.599L182.653 314.051L162.089 305.557L138.581 308.388Z" fill="#F5F5F5" style="fill:#F5F5F5;fill:color(display-p3 0.9610 0.9610 0.9610);fill-opacity:1;"/>
<path fill-rule="evenodd" clip-rule="evenodd" d="M123.784 323.906L162.088 320.448L125.513 305.946L113.759 306.835L119.971 321.824L123.784 323.906Z" fill="#F5F5F5" style="fill:#F5F5F5;fill:color(display-p3 0.9610 0.9610 0.9610);fill-opacity:1;"/>
<path fill-rule="evenodd" clip-rule="evenodd" d="M202.125 318.723C202.125 318.731 202.036 318.745 201.86 318.768C201.664 318.79 201.406 318.821 201.078 318.859C200.368 318.933 199.359 319.038 198.07 319.171C195.433 319.427 191.655 319.794 186.999 320.247C177.627 321.121 164.718 322.323 150.459 323.652C139.836 324.613 129.963 325.508 121.753 326.25L121.634 326.26L121.59 326.151C118.957 319.723 116.771 314.39 115.235 310.639C114.488 308.787 113.898 307.327 113.487 306.307C113.297 305.822 113.149 305.442 113.039 305.164C112.941 304.903 112.901 304.766 112.901 304.766C112.901 304.766 112.971 304.891 113.085 305.144C113.205 305.418 113.369 305.792 113.577 306.269C114.008 307.281 114.625 308.73 115.407 310.568C116.973 314.306 119.202 319.621 121.888 326.028L121.724 325.929C129.931 325.167 139.802 324.251 150.424 323.266C164.686 321.981 177.6 320.819 186.973 319.974C191.635 319.574 195.416 319.248 198.056 319.021C199.347 318.918 200.359 318.837 201.071 318.781C201.4 318.759 201.66 318.741 201.856 318.728C202.034 318.719 202.125 318.717 202.125 318.723Z" fill="black" style="fill:black;fill-opacity:1;"/>
<path fill-rule="evenodd" clip-rule="evenodd" d="M39.6545 246.908C39.6553 246.901 39.7678 246.91 39.9862 246.934C40.2216 246.962 40.5436 247 40.9557 247.05C41.8253 247.163 43.075 247.325 44.6757 247.532C47.9225 247.976 52.5882 248.611 58.3464 249.398C64.1157 250.201 70.9842 251.165 78.6038 252.293C80.5071 252.586 82.458 252.886 84.4514 253.194C84.9492 253.279 85.4492 253.364 85.9522 253.45C86.2011 253.488 86.4612 253.545 86.7213 253.605C86.8502 253.636 86.9821 253.66 87.1095 253.697C87.2317 253.75 87.3577 253.792 87.4769 253.854C87.9591 254.081 88.4174 254.39 88.7847 254.801C88.9643 255.006 89.1372 255.235 89.2386 255.509L89.5307 256.237C91.0889 260.126 92.7022 264.154 94.3551 268.279C100.939 284.787 106.898 299.73 111.22 310.565C113.355 315.97 115.085 320.349 116.289 323.396C116.874 324.9 117.331 326.074 117.649 326.892C117.795 327.28 117.909 327.583 117.994 327.805C118.069 328.011 118.105 328.118 118.099 328.12C118.092 328.122 118.044 328.021 117.956 327.819C117.864 327.601 117.738 327.303 117.576 326.92C117.242 326.109 116.762 324.945 116.148 323.452C114.917 320.415 113.148 316.051 110.964 310.667C106.616 299.842 100.619 284.915 93.9944 268.423C92.3445 264.297 90.7334 260.269 89.1775 256.378L88.8861 255.65C88.8086 255.432 88.6625 255.236 88.5023 255.053C88.1774 254.687 87.7623 254.405 87.3167 254.194C87.2071 254.137 87.0894 254.097 86.9761 254.048C86.8577 254.013 86.7362 253.993 86.617 253.965C86.3777 253.911 86.14 253.857 85.8852 253.817C85.3844 253.73 84.8866 253.645 84.391 253.559C82.4006 253.248 80.4519 252.944 78.5502 252.646C70.935 251.526 64.0754 250.518 58.3076 249.669C52.5569 248.832 47.8972 248.154 44.6548 247.682C43.0586 247.444 41.8119 247.257 40.9445 247.127C40.5346 247.061 40.2149 247.011 39.9809 246.974C39.7641 246.937 39.6538 246.915 39.6545 246.908Z" fill="black" style="fill:black;fill-opacity:1;"/>
<path fill-rule="evenodd" clip-rule="evenodd" d="M78.1746 281.163C80.0376 283.657 80.4139 286.526 79.0144 287.571C77.6157 288.616 74.9717 287.442 73.108 284.948C71.245 282.455 70.8687 279.586 72.2681 278.54C73.6669 277.495 76.3116 278.669 78.1746 281.163Z" fill="white" style="fill:white;fill-opacity:1;"/>
<path fill-rule="evenodd" clip-rule="evenodd" d="M313.941 238.612C311.443 224.485 295.788 215.916 290.618 211.209L298.39 221.603C302.346 237.663 303.889 254.86 302.891 271.776C302.782 273.61 302.985 276.092 304.297 276.359C304.746 276.45 305.195 276.212 305.606 275.947C310.2 273.002 313.18 266.271 313.847 259.309C314.515 252.348 315.097 245.155 313.941 238.612Z" fill="#2A72AD" style="fill:#2A72AD;fill:color(display-p3 0.1647 0.4471 0.6784);fill-opacity:1;"/>
<path fill-rule="evenodd" clip-rule="evenodd" d="M302.477 222.749C301.738 221.321 302.042 216.793 298.027 221.523L297.773 219.751L272.833 200.624L217.313 203.507C211.984 203.84 203.977 213.067 201.984 216.89C200.344 231.221 200.012 243.939 200.012 243.939C200.012 243.939 198.104 259.873 200.012 267.406C201.92 274.939 204.177 277.662 207.133 283.518C210.089 289.373 215.136 294.467 215.136 294.467L217.731 314.595L275.73 319.799L302.287 318.277C302.287 318.277 299.907 278.599 299.907 277.897C299.907 277.572 303.223 269.91 306.784 261.778C312.848 247.929 309.422 236.177 302.477 222.749Z" fill="#6D91A2" style="fill:#6D91A2;fill:color(display-p3 0.4265 0.5680 0.6352);fill-opacity:1;"/>
<path fill-rule="evenodd" clip-rule="evenodd" d="M156.811 294.918C157.101 294.886 159.999 275.331 161.896 270.88C163.685 266.683 201.983 216.89 201.983 216.89L211.002 245.925L207.133 261.465L186.245 286.571L180.35 304.767L156.811 294.918Z" fill="#6D91A2" style="fill:#6D91A2;fill:color(display-p3 0.4265 0.5680 0.6352);fill-opacity:1;"/>
<path fill-rule="evenodd" clip-rule="evenodd" d="M310.202 237.638C307.45 220.205 293.873 220.965 293.873 220.965L280.379 244.444L280.367 292.983L215.262 298.615L214.057 314.966C214.057 314.966 278.92 329.797 293.908 324.826C303.824 321.537 312.202 313.244 313.12 299.688C314.037 286.131 312.954 255.07 310.202 237.638Z" fill="#6D91A2" style="fill:#6D91A2;fill:color(display-p3 0.4265 0.5680 0.6352);fill-opacity:1;"/>
<path fill-rule="evenodd" clip-rule="evenodd" d="M186.336 286.571C186.258 286.581 186.204 285.266 185.571 283.276C184.953 281.3 183.623 278.648 181.307 276.465C178.989 274.283 176.263 273.113 174.253 272.615C172.228 272.101 170.913 272.126 170.919 272.049C170.919 272.025 171.245 272 171.836 272.019C172.426 272.035 173.281 272.121 174.317 272.348C176.378 272.786 179.194 273.942 181.573 276.183C183.951 278.424 185.273 281.165 185.833 283.196C186.122 284.216 186.258 285.065 186.31 285.654C186.364 286.243 186.358 286.57 186.336 286.571Z" fill="black" style="fill:black;fill-opacity:1;"/>
<path fill-rule="evenodd" clip-rule="evenodd" d="M217.497 297.966C217.496 297.959 217.592 297.941 217.778 297.912C217.984 297.883 218.258 297.843 218.607 297.793C219.359 297.694 220.43 297.554 221.798 297.373C224.594 297.023 228.603 296.522 233.546 295.902C243.489 294.695 257.189 293.032 272.321 291.195C275.271 290.841 278.167 290.496 280.933 290.165L280.764 290.347C281.264 277.147 281.489 265.506 281.42 257.168C281.396 252.999 281.33 249.656 281.276 247.355C281.249 246.221 281.227 245.337 281.213 244.712C281.209 244.426 281.207 244.2 281.205 244.027C281.205 243.873 281.208 243.795 281.214 243.795C281.22 243.794 281.229 243.872 281.241 244.026C281.252 244.199 281.266 244.424 281.285 244.709C281.314 245.334 281.357 246.218 281.413 247.351C281.51 249.651 281.615 252.995 281.674 257.166C281.81 265.508 281.632 277.157 281.147 290.362L281.141 290.526L280.978 290.546C278.213 290.877 275.318 291.226 272.368 291.581C257.23 293.374 243.525 294.997 233.579 296.175C228.629 296.742 224.617 297.203 221.817 297.523C220.444 297.672 219.371 297.789 218.616 297.871C218.265 297.905 217.99 297.931 217.783 297.951C217.595 297.967 217.498 297.972 217.497 297.966Z" fill="black" style="fill:black;fill-opacity:1;"/>
<path fill-rule="evenodd" clip-rule="evenodd" d="M314.018 297.965C314.025 297.965 314.024 298.066 314.015 298.26C314.004 298.476 313.989 298.762 313.97 299.129C313.938 299.891 313.817 301.013 313.59 302.446C313.358 303.879 312.956 305.615 312.314 307.577C311.638 309.526 310.681 311.694 309.276 313.887C307.885 316.086 305.979 318.265 303.563 320.155C301.16 322.055 298.144 323.538 294.794 324.341C293.125 324.775 291.374 325.013 289.586 325.213C287.792 325.365 285.955 325.449 284.086 325.419C280.348 325.369 276.49 324.983 272.582 324.349C264.783 323.065 257.352 321.842 250.592 320.729C247.214 320.168 244.004 319.634 240.998 319.134C238.003 318.587 235.212 318.078 232.662 317.611C227.571 316.659 223.443 315.936 220.58 315.504C219.164 315.296 218.057 315.133 217.282 315.019C216.919 314.966 216.635 314.925 216.422 314.895C216.229 314.865 216.131 314.846 216.132 314.84C216.133 314.833 216.232 314.838 216.428 314.855C216.641 314.876 216.927 314.905 217.291 314.941C218.05 315.022 219.167 315.154 220.602 315.354C223.474 315.741 227.613 316.424 232.711 317.341C235.263 317.793 238.055 318.288 241.053 318.817C244.06 319.306 247.271 319.827 250.65 320.376C257.412 321.48 264.843 322.693 272.644 323.967C276.537 324.597 280.376 324.984 284.092 325.039C285.949 325.071 287.771 324.99 289.551 324.844C291.323 324.65 293.059 324.417 294.709 323.994C298.021 323.21 300.984 321.765 303.367 319.9C305.758 318.047 307.654 315.905 309.045 313.738C310.452 311.577 311.418 309.435 312.108 307.506C312.766 305.563 313.187 303.843 313.441 302.42C313.691 300.997 313.835 299.881 313.891 299.122C313.927 298.757 313.955 298.472 313.976 298.259C313.997 298.064 314.011 297.965 314.018 297.965Z" fill="black" style="fill:black;fill-opacity:1;"/>
<path fill-rule="evenodd" clip-rule="evenodd" d="M215.742 299.168C215.733 299.169 215.711 299.064 215.676 298.86C215.639 298.627 215.593 298.328 215.534 297.952C215.416 297.121 215.25 295.955 215.04 294.48L215.064 294.531C213.758 293.086 212.085 291.235 210.127 289.068L210.121 289.061L210.116 289.055C209.237 287.779 208.339 286.355 207.519 284.764C206.703 283.171 205.934 281.433 205.242 279.57C203.89 275.834 202.833 271.608 202.278 267.113C201.658 262.221 201.741 257.514 201.958 253.265C202.193 249.011 202.632 245.2 203.047 242.01C203.464 238.819 203.861 236.246 204.141 234.469C204.282 233.606 204.393 232.924 204.475 232.425C204.515 232.211 204.547 232.037 204.573 231.895C204.597 231.775 204.612 231.715 204.618 231.716C204.625 231.717 204.623 231.779 204.612 231.901C204.596 232.044 204.577 232.22 204.553 232.436C204.488 232.937 204.401 233.624 204.29 234.491C204.056 236.274 203.702 238.853 203.319 242.044C202.94 245.235 202.53 249.042 202.315 253.284C202.118 257.521 202.047 262.207 202.662 267.065C203.214 271.531 204.256 275.731 205.582 279.446C206.261 281.299 207.016 283.027 207.813 284.612C208.617 286.196 209.494 287.613 210.355 288.888L210.345 288.875C212.273 291.067 213.921 292.941 215.207 294.403L215.229 294.426L215.231 294.455C215.403 295.935 215.539 297.104 215.634 297.939C215.673 298.317 215.703 298.62 215.727 298.853C215.746 299.06 215.751 299.167 215.742 299.168Z" fill="black" style="fill:black;fill-opacity:1;"/>
<path fill-rule="evenodd" clip-rule="evenodd" d="M290.299 300.98C290.251 301.011 289.756 300.329 288.944 299.239C288.133 298.148 286.993 296.658 285.664 295.068C284.334 293.479 283.068 292.094 282.138 291.103C281.208 290.111 280.624 289.504 280.663 289.462C280.697 289.425 281.349 289.963 282.334 290.91C283.317 291.856 284.624 293.221 285.962 294.819C287.299 296.418 288.412 297.945 289.168 299.08C289.926 300.216 290.342 300.952 290.299 300.98Z" fill="black" style="fill:black;fill-opacity:1;"/>
<path fill-rule="evenodd" clip-rule="evenodd" d="M172.766 297.311C172.213 294.131 169.31 291.644 169.31 291.644C169.31 291.644 167.927 287.773 165.854 286.752C163.78 285.731 162.121 287.773 160.324 287.22C158.527 286.667 154.657 286.529 153.412 287.22C152.168 287.911 150.648 291.782 150.648 291.782C150.648 291.782 148.85 291.782 147.054 292.75C145.657 293.502 144.93 294.417 144.675 294.79C143.643 294.274 142.335 294.72 141.52 295.54C140.701 296.362 140.268 297.481 139.855 298.566C139.521 299.445 139.186 300.325 138.852 301.205C138.695 301.616 138.536 302.05 138.594 302.487C138.692 303.226 139.433 303.771 140.178 303.803C140.923 303.835 141.636 303.445 142.158 302.914C142.64 302.424 143.135 301.851 143.488 301.251L143.736 302.979C143.736 302.979 144.149 305.716 146.362 305.882C147.884 305.996 149.542 304.223 149.542 304.223L153.412 303.809L153.965 307.679C153.965 307.679 154.725 310.201 157.559 310.167C158.948 310.151 160.739 307.818 160.739 307.818L164.333 309.2C164.333 309.2 168.48 312.103 170.416 311.135C172.351 310.167 171.798 308.094 171.798 308.094C171.798 308.094 173.181 306.574 173.734 304.914C174.286 303.256 173.319 300.491 172.766 297.311Z" fill="#FFBE9D" style="fill:#FFBE9D;fill:color(display-p3 1.0000 0.7450 0.6160);fill-opacity:1;"/>
<path fill-rule="evenodd" clip-rule="evenodd" d="M143.71 302.32C143.608 302.322 143.528 300.471 143.848 298.215C144.161 295.958 144.748 294.201 144.845 294.231C144.955 294.26 144.541 296.041 144.233 298.269C143.916 300.495 143.823 302.322 143.71 302.32Z" fill="#EB996E" style="fill:#EB996E;fill:color(display-p3 0.9220 0.6000 0.4310);fill-opacity:1;"/>
<path fill-rule="evenodd" clip-rule="evenodd" d="M149.719 298.682C149.826 298.676 149.975 299.966 150.052 301.56C150.103 302.356 150.059 303.125 149.841 303.639C149.627 304.16 149.32 304.362 149.294 304.327C149.246 304.286 149.456 304.035 149.58 303.553C149.712 303.072 149.715 302.373 149.665 301.579C149.588 299.984 149.612 298.687 149.719 298.682Z" fill="#EB996E" style="fill:#EB996E;fill:color(display-p3 0.9220 0.6000 0.4310);fill-opacity:1;"/>
<path fill-rule="evenodd" clip-rule="evenodd" d="M152.298 297.033C152.375 297.109 151.865 297.75 151.16 298.468C150.455 299.185 149.823 299.706 149.746 299.63C149.67 299.555 150.179 298.913 150.884 298.196C151.588 297.478 152.221 296.957 152.298 297.033Z" fill="#EB996E" style="fill:#EB996E;fill:color(display-p3 0.9220 0.6000 0.4310);fill-opacity:1;"/>
<path fill-rule="evenodd" clip-rule="evenodd" d="M152.812 289.596C152.869 289.599 152.88 290.403 152.9 291.702C152.92 293 152.959 294.792 153.062 296.768C153.168 298.745 153.317 300.532 153.434 301.824C153.551 303.118 153.623 303.92 153.568 303.927C153.517 303.935 153.348 303.146 153.162 301.856C152.974 300.567 152.78 298.775 152.675 296.788C152.571 294.802 152.575 293.001 152.626 291.699C152.676 290.397 152.762 289.594 152.812 289.596Z" fill="#EB996E" style="fill:#EB996E;fill:color(display-p3 0.9220 0.6000 0.4310);fill-opacity:1;"/>
<path fill-rule="evenodd" clip-rule="evenodd" d="M167.314 291.081C167.342 291.097 167.154 291.451 166.888 292.121C166.624 292.791 166.307 293.785 166.028 295.044C165.895 295.685 165.751 296.377 165.596 297.116C165.441 297.862 165.265 298.67 164.941 299.484C164.622 300.296 164.122 301.119 163.364 301.737C162.626 302.362 161.536 302.721 160.501 302.446C159.992 302.318 159.505 302.056 159.162 301.653C158.811 301.252 158.637 300.752 158.556 300.275C158.413 299.309 158.477 298.415 158.508 297.55C158.606 295.827 158.881 294.291 159.211 293.031C159.533 291.769 159.908 290.782 160.188 290.111C160.329 289.776 160.448 289.52 160.536 289.35C160.623 289.179 160.673 289.092 160.685 289.097C160.716 289.11 160.565 289.482 160.329 290.165C160.094 290.848 159.762 291.84 159.477 293.096C159.185 294.35 158.942 295.87 158.865 297.568C158.843 298.411 158.793 299.327 158.93 300.208C159.007 300.644 159.164 301.071 159.454 301.399C159.738 301.733 160.151 301.958 160.595 302.07C161.5 302.308 162.443 302.007 163.125 301.442C163.821 300.88 164.297 300.122 164.61 299.35C165.221 297.789 165.415 296.23 165.762 294.98C166.077 293.718 166.438 292.721 166.749 292.061C166.906 291.732 167.042 291.483 167.143 291.32C167.243 291.157 167.302 291.074 167.314 291.081Z" fill="#EB996E" style="fill:#EB996E;fill:color(display-p3 0.9220 0.6000 0.4310);fill-opacity:1;"/>
<path fill-rule="evenodd" clip-rule="evenodd" d="M168.773 292.755C168.875 292.758 168.708 293.94 167.733 294.961C166.77 295.993 165.6 296.226 165.592 296.126C165.551 296.017 166.572 295.642 167.451 294.694C168.347 293.762 168.663 292.721 168.773 292.755Z" fill="#EB996E" style="fill:#EB996E;fill:color(display-p3 0.9220 0.6000 0.4310);fill-opacity:1;"/>
<path fill-rule="evenodd" clip-rule="evenodd" d="M160.774 302.396C160.877 302.388 161.058 303.802 160.958 305.549C160.893 306.79 160.703 307.851 160.566 308.342L160.551 308.394L160.525 308.403C160.328 308.472 160.245 308.328 160.228 308.267C160.212 308.189 160.249 308.158 160.26 308.164C160.276 308.167 160.279 308.199 160.31 308.229C160.332 308.26 160.417 308.287 160.436 308.255L160.395 308.316C160.406 307.809 160.506 306.752 160.571 305.528C160.669 303.806 160.663 302.402 160.774 302.396Z" fill="#EB996E" style="fill:#EB996E;fill:color(display-p3 0.9220 0.6000 0.4310);fill-opacity:1;"/>
<path fill-rule="evenodd" clip-rule="evenodd" d="M169.545 299.305C169.586 299.343 169.183 299.834 168.53 300.616C167.884 301.401 166.979 302.483 166.255 303.835C165.532 305.187 165.226 306.567 165.214 307.565C165.192 308.569 165.388 309.179 165.322 309.196C165.287 309.213 164.989 308.619 164.94 307.568C164.88 306.525 165.159 305.06 165.912 303.653C166.664 302.25 167.624 301.176 168.325 300.433C169.035 299.693 169.507 299.27 169.545 299.305Z" fill="#EB996E" style="fill:#EB996E;fill:color(display-p3 0.9220 0.6000 0.4310);fill-opacity:1;"/>
<path fill-rule="evenodd" clip-rule="evenodd" d="M168.015 306.177C168.015 306.177 167.123 303.488 169.718 301.644C172.314 299.801 180.1 294.949 180.269 294.949C180.439 294.949 189.41 291.991 193.19 291.58C196.97 291.169 213.502 299.406 213.502 299.406C213.502 299.406 217.339 304.937 216.719 310.24C216.098 315.544 212.648 315.849 212.648 315.849L207.846 314.683L202.895 313.738C202.895 313.738 191.949 316.785 190.257 316.221C188.564 315.657 187.943 313.795 189.805 312.779C191.667 311.763 197.027 310.184 197.027 310.184L201.145 308.435L187.717 310.353C187.717 310.353 176.377 312.61 175.078 312.272C173.78 311.933 173.555 310.974 173.442 310.014C173.442 310.014 168.872 312.272 167.518 311.03C166.164 309.789 165.523 307.193 168.015 306.177Z" fill="#FFBE9D" style="fill:#FFBE9D;fill:color(display-p3 1.0000 0.7450 0.6160);fill-opacity:1;"/>
<path fill-rule="evenodd" clip-rule="evenodd" d="M196.966 302.915C196.965 302.943 196.608 302.959 195.963 302.969C195.319 302.983 194.387 302.985 193.24 303.044C192.097 303.113 190.729 303.225 189.27 303.603C188.541 303.792 187.794 304.049 187.053 304.395C186.312 304.741 185.57 305.167 184.798 305.592C184.026 306.018 183.254 306.422 182.459 306.714C181.668 307.015 180.849 307.168 180.082 307.229C178.553 307.351 177.17 307.308 176.104 307.678C175.032 308.037 174.31 308.657 173.938 309.16C173.555 309.666 173.482 310.029 173.443 310.014C173.429 310.011 173.446 309.922 173.488 309.755C173.542 309.592 173.631 309.349 173.815 309.074C174.165 308.519 174.897 307.83 176.013 307.419C177.139 306.994 178.551 307.015 180.048 306.873C181.561 306.78 183.086 306.121 184.611 305.252C185.378 304.828 186.13 304.401 186.894 304.05C187.659 303.699 188.433 303.439 189.183 303.257C190.684 302.889 192.074 302.804 193.229 302.77C194.387 302.745 195.322 302.785 195.966 302.819C196.61 302.854 196.966 302.889 196.966 302.915Z" fill="#EB996E" style="fill:#EB996E;fill:color(display-p3 0.9220 0.6000 0.4310);fill-opacity:1;"/>
<path fill-rule="evenodd" clip-rule="evenodd" d="M192.91 297.257C192.915 297.269 192.832 297.313 192.67 297.386C192.508 297.463 192.262 297.555 191.942 297.666C191.3 297.884 190.343 298.109 189.152 298.307C187.964 298.515 186.536 298.676 185.015 299.082C183.494 299.483 181.932 300.256 180.323 301.133C177.112 302.937 174.011 304.214 171.742 305.021C170.606 305.427 169.677 305.724 169.031 305.919C168.386 306.113 168.023 306.202 168.016 306.178C168.007 306.151 168.353 306.013 168.983 305.776C169.681 305.51 170.575 305.171 171.645 304.764C173.886 303.892 176.937 302.589 180.138 300.791C181.75 299.913 183.353 299.13 184.924 298.736C186.488 298.34 187.923 298.208 189.109 298.035C190.299 297.873 191.251 297.692 191.899 297.521C192.548 297.352 192.897 297.225 192.91 297.257Z" fill="#EB996E" style="fill:#EB996E;fill:color(display-p3 0.9220 0.6000 0.4310);fill-opacity:1;"/>
<path fill-rule="evenodd" clip-rule="evenodd" d="M203.798 300.422C203.738 300.421 203.724 300.065 203.582 299.529C203.443 298.994 203.143 298.274 202.586 297.651C202.029 297.028 201.346 296.651 200.83 296.455C200.312 296.254 199.96 296.2 199.965 296.141C199.967 296.095 200.336 296.049 200.914 296.194C201.485 296.334 202.26 296.705 202.876 297.393C203.491 298.079 203.775 298.891 203.85 299.474C203.931 300.064 203.845 300.426 203.798 300.422Z" fill="#EB996E" style="fill:#EB996E;fill:color(display-p3 0.9220 0.6000 0.4310);fill-opacity:1;"/>
<path fill-rule="evenodd" clip-rule="evenodd" d="M209.968 308.825C209.9 308.814 210.034 308.323 209.859 307.574C209.697 306.834 209.16 305.86 208.238 305.14C207.307 304.419 206.277 304.034 205.543 303.752C204.801 303.477 204.338 303.303 204.355 303.249C204.369 303.2 204.856 303.28 205.628 303.492C206.391 303.71 207.478 304.062 208.477 304.834C209.478 305.615 210.025 306.704 210.129 307.524C210.245 308.356 210 308.844 209.968 308.825Z" fill="#EB996E" style="fill:#EB996E;fill:color(display-p3 0.9220 0.6000 0.4310);fill-opacity:1;"/>
<path fill-rule="evenodd" clip-rule="evenodd" d="M173.442 310.014C173.454 310.035 173.232 310.192 172.793 310.405C172.354 310.62 171.702 310.891 170.872 311.158C170.45 311.288 170.016 311.437 169.482 311.537C168.949 311.611 168.371 311.556 167.801 311.363C167.19 311.183 166.71 310.64 166.441 310.055C166.17 309.465 165.993 308.787 166.086 308.073C166.136 307.563 166.434 307.069 166.793 306.762C167.147 306.436 167.541 306.2 167.935 306.01L167.837 306.227C167.543 305.249 167.605 304.194 168.029 303.428C168.435 302.66 168.973 302.124 169.441 301.722C169.915 301.323 170.331 301.063 170.62 300.893C170.91 300.725 171.074 300.65 171.086 300.668C171.12 300.717 170.485 301.085 169.597 301.896C169.166 302.306 168.666 302.854 168.314 303.568C167.952 304.282 167.912 305.201 168.195 306.127L168.239 306.271L168.096 306.345C167.394 306.709 166.555 307.247 166.471 308.128C166.388 308.73 166.543 309.356 166.786 309.892C167.032 310.43 167.414 310.867 167.92 311.026C168.43 311.209 168.964 311.271 169.44 311.217C169.909 311.145 170.384 311.005 170.793 310.896C171.623 310.665 172.281 310.436 172.733 310.266C173.185 310.098 173.428 309.988 173.442 310.014Z" fill="#EB996E" style="fill:#EB996E;fill:color(display-p3 0.9220 0.6000 0.4310);fill-opacity:1;"/>
<path fill-rule="evenodd" clip-rule="evenodd" d="M231.177 159.272C229.559 143.129 226.141 127.062 226.849 110.854L213.58 119.119C214.238 125.539 208.465 130.518 205.116 136.036C201.065 142.716 200.51 151.393 203.68 158.535C204.871 161.218 206.568 163.749 207.003 166.651C207.736 171.558 204.718 176.544 205.833 181.378C207.116 186.943 213.931 190.005 219.423 188.434C224.914 186.864 228.843 181.758 230.461 176.281C232.08 170.803 231.748 164.955 231.177 159.272Z" fill="#263238" style="fill:#263238;fill:color(display-p3 0.1490 0.1960 0.2200);fill-opacity:1;"/>
<path fill-rule="evenodd" clip-rule="evenodd" d="M214.295 116.372C215.75 108.536 221.67 101.689 229.212 99.1162C236.757 96.5437 245.625 98.3471 251.566 103.661C253.987 105.827 255.971 108.539 258.774 110.182C261.941 112.037 262.347 111.409 265.839 112.537C269.331 113.665 276.162 122.769 276.287 126.437L278.995 142.38C279.091 146.149 274.392 148.566 270.759 147.562C267.124 146.559 264.555 143.38 262.47 140.239C260.386 137.098 258.402 133.687 255.189 131.714C249.863 128.444 243.022 130.109 236.987 131.742C230.953 133.374 223.937 134.708 218.916 130.985C214.59 127.777 213.311 121.667 214.295 116.372Z" fill="#263238" style="fill:#263238;fill:color(display-p3 0.1490 0.1960 0.2200);fill-opacity:1;"/>
<path fill-rule="evenodd" clip-rule="evenodd" d="M212.367 139.496C212.396 129.005 218.548 115.766 229.028 116.24L262.039 122.501C265.224 122.645 267.768 125.201 267.897 128.386L269.137 207.007C269.215 207.019 269.286 207.03 269.365 207.042C269.365 207.042 257.895 235.886 235.987 230.472C231.642 229.399 234.85 218.589 233.707 213.848L233.489 213.89C233.444 213.321 233.404 212.792 233.363 212.249C232.31 206.762 232.564 201.492 232.564 201.492C232.108 195.167 231.952 192.571 231.952 192.63C231.952 192.63 218.467 191.217 214.652 173.963C212.754 165.382 212.334 151.151 212.367 139.496Z" fill="#FFBE9D" style="fill:#FFBE9D;fill:color(display-p3 1.0000 0.7450 0.6160);fill-opacity:1;"/>
<path fill-rule="evenodd" clip-rule="evenodd" d="M218.16 153.217C218.189 154.399 219.214 155.349 220.45 155.342C221.683 155.334 222.661 154.372 222.632 153.188C222.602 152.006 221.576 151.055 220.344 151.063C219.107 151.071 218.13 152.035 218.16 153.217Z" fill="#263238" style="fill:#263238;fill:color(display-p3 0.1490 0.1960 0.2200);fill-opacity:1;"/>
<path fill-rule="evenodd" clip-rule="evenodd" d="M215.893 146.7C216.188 146.975 217.805 145.62 220.21 145.481C222.609 145.309 224.448 146.44 224.691 146.129C224.812 145.991 224.497 145.483 223.696 144.969C222.906 144.458 221.584 143.994 220.086 144.09C218.589 144.188 217.363 144.816 216.673 145.424C215.968 146.035 215.749 146.578 215.893 146.7Z" fill="#263238" style="fill:#263238;fill:color(display-p3 0.1490 0.1960 0.2200);fill-opacity:1;"/>
<path fill-rule="evenodd" clip-rule="evenodd" d="M239.883 152.004C239.912 153.186 240.938 154.137 242.173 154.128C243.406 154.119 244.384 153.157 244.355 151.975C244.326 150.793 243.3 149.842 242.067 149.849C240.832 149.857 239.854 150.822 239.883 152.004Z" fill="#263238" style="fill:#263238;fill:color(display-p3 0.1490 0.1960 0.2200);fill-opacity:1;"/>
<path fill-rule="evenodd" clip-rule="evenodd" d="M239.551 145.726C239.846 146.001 241.466 144.646 243.869 144.508C246.268 144.334 248.107 145.466 248.35 145.156C248.47 145.017 248.16 144.509 247.355 143.995C246.565 143.483 245.243 143.02 243.745 143.116C242.248 143.214 241.022 143.842 240.331 144.45C239.629 145.061 239.408 145.603 239.551 145.726Z" fill="#263238" style="fill:#263238;fill:color(display-p3 0.1490 0.1960 0.2200);fill-opacity:1;"/>
<path fill-rule="evenodd" clip-rule="evenodd" d="M231.9 164.08C231.903 163.943 230.394 163.775 227.952 163.611C227.334 163.584 226.747 163.497 226.618 163.085C226.447 162.649 226.664 161.973 226.918 161.24C227.406 159.72 227.916 158.127 228.452 156.457C230.572 149.649 232.069 144.066 231.793 143.984C231.518 143.9 229.576 149.351 227.456 156.159C226.948 157.836 226.462 159.435 226 160.965C225.809 161.677 225.457 162.493 225.827 163.395C226.019 163.843 226.49 164.149 226.89 164.231C227.291 164.328 227.636 164.313 227.941 164.313C230.387 164.298 231.899 164.217 231.9 164.08Z" fill="#263238" style="fill:#263238;fill:color(display-p3 0.1490 0.1960 0.2200);fill-opacity:1;"/>
<path fill-rule="evenodd" clip-rule="evenodd" d="M231.952 192.63C231.952 192.63 243.716 192.68 254.908 185.002C254.908 185.002 249.752 197.484 232.218 196.902L231.952 192.63Z" fill="#EB996E" style="fill:#EB996E;fill:color(display-p3 0.9220 0.6000 0.4310);fill-opacity:1;"/>
<path fill-rule="evenodd" clip-rule="evenodd" d="M233.266 169.813C234.061 168.618 235.539 167.899 237.052 167.97C238.102 168.019 239.187 168.46 239.871 169.271C240.556 170.081 240.763 171.28 240.235 172.125C239.641 173.076 238.298 173.368 237.131 173.112C235.964 172.854 234.931 172.158 233.948 171.463C233.677 171.27 233.398 171.069 233.219 170.792C233.039 170.517 232.982 170.146 233.168 169.898" fill="#EB996E" style="fill:#EB996E;fill:color(display-p3 0.9220 0.6000 0.4310);fill-opacity:1;"/>
<path fill-rule="evenodd" clip-rule="evenodd" d="M239.075 165.317C238.683 165.318 238.835 167.928 236.713 169.914C234.595 171.908 231.795 171.782 231.798 172.148C231.771 172.314 232.447 172.617 233.623 172.578C234.777 172.549 236.437 172.078 237.735 170.862C239.03 169.645 239.525 168.094 239.549 167.018C239.583 165.921 239.253 165.292 239.075 165.317Z" fill="#263238" style="fill:#263238;fill:color(display-p3 0.1490 0.1960 0.2200);fill-opacity:1;"/>
<path fill-rule="evenodd" clip-rule="evenodd" d="M238.401 136.615C238.677 137.254 241.059 136.8 243.9 136.97C246.745 137.083 249.068 137.771 249.408 137.162C249.558 136.873 249.125 136.281 248.167 135.703C247.217 135.127 245.726 134.614 244.022 134.527C242.318 134.444 240.783 134.806 239.781 135.286C238.77 135.765 238.281 136.311 238.401 136.615Z" fill="#263238" style="fill:#263238;fill:color(display-p3 0.1490 0.1960 0.2200);fill-opacity:1;"/>
<path fill-rule="evenodd" clip-rule="evenodd" d="M216.358 139.689C216.814 140.209 218.436 139.543 220.426 139.396C222.41 139.18 224.126 139.541 224.48 138.947C224.633 138.66 224.334 138.129 223.567 137.656C222.809 137.185 221.57 136.837 220.203 136.96C218.838 137.086 217.681 137.653 217.023 138.253C216.353 138.857 216.156 139.433 216.358 139.689Z" fill="#263238" style="fill:#263238;fill:color(display-p3 0.1490 0.1960 0.2200);fill-opacity:1;"/>
<path fill-rule="evenodd" clip-rule="evenodd" d="M229.323 111.75L230.682 109.767C240.8 110.288 250.847 112.194 260.453 115.417C264.294 116.704 268.203 118.294 270.959 121.262C274.755 125.349 275.687 131.251 276.435 136.779C279.281 157.819 281.905 179.509 276.508 200.043C274.749 197.57 271.543 196.609 268.533 196.22C265.521 195.831 262.388 195.834 259.606 194.62C256.555 193.29 254.21 190.531 253.181 187.365C252.152 184.2 252.398 180.677 253.653 177.594C255.059 174.144 257.739 170.732 256.807 167.124C255.832 163.348 251.303 161.431 250.04 157.742C247.854 151.364 256.601 144.97 254.352 138.613C253.522 136.267 251.327 134.653 249.034 133.685C246.741 132.717 244.265 132.251 241.947 131.345C234.216 128.322 228.879 120.039 229.323 111.75Z" fill="#263238" style="fill:#263238;fill:color(display-p3 0.1490 0.1960 0.2200);fill-opacity:1;"/>
<path fill-rule="evenodd" clip-rule="evenodd" d="M280.874 122.143C270.038 106.956 262.697 105.119 252.51 104.55L266.678 136.297C268.801 141.405 271.726 147.604 272.179 153.117C272.717 159.647 270.45 165.12 267.419 170.928C263.782 177.897 259.785 184.546 253.537 189.318C247.29 194.088 233.363 200.084 226.134 196.995L236.215 202.632L260.302 202.722L288.356 202.831C288.356 202.831 291.638 199.959 294.521 192.535C301.743 173.941 292.96 139.082 280.874 122.143Z" fill="#2A72AD" style="fill:#2A72AD;fill:color(display-p3 0.1647 0.4471 0.6784);fill-opacity:1;"/>
<path fill-rule="evenodd" clip-rule="evenodd" d="M300.855 221.061C300.855 221.061 294.819 208.68 286.942 201.867C279.065 195.055 274.229 195.123 262.99 196.077C251.751 197.03 236.031 198.8 232.305 197.859L231.952 192.63C230.108 192.448 222.529 188.755 221.053 186.527C218.233 189.41 217.006 192.478 217.648 195.762L215.806 196.458C210.23 198.564 206.907 204.507 208.411 210.274C209.11 212.956 210.807 214.601 214.204 215.189C227.693 217.522 263.751 207.777 274.612 207.721C285.472 207.665 300.855 221.061 300.855 221.061Z" fill="#2A72AD" style="fill:#2A72AD;fill:color(display-p3 0.1647 0.4471 0.6784);fill-opacity:1;"/>
<path fill-rule="evenodd" clip-rule="evenodd" d="M213.014 215.062C213.017 215.041 213.341 215.06 213.955 215.116C214.568 215.175 215.47 215.271 216.635 215.353C218.964 215.528 222.345 215.708 226.514 215.518C230.68 215.319 235.628 214.733 241.017 213.547C243.712 212.961 246.522 212.243 249.405 211.41C252.281 210.523 255.258 209.605 258.307 208.664C264.405 206.803 270.528 205.542 276.121 206.094C281.699 206.579 286.48 208.481 290.103 210.595C293.732 212.748 296.244 215.106 297.8 216.858C298.576 217.741 299.149 218.448 299.498 218.959C299.861 219.458 300.043 219.726 300.027 219.738C300.009 219.751 299.793 219.508 299.399 219.036C299.019 218.552 298.419 217.873 297.622 217.023C296.024 215.333 293.493 213.053 289.882 210.976C286.277 208.938 281.554 207.11 276.071 206.665C270.585 206.156 264.562 207.407 258.485 209.261C255.435 210.178 252.472 211.154 249.576 211.996C246.673 212.825 243.851 213.533 241.137 214.108C235.712 215.269 230.725 215.814 226.532 215.958C222.336 216.093 218.941 215.845 216.613 215.594C215.447 215.475 214.548 215.34 213.938 215.24C213.329 215.144 213.011 215.083 213.014 215.062Z" fill="#263238" style="fill:#263238;fill:color(display-p3 0.1490 0.1960 0.2200);fill-opacity:1;"/>
<path fill-rule="evenodd" clip-rule="evenodd" d="M301.506 216.979C287.897 199.29 261.804 192.526 241.316 201.379L219.675 205.964C213.973 206.951 204.83 208.807 204.395 214.087C203.959 219.369 205.27 225.598 207.908 230.194C212.932 238.944 210.201 250.668 215.223 259.417C217.597 263.552 220.019 267.75 223.474 271.036C226.929 274.322 231.625 276.625 236.365 276.114C241.641 275.543 245.96 271.689 249.315 267.576C256.537 258.72 261.044 247.954 267.808 238.742C274.572 229.531 282.535 222.755 296.738 221.878C299.323 221.718 306.674 225.156 306.674 225.156C306.917 224.127 302.151 217.817 301.506 216.979Z" fill="#2A72AD" style="fill:#2A72AD;fill:color(display-p3 0.1647 0.4471 0.6784);fill-opacity:1;"/>
<path opacity="0.123809" fill-rule="evenodd" clip-rule="evenodd" d="M272.419 206.468C263.024 206.487 253.804 210.986 244.679 212.996C208.049 221.061 208.049 207.244 208.049 207.244C206.9 213.733 212.993 216.721 219.414 218.207C231.662 221.041 244.718 222.56 253.587 219.739C260.708 217.475 268.151 215.837 275.336 213.787C282.522 211.739 292.893 212.511 298.336 217.629C293.451 209.603 281.815 206.448 272.419 206.468Z" fill="black" style="fill:black;fill-opacity:1;"/>
<path opacity="0.123809" fill-rule="evenodd" clip-rule="evenodd" d="M224.807 205.483C225.592 207.435 227.432 208.823 229.43 209.485C231.428 210.146 233.579 210.163 235.679 210.02C243.342 209.498 250.7 206.942 257.952 204.409C252.157 204.204 246.548 206.224 240.862 207.361C235.176 208.499 228.766 208.601 224.145 205.097" fill="black" style="fill:black;fill-opacity:1;"/>
<path fill-rule="evenodd" clip-rule="evenodd" d="M303.342 222.666C303.337 222.67 303.28 222.613 303.175 222.497C303.057 222.365 302.906 222.193 302.716 221.979C302.326 221.512 301.717 220.854 300.92 220.02C299.297 218.416 296.795 216.062 292.955 214.539C291.039 213.806 288.826 213.299 286.413 213.127C284.002 212.921 281.407 212.986 278.712 213.367C273.307 214.103 267.586 216.019 261.527 217.746C255.499 219.551 249.667 221.28 244.158 221.566C238.673 221.827 233.736 221.278 229.669 220.53C225.596 219.777 222.358 218.923 220.114 218.365C219.015 218.084 218.152 217.863 217.536 217.706C217.259 217.631 217.038 217.572 216.868 217.526C216.718 217.484 216.641 217.458 216.643 217.452C216.644 217.445 216.724 217.458 216.877 217.487C217.05 217.524 217.274 217.57 217.555 217.629C218.173 217.77 219.043 217.967 220.15 218.218C222.404 218.73 225.651 219.544 229.716 220.26C233.775 220.972 238.693 221.488 244.137 221.21C249.589 220.906 255.384 219.181 261.416 217.373C267.473 215.648 273.208 213.738 278.664 213.013C281.381 212.638 284.012 212.584 286.44 212.806C288.876 212.993 291.12 213.523 293.056 214.283C296.94 215.863 299.432 218.272 301.029 219.916C301.812 220.769 302.405 221.444 302.776 221.929C302.954 222.154 303.096 222.333 303.206 222.472C303.301 222.596 303.347 222.661 303.342 222.666Z" fill="black" style="fill:black;fill-opacity:1;"/>
<path fill-rule="evenodd" clip-rule="evenodd" d="M289.664 204.437C289.66 204.442 289.607 204.399 289.507 204.311C289.394 204.206 289.251 204.077 289.075 203.915C288.708 203.553 288.135 203.056 287.387 202.428C285.883 201.187 283.549 199.553 280.388 198.073C277.232 196.593 273.228 195.33 268.658 194.701C264.087 194.076 258.974 194.108 253.686 194.742C248.382 195.35 243.426 196.496 238.899 197.497C236.629 197.964 234.4 198.239 232.322 198.02C230.253 197.818 228.35 197.146 226.931 196.067C225.497 195.013 224.495 193.732 223.73 192.566C222.977 191.386 222.454 190.299 222.067 189.397C221.681 188.493 221.433 187.773 221.271 187.284C221.2 187.055 221.144 186.871 221.098 186.722C221.062 186.595 221.047 186.529 221.053 186.527C221.059 186.525 221.088 186.587 221.136 186.71C221.19 186.854 221.259 187.034 221.344 187.257C221.53 187.737 221.801 188.448 222.205 189.336C222.61 190.224 223.15 191.292 223.911 192.447C224.685 193.586 225.685 194.833 227.092 195.845C228.479 196.878 230.329 197.515 232.353 197.7C234.384 197.9 236.574 197.621 238.828 197.147C243.332 196.131 248.316 194.966 253.64 194.358C258.955 193.719 264.103 193.697 268.706 194.346C273.311 195.001 277.34 196.301 280.505 197.824C283.676 199.348 286.003 201.029 287.485 202.311C288.221 202.962 288.78 203.478 289.129 203.859C289.296 204.032 289.429 204.172 289.536 204.283C289.626 204.381 289.67 204.432 289.664 204.437Z" fill="black" style="fill:black;fill-opacity:1;"/>
<path fill-rule="evenodd" clip-rule="evenodd" d="M285.276 204.068C285.275 204.074 285.21 204.068 285.085 204.05C284.938 204.025 284.756 203.996 284.532 203.959C284.017 203.874 283.308 203.757 282.41 203.608C280.564 203.333 277.882 202.973 274.548 202.817C271.217 202.657 267.232 202.696 262.85 203.188C258.466 203.668 253.735 204.79 248.776 205.969C243.826 207.166 239.009 208.171 234.551 208.142C232.327 208.137 230.212 207.882 228.294 207.385C226.367 206.848 224.74 205.874 223.467 204.772C220.903 202.56 219.511 200.143 218.683 198.478C217.87 196.785 217.647 195.762 217.647 195.762C217.654 195.76 217.682 195.819 217.729 195.936C217.783 196.074 217.849 196.246 217.931 196.458C218.112 196.913 218.396 197.581 218.817 198.411C219.68 200.043 221.101 202.414 223.643 204.562C224.904 205.632 226.504 206.566 228.375 207.074C230.267 207.55 232.352 207.789 234.551 207.784C238.96 207.793 243.736 206.788 248.686 205.591C253.644 204.413 258.396 203.296 262.811 202.833C267.218 202.357 271.221 202.347 274.563 202.544C277.907 202.735 280.592 203.137 282.435 203.459C283.355 203.63 284.068 203.77 284.547 203.883C284.768 203.934 284.949 203.977 285.093 204.011C285.215 204.041 285.277 204.06 285.276 204.068Z" fill="black" style="fill:black;fill-opacity:1;"/>
<path fill-rule="evenodd" clip-rule="evenodd" d="M285.948 170.628C285.973 170.635 285.872 171.08 285.665 171.881C285.568 172.284 285.435 172.772 285.237 173.325C285.044 173.88 284.853 174.524 284.555 175.202C284.279 175.889 283.969 176.639 283.571 177.414C283.21 178.208 282.737 179.011 282.256 179.865C281.242 181.54 280.001 183.309 278.519 185.02C277.02 186.716 275.43 188.181 273.904 189.409C273.121 189.999 272.389 190.575 271.65 191.038C270.934 191.535 270.232 191.942 269.588 192.306C268.955 192.692 268.342 192.967 267.818 193.231C267.295 193.501 266.83 193.698 266.444 193.847C265.678 194.158 265.251 194.318 265.24 194.293C265.23 194.269 265.638 194.061 266.382 193.71C266.756 193.54 267.21 193.324 267.72 193.037C268.232 192.756 268.831 192.467 269.449 192.069C270.08 191.692 270.768 191.276 271.469 190.771C272.194 190.3 272.912 189.721 273.68 189.13C275.179 187.899 276.743 186.442 278.228 184.764C279.692 183.071 280.929 181.328 281.95 179.68C282.433 178.84 282.913 178.051 283.283 177.27C283.691 176.509 284.012 175.772 284.302 175.097C284.614 174.431 284.82 173.799 285.032 173.254C285.249 172.711 285.402 172.232 285.521 171.838C285.771 171.054 285.922 170.622 285.948 170.628Z" fill="black" style="fill:black;fill-opacity:1;"/>
<path fill-rule="evenodd" clip-rule="evenodd" d="M284.823 215.048C284.82 215.061 284.613 215.041 284.222 214.993C284.016 214.965 283.778 214.934 283.502 214.897C283.217 214.863 282.883 214.867 282.512 214.846C281.028 214.791 278.847 214.966 276.316 215.807C275.054 216.233 273.711 216.808 272.314 217.521C270.922 218.243 269.486 219.112 268.014 220.088C265.075 222.043 262.006 224.447 258.712 226.867C252.15 231.717 246.212 236.107 241.876 239.312C239.735 240.871 237.99 242.141 236.747 243.047C236.16 243.465 235.692 243.797 235.342 244.047C235.018 244.272 234.844 244.385 234.836 244.375C234.828 244.363 234.986 244.229 235.295 243.984C235.635 243.72 236.089 243.368 236.657 242.925C237.883 241.996 239.602 240.693 241.712 239.091C246.031 235.863 251.946 231.441 258.48 226.555C261.773 224.136 264.847 221.741 267.818 219.789C269.304 218.817 270.756 217.95 272.167 217.234C273.583 216.527 274.948 215.96 276.231 215.545C278.806 214.727 281.023 214.593 282.519 214.694C282.894 214.727 283.228 214.736 283.515 214.783C283.79 214.833 284.03 214.877 284.235 214.915C284.623 214.99 284.825 215.035 284.823 215.048Z" fill="black" style="fill:black;fill-opacity:1;"/>
<path fill-rule="evenodd" clip-rule="evenodd" d="M308.87 237.899C308.843 237.905 308.731 237.53 308.549 236.847C308.365 236.165 308.112 235.176 307.758 233.968C307.4 232.762 306.933 231.335 306.23 229.836C305.524 228.346 304.557 226.776 303.212 225.434C301.878 224.08 300.277 223.143 298.696 222.704C297.113 222.255 295.601 222.234 294.358 222.324C291.857 222.535 290.37 223.09 290.349 223.006C290.346 222.992 290.436 222.952 290.61 222.887C290.784 222.819 291.045 222.732 291.385 222.632C292.065 222.435 293.066 222.179 294.334 222.05C295.596 221.924 297.146 221.914 298.793 222.36C300.436 222.794 302.114 223.764 303.486 225.159C304.874 226.545 305.853 228.16 306.555 229.686C307.252 231.219 307.695 232.671 308.022 233.894C308.345 235.119 308.557 236.12 308.696 236.813C308.833 237.507 308.895 237.893 308.87 237.899Z" fill="black" style="fill:black;fill-opacity:1;"/>
<path fill-rule="evenodd" clip-rule="evenodd" d="M248.646 85.5658C255.981 98.3398 272.272 102.743 285.033 95.4006C297.794 88.0589 302.193 71.7508 294.858 58.9769C287.523 46.203 271.233 41.7998 258.472 49.1422C245.71 56.4845 241.311 72.7919 248.646 85.5658Z" fill="white" style="fill:white;fill-opacity:1;"/>
<path fill-rule="evenodd" clip-rule="evenodd" d="M279.566 103.103C279.575 103.129 279.838 102.997 280.347 102.929C280.848 102.86 281.625 102.9 282.434 103.325C282.832 103.539 283.236 103.846 283.552 104.272C283.861 104.699 284.083 105.239 284.113 105.835C284.198 107.006 283.594 108.41 282.363 109.039C281.12 109.646 279.636 109.283 278.753 108.51C278.296 108.127 277.998 107.625 277.844 107.12C277.695 106.611 277.692 106.103 277.761 105.656C277.909 104.754 278.345 104.109 278.702 103.75C279.062 103.384 279.326 103.254 279.31 103.23C279.306 103.222 279.24 103.253 279.12 103.32C279.057 103.351 278.985 103.397 278.905 103.459C278.822 103.517 278.728 103.588 278.634 103.68C278.246 104.03 277.766 104.683 277.588 105.626C277.504 106.093 277.495 106.631 277.646 107.177C277.801 107.72 278.117 108.268 278.603 108.683C279.077 109.106 279.698 109.412 280.378 109.532C281.056 109.662 281.807 109.586 282.475 109.262C283.134 108.923 283.647 108.369 283.95 107.749C284.264 107.133 284.394 106.452 284.342 105.819C284.303 105.181 284.056 104.599 283.716 104.148C283.371 103.698 282.938 103.382 282.514 103.168C281.655 102.743 280.844 102.733 280.332 102.833C280.202 102.853 280.088 102.885 279.992 102.916C279.894 102.943 279.814 102.973 279.752 103.004C279.625 103.061 279.562 103.095 279.566 103.103Z" fill="#263238" style="fill:#263238;fill:color(display-p3 0.1490 0.1960 0.2200);fill-opacity:1;"/>
<path fill-rule="evenodd" clip-rule="evenodd" d="M249.556 87.4583C249.556 87.4583 249.485 87.3273 249.34 87.0796C249.189 86.8266 248.97 86.4606 248.683 85.9823C248.539 85.7421 248.377 85.4726 248.198 85.177C248.033 84.8724 247.883 84.5236 247.703 84.1539C247.527 83.7834 247.337 83.3844 247.135 82.9578C247.025 82.7483 246.938 82.52 246.858 82.2812C246.773 82.0447 246.686 81.8007 246.596 81.55C245.813 79.5688 245.228 76.9949 245.023 73.9808C244.835 70.9698 245.145 67.4752 246.353 63.8624C246.507 63.4119 246.663 62.9568 246.821 62.4965C247.006 62.0467 247.221 61.6029 247.423 61.1485C247.526 60.9218 247.63 60.6935 247.734 60.4644C247.836 60.2339 247.939 60.0034 248.075 59.7878C248.329 59.347 248.585 58.9017 248.845 58.4526C248.976 58.2288 249.102 57.9998 249.239 57.7767C249.391 57.5634 249.545 57.3494 249.699 57.1338C250.007 56.7035 250.318 56.2693 250.631 55.83C250.958 55.4019 251.338 55.0097 251.693 54.5913C251.875 54.3855 252.057 54.1774 252.239 53.9693C252.332 53.8668 252.419 53.7583 252.517 53.6595L252.822 53.3736C253.647 52.6199 254.44 51.7996 255.393 51.1402C255.857 50.7981 256.304 50.4232 256.793 50.0998C257.294 49.7944 257.797 49.4861 258.305 49.1762C258.562 49.025 258.809 48.8544 259.075 48.7189C259.345 48.5894 259.617 48.4592 259.888 48.3282C260.436 48.0737 260.974 47.7893 261.538 47.5536C262.693 47.1524 263.838 46.6599 265.07 46.4039C265.375 46.3268 265.68 46.2498 265.986 46.1719C266.14 46.1345 266.292 46.0903 266.447 46.0589L266.917 45.9878C267.546 45.892 268.177 45.7969 268.813 45.7004C269.451 45.6345 270.1 45.6233 270.749 45.5814C271.072 45.5717 271.398 45.5305 271.724 45.5462L272.707 45.5889C274.025 45.5911 275.335 45.8254 276.664 46.0058C277.316 46.1607 277.971 46.3171 278.629 46.4743L279.124 46.5918C279.286 46.6412 279.445 46.7003 279.606 46.7542L280.573 47.0858L281.545 47.4174L282.485 47.8402L283.428 48.2683L283.901 48.4832C284.055 48.564 284.203 48.6545 284.354 48.7399C284.956 49.0872 285.56 49.4352 286.166 49.7855C286.736 50.1919 287.308 50.6005 287.882 51.0107C290.115 52.7351 292.11 54.8248 293.778 57.1989C295.382 59.6172 296.605 62.2375 297.399 64.947C297.572 65.631 297.745 66.3136 297.918 66.9925C298.022 67.6856 298.128 68.3756 298.232 69.0635L298.307 69.5784L298.335 70.0978L298.39 71.133L298.443 72.1636L298.399 73.1912L298.357 74.2136L298.332 74.7226L298.262 75.2263C298.17 75.8976 298.077 76.566 297.985 77.2306C297.671 78.5352 297.412 79.8435 296.935 81.0732L296.618 82.005C296.515 82.3149 296.358 82.6038 296.231 82.9032C295.956 83.493 295.71 84.0925 295.417 84.6651C295.097 85.2226 294.777 85.7773 294.462 86.3289L294.224 86.742C294.138 86.8745 294.042 87.001 293.951 87.1305C293.768 87.3879 293.585 87.6447 293.403 87.8999C292.717 88.9575 291.843 89.8459 291.049 90.7777C290.625 91.2178 290.165 91.6175 289.729 92.0344C289.508 92.2409 289.289 92.4468 289.07 92.6511C288.847 92.8517 288.598 93.0193 288.364 93.2034C287.891 93.5642 287.422 93.9227 286.956 94.2782C286.477 94.6158 285.965 94.8972 285.478 95.2071C284.518 95.8552 283.467 96.2976 282.466 96.7923L282.089 96.9742C281.961 97.0288 281.829 97.0707 281.699 97.1201C281.439 97.2144 281.18 97.3087 280.922 97.403C280.404 97.5827 279.9 97.7952 279.383 97.9434C278.86 98.0774 278.343 98.2091 277.83 98.3401C277.574 98.4052 277.319 98.4703 277.065 98.5354C276.806 98.5759 276.55 98.617 276.293 98.6575C275.781 98.7353 275.274 98.8131 274.771 98.8902C274.521 98.9389 274.268 98.9501 274.017 98.9621C273.765 98.9755 273.516 98.9898 273.268 99.0032C272.771 99.0264 272.281 99.0669 271.794 99.0751C271.308 99.0556 270.828 99.0354 270.352 99.016C266.551 98.8296 263.186 97.8499 260.451 96.5805C260.108 96.4233 259.766 96.2766 259.439 96.1187C259.122 95.9368 258.812 95.7587 258.507 95.5843C258.201 95.4099 257.903 95.2385 257.609 95.0701C257.465 94.984 257.315 94.9084 257.178 94.8164C257.043 94.7206 256.91 94.6255 256.778 94.532C256.25 94.1562 255.744 93.797 255.263 93.4549C254.791 93.0994 254.387 92.7065 253.979 92.3637C253.778 92.1893 253.584 92.0186 253.394 91.854C253.2 91.6931 253.021 91.5284 252.865 91.3503C252.541 91.006 252.238 90.6849 251.957 90.3855C251.68 90.0839 251.409 89.8174 251.186 89.5532C250.975 89.2793 250.784 89.0308 250.612 88.8078C250.271 88.3669 250.01 88.0301 249.829 87.7973C249.652 87.5706 249.556 87.4583 249.556 87.4583C249.556 87.4583 249.638 87.5803 249.809 87.8123C249.985 88.0488 250.24 88.3916 250.573 88.8384C250.742 89.0645 250.931 89.3152 251.138 89.5929C251.358 89.8601 251.627 90.131 251.903 90.4357C252.182 90.738 252.483 91.0629 252.804 91.4109C252.959 91.5913 253.139 91.7574 253.331 91.9206C253.52 92.0875 253.714 92.2596 253.915 92.4363C254.321 92.7828 254.725 93.1802 255.196 93.5402C255.678 93.8868 256.183 94.2505 256.711 94.63C256.844 94.7251 256.977 94.8209 257.112 94.9182C257.25 95.0117 257.399 95.0888 257.545 95.1764C257.838 95.3463 258.138 95.5199 258.443 95.6966C258.749 95.8739 259.06 96.0536 259.378 96.2377C259.706 96.3986 260.049 96.5476 260.393 96.7062C263.136 97.9951 266.518 98.9935 270.344 99.1918C270.821 99.2136 271.306 99.2345 271.795 99.2562C272.283 99.248 272.779 99.2098 273.279 99.1874C273.528 99.1746 273.78 99.1612 274.032 99.1477C274.285 99.1365 274.54 99.1252 274.792 99.0781C275.298 99.0017 275.809 98.9246 276.326 98.8468C276.584 98.8064 276.845 98.772 277.104 98.7256C277.36 98.6612 277.617 98.5961 277.875 98.531C278.392 98.4 278.913 98.2683 279.441 98.135C279.962 97.9861 280.469 97.7735 280.992 97.5939C281.252 97.4996 281.513 97.4053 281.776 97.3102C281.906 97.2608 282.04 97.2189 282.168 97.1635L282.549 96.9817C283.559 96.4854 284.619 96.0408 285.587 95.3889C286.08 95.0791 286.595 94.7954 287.078 94.4556C287.549 94.0986 288.023 93.7378 288.501 93.3748C288.736 93.1892 288.987 93.0208 289.213 92.8195C289.434 92.6129 289.656 92.4063 289.878 92.1983C290.318 91.7784 290.783 91.3757 291.212 90.9334C292.013 89.9948 292.895 89.0997 293.589 88.0339C293.773 87.7764 293.958 87.5174 294.143 87.2585C294.235 87.1282 294.332 87.001 294.418 86.8663L294.658 86.4501C294.978 85.8948 295.301 85.3357 295.624 84.7728C295.921 84.1965 296.17 83.591 296.447 82.9967C296.576 82.6951 296.734 82.404 296.839 82.0911L297.16 81.151C297.642 79.9109 297.904 78.5913 298.222 77.2755C298.315 76.6049 298.41 75.9306 298.504 75.2532L298.575 74.745L298.599 74.2308L298.643 73.1994L298.687 72.1628L298.636 71.1225L298.579 70.0776L298.552 69.5537L298.476 69.0335C298.371 68.3397 298.265 67.6429 298.16 66.9438C297.986 66.2583 297.811 65.5697 297.637 64.8788C296.836 62.1432 295.603 59.4989 293.983 57.0582C292.3 54.6624 290.287 52.5533 288.032 50.8138C287.452 50.4 286.875 49.9876 286.3 49.5766C285.687 49.2241 285.077 48.8731 284.47 48.5228C284.317 48.4367 284.167 48.3454 284.013 48.2639L283.536 48.0468L282.584 47.6157L281.634 47.1906L280.654 46.8553L279.678 46.5222C279.515 46.4676 279.355 46.4084 279.191 46.3583L278.692 46.24C278.027 46.0814 277.366 45.9242 276.708 45.7678C275.367 45.5866 274.045 45.3524 272.716 45.3509L271.724 45.3097C271.395 45.2932 271.067 45.3351 270.74 45.3456C270.085 45.3883 269.432 45.4003 268.788 45.4676C268.147 45.5657 267.509 45.663 266.875 45.7595L266.401 45.8321C266.245 45.8643 266.091 45.9085 265.936 45.9466C265.628 46.0252 265.32 46.1038 265.014 46.1816C263.77 46.4414 262.617 46.9391 261.452 47.3462C260.884 47.585 260.341 47.8717 259.79 48.1299C259.516 48.2616 259.243 48.3933 258.971 48.5243C258.702 48.662 258.453 48.8342 258.195 48.9861C257.684 49.3005 257.176 49.6118 256.673 49.9209C256.18 50.2473 255.73 50.626 255.263 50.9718C254.305 51.6386 253.505 52.4657 252.677 53.2276L252.369 53.5158C252.271 53.6153 252.183 53.7253 252.09 53.8286C251.907 54.0389 251.723 54.2485 251.541 54.4566C251.184 54.8787 250.802 55.2746 250.474 55.7073C250.159 56.1496 249.847 56.5882 249.538 57.023C249.383 57.2401 249.229 57.4564 249.075 57.6712C248.938 57.8957 248.812 58.127 248.68 58.3531C248.42 58.8066 248.163 59.2549 247.909 59.6995C247.772 59.9173 247.669 60.1501 247.567 60.3821C247.463 60.6134 247.359 60.8424 247.256 61.0714C247.053 61.5295 246.838 61.9771 246.653 62.4306C246.495 62.8947 246.339 63.3527 246.185 63.8063C244.981 67.4468 244.681 70.9631 244.884 73.9898C245.103 77.0181 245.706 79.6002 246.505 81.5837C246.597 81.8344 246.686 82.0791 246.773 82.3156C246.856 82.5544 246.945 82.7819 247.056 82.9922C247.263 83.4181 247.456 83.8171 247.637 84.1875C247.82 84.5558 247.975 84.9031 248.143 85.2062C248.326 85.5011 248.492 85.7683 248.64 86.0085C248.936 86.4816 249.162 86.8431 249.319 87.0938C249.472 87.337 249.556 87.4583 249.556 87.4583Z" fill="#263238" style="fill:#263238;fill:color(display-p3 0.1490 0.1960 0.2200);fill-opacity:1;"/>
<path fill-rule="evenodd" clip-rule="evenodd" d="M258.294 72.9554L262.24 69.005L269.85 75.777L284.788 61.3872L288.453 65.3376L269.286 83.3941L258.294 72.9554Z" fill="#FF932F" style="fill:#FF932F;fill:color(display-p3 1.0000 0.5765 0.1843);fill-opacity:1;"/>
</svg>
