<svg width="27" height="27" viewBox="0 0 27 27" fill="none" xmlns="http://www.w3.org/2000/svg">
<g clip-path="url(#clip0_148_1978)">
<path d="M24.0532 0.223389H14.0518V4.19794C14.2999 4.13441 14.557 4.1015 14.8172 4.1015C16.505 4.1015 17.8788 5.47461 17.8788 7.16317C17.8788 8.85173 16.505 10.2248 14.8172 10.2248C14.557 10.2248 14.2999 10.1919 14.0518 10.1284V12.5211H17.6949C18.3493 12.5211 18.6922 13.316 18.2675 13.7956C18.0134 14.0803 17.8788 14.4339 17.8788 14.8173C17.8788 15.6612 18.565 16.3482 19.4097 16.3482C20.2543 16.3482 20.9405 15.6612 20.9405 14.8173C20.9405 14.4339 20.8059 14.0803 20.5518 13.7956C20.1142 13.3024 20.4651 12.5211 21.1244 12.5211H26.3495V2.51964C26.3495 1.25344 25.3194 0.223389 24.0532 0.223389Z" fill="white" style="fill:white;fill-opacity:1;"/>
<path d="M14.8171 5.63233C14.4389 5.63233 14.0756 5.76985 13.7945 6.0203C13.3069 6.45755 12.5208 6.11148 12.5208 5.44843V0.223389H2.51939C1.25319 0.223389 0.223145 1.25344 0.223145 2.51964V12.5211H4.19841C4.13417 12.2729 4.10126 12.0158 4.10126 11.7557C4.10126 10.0671 5.47513 8.694 7.16292 8.694C8.85072 8.694 10.2246 10.0671 10.2246 11.7557C10.2246 12.0158 10.1917 12.2729 10.1274 12.5211H12.5208V8.8779C12.5208 8.2148 13.3069 7.86883 13.7945 8.30609C14.0756 8.55648 14.4389 8.694 14.8171 8.694C15.6618 8.694 16.3479 8.00706 16.3479 7.16317C16.3479 6.31927 15.6618 5.63233 14.8171 5.63233Z" fill="white" style="fill:white;fill-opacity:1;"/>
<path d="M11.7554 16.3482C12.0156 16.3482 12.2727 16.3811 12.5208 16.4453V14.0519H8.87766C8.21838 14.0519 7.86746 13.2705 8.30508 12.7775C8.5592 12.4927 8.69376 12.1391 8.69376 11.7557C8.69376 10.9118 8.00759 10.2249 7.16292 10.2249C6.31826 10.2249 5.63209 10.9118 5.63209 11.7557C5.63209 12.1392 5.76665 12.4927 6.02077 12.7775C6.45843 13.2705 6.10746 14.0519 5.44818 14.0519H0.223145V24.0534C0.223145 25.3196 1.25319 26.3496 2.51939 26.3496H12.5208V22.3744C12.2727 22.4387 12.0156 22.4715 11.7554 22.4715C10.0676 22.4715 8.69376 21.0984 8.69376 19.4099C8.69376 17.7213 10.0676 16.3482 11.7554 16.3482Z" fill="white" style="fill:white;fill-opacity:1;"/>
<path d="M22.3741 14.0518C22.4384 14.2999 22.4713 14.557 22.4713 14.8172C22.4713 16.5057 21.0974 17.8788 19.4096 17.8788C17.7218 17.8788 16.3479 16.5057 16.3479 14.8172C16.3479 14.5555 16.3926 14.3009 16.4568 14.0518H14.0517V17.6949C14.0517 18.3539 13.2709 18.7049 12.778 18.2675C12.491 18.0134 12.1382 17.8788 11.7554 17.8788C10.9108 17.8788 10.2246 18.5658 10.2246 19.4097C10.2246 20.2536 10.9108 20.9405 11.7554 20.9405C12.1382 20.9405 12.491 20.8059 12.778 20.5518C13.2719 20.1152 14.0517 20.4652 14.0517 21.1244V26.3495H24.0531C25.3193 26.3495 26.3494 25.3194 26.3494 24.0532V14.0518H22.3741Z" fill="white" style="fill:white;fill-opacity:1;"/>
</g>
<defs>
<clipPath id="clip0_148_1978">
<rect width="26.1262" height="26.1262" fill="white" style="fill:white;fill-opacity:1;" transform="translate(0.223145 0.223389)"/>
</clipPath>
</defs>
</svg>
