<svg width="24" height="24" viewBox="0 0 24 24" fill="none" xmlns="http://www.w3.org/2000/svg">
    <path d="M13 20C11.22 20 9.47991 19.4722 7.99987 18.4832C6.51983 17.4943 5.36627 16.0887 4.68508 14.4442C4.00389 12.7996 3.82566 10.99 4.17293 9.24419C4.5202 7.49836 5.37737 5.89472 6.63604 4.63604C7.89471 3.37737 9.49836 2.5202 11.2442 2.17294C12.99 1.82567 14.7996 2.0039 16.4442 2.68509C18.0887 3.36628 19.4943 4.51983 20.4832 5.99987C21.4722 7.47991 22 9.21997 22 11C22 13.387 21.0518 15.6761 19.364 17.364C17.6761 19.0518 15.3869 20 13 20Z" stroke="currentColor" stroke-width="1.5" stroke-linecap="round" stroke-linejoin="round"/>
    <path d="M3.31013 18.93C1.71013 19.46 1.55013 20.67 2.95013 21.6C4.23013 22.45 5.28013 21.89 5.28013 20.35C5.30371 20.1055 5.26281 19.8591 5.16151 19.6353C5.06021 19.4115 4.90204 19.2181 4.70276 19.0745C4.50348 18.9308 4.27005 18.8419 4.02571 18.8166C3.78137 18.7912 3.53465 18.8303 3.31013 18.93Z" stroke="currentColor" stroke-width="1.5" stroke-linecap="round" stroke-linejoin="round"/>
</svg>