<svg width="17" height="16" viewBox="0 0 17 16" xmlns="http://www.w3.org/2000/svg">
    <g clip-path="url(#clip0_148_2487)">
        <path d="M4.8339 5.33333C4.38425 5.33304 3.94182 5.44646 3.54776 5.66305C3.1537 5.87963 2.82081 6.19234 2.58003 6.5721C2.33926 6.95186 2.19843 7.38634 2.17063 7.83514C2.14283 8.28394 2.22897 8.73248 2.42104 9.13905C2.61311 9.54562 2.90487 9.89702 3.26919 10.1606C3.63351 10.4241 4.05856 10.5913 4.50481 10.6465C4.95107 10.7017 5.40403 10.6432 5.8216 10.4763C6.23916 10.3095 6.60775 10.0398 6.8931 9.69226L10.4798 12.0835C10.1587 12.6881 10.0823 13.3929 10.2664 14.0523C10.4504 14.7116 10.8808 15.275 11.4686 15.6259C12.0564 15.9768 12.7565 16.0884 13.4243 15.9376C14.092 15.7868 14.6762 15.3851 15.0561 14.8156C15.436 14.2461 15.5825 13.5524 15.4652 12.878C15.348 12.2035 14.9761 11.5999 14.4263 11.192C13.8765 10.7841 13.191 10.6031 12.5116 10.6865C11.8321 10.7698 11.2107 11.1111 10.7758 11.6397L7.18857 9.24853C7.39342 8.86425 7.50057 8.43547 7.50057 8C7.50057 7.56453 7.39342 7.13574 7.18857 6.75146L10.7758 4.36026C11.2115 4.8901 11.8341 5.2322 12.515 5.3158C13.1958 5.39941 13.8828 5.21811 14.4337 4.80942C14.9847 4.40074 15.3574 3.79592 15.4749 3.12009C15.5924 2.44426 15.4457 1.74912 15.065 1.17847C14.6843 0.607815 14.0989 0.205306 13.4298 0.0542034C12.7606 -0.0968995 12.059 0.014965 11.4701 0.366657C10.8811 0.71835 10.4499 1.28296 10.2656 1.9437C10.0812 2.60444 10.1579 3.31075 10.4798 3.91653L6.8931 6.30773C6.64334 6.00308 6.32908 5.75766 5.97298 5.58916C5.61689 5.42066 5.22785 5.33328 4.8339 5.33333ZM12.8339 11.2C13.2558 11.2 13.6683 11.3251 14.0191 11.5595C14.3699 11.7939 14.6434 12.1271 14.8048 12.5169C14.9663 12.9068 15.0086 13.3357 14.9262 13.7495C14.8439 14.1633 14.6407 14.5435 14.3424 14.8418C14.044 15.1402 13.6639 15.3434 13.2501 15.4257C12.8363 15.508 12.4073 15.4657 12.0175 15.3043C11.6277 15.1428 11.2945 14.8694 11.0601 14.5185C10.8257 14.1677 10.7006 13.7553 10.7006 13.3333C10.7012 12.7677 10.9262 12.2255 11.3261 11.8255C11.7261 11.4256 12.2683 11.2006 12.8339 11.2ZM12.8339 0.533329C13.2558 0.533329 13.6683 0.658447 14.0191 0.892861C14.3699 1.12727 14.6434 1.46046 14.8048 1.85027C14.9663 2.24009 15.0086 2.66903 14.9262 3.08286C14.8439 3.49668 14.6407 3.87681 14.3424 4.17516C14.044 4.47351 13.6639 4.67669 13.2501 4.75901C12.8363 4.84132 12.4073 4.79907 12.0175 4.63761C11.6277 4.47614 11.2945 4.2027 11.0601 3.85188C10.8257 3.50105 10.7006 3.0886 10.7006 2.66666C10.7012 2.10106 10.9262 1.55881 11.3261 1.15887C11.7261 0.75893 12.2683 0.533965 12.8339 0.533329ZM4.8339 10.1333C4.41197 10.1333 3.99951 10.0082 3.64869 9.7738C3.29786 9.53938 3.02443 9.2062 2.86296 8.81639C2.70149 8.42657 2.65925 7.99763 2.74156 7.5838C2.82388 7.16998 3.02706 6.78985 3.32541 6.4915C3.62376 6.19315 4.00388 5.98997 4.41771 5.90765C4.83154 5.82534 5.26048 5.86759 5.65029 6.02905C6.04011 6.19052 6.37329 6.46395 6.60771 6.81478C6.84212 7.16561 6.96724 7.57806 6.96724 8C6.9666 8.5656 6.74164 9.10785 6.3417 9.50779C5.94176 9.90773 5.3995 10.1327 4.8339 10.1333Z" fill="currentColor"/>
    </g>
    <defs>
        <clipPath id="clip0_148_2487">
            <rect width="16" height="16" transform="translate(0.833984)"/>
        </clipPath>
    </defs>
</svg>
