<svg width="17" height="16" viewBox="0 0 17 16" fill="none" xmlns="http://www.w3.org/2000/svg">
    <g clip-path="url(#clip0_148_2427)">
        <path d="M1.06836 6.09775V3.58713C1.06836 3.30307 1.29867 3.07275 1.58273 3.07275H3.93648" stroke="#2A72AD" stroke-width="0.703125" stroke-miterlimit="10" stroke-linecap="round" stroke-linejoin="round"/>
        <path d="M1.06836 7.19165V12.4129C1.06836 12.697 1.29867 12.9273 1.58273 12.9273H3.92961" stroke="#2A72AD" stroke-width="0.703125" stroke-miterlimit="10" stroke-linecap="round" stroke-linejoin="round"/>
        <path d="M13.7275 3.07275H16.085C16.3691 3.07275 16.5994 3.30307 16.5994 3.58713V9.69682" stroke="#2A72AD" stroke-width="0.703125" stroke-miterlimit="10" stroke-linecap="round" stroke-linejoin="round"/>
        <path d="M16.5995 10.7905V12.4127C16.5995 12.6968 16.3691 12.9271 16.0851 12.9271H13.7207" stroke="#2A72AD" stroke-width="0.703125" stroke-miterlimit="10" stroke-linecap="round" stroke-linejoin="round"/>
        <path d="M13.7207 4.65503H16.4616" stroke="#2A72AD" stroke-width="0.703125" stroke-miterlimit="10" stroke-linecap="round" stroke-linejoin="round"/>
        <path d="M1.13916 4.65503H3.92241" stroke="#2A72AD" stroke-width="0.703125" stroke-miterlimit="10" stroke-linecap="round" stroke-linejoin="round"/>
        <path d="M2.11084 6.45265L2.43109 6.74165L2.96693 6.11206" stroke="#2A72AD" stroke-width="0.703125" stroke-miterlimit="10" stroke-linecap="round" stroke-linejoin="round"/>
        <path d="M2.11084 8.19312L2.84062 8.92287" stroke="#2A72AD" stroke-width="0.703125" stroke-miterlimit="10" stroke-linecap="round" stroke-linejoin="round"/>
        <path d="M2.11084 8.92287L2.84062 8.19312" stroke="#2A72AD" stroke-width="0.703125" stroke-miterlimit="10" stroke-linecap="round" stroke-linejoin="round"/>
        <path d="M2.11084 10.374L2.84062 11.1038" stroke="#2A72AD" stroke-width="0.703125" stroke-miterlimit="10" stroke-linecap="round" stroke-linejoin="round"/>
        <path d="M2.11084 11.1038L2.84062 10.374" stroke="#2A72AD" stroke-width="0.703125" stroke-miterlimit="10" stroke-linecap="round" stroke-linejoin="round"/>
        <path d="M6.51855 1.10156H12.9386C13.3364 1.10156 13.6589 1.42406 13.6589 1.82156V14.1784C13.6589 14.5759 13.3364 14.8984 12.9386 14.8984H11.3126" stroke="#2A72AD" stroke-width="0.703125" stroke-miterlimit="10" stroke-linecap="round" stroke-linejoin="round"/>
        <path d="M5.42459 1.10156H4.72959C4.33178 1.10156 4.00928 1.42406 4.00928 1.82156V14.1784C4.00928 14.5759 4.33178 14.8984 4.72959 14.8984H10.2187" stroke="#2A72AD" stroke-width="0.703125" stroke-miterlimit="10" stroke-linecap="round" stroke-linejoin="round"/>
        <path d="M4.10156 3.073H13.5145" stroke="#2A72AD" stroke-width="0.703125" stroke-miterlimit="10" stroke-linecap="round" stroke-linejoin="round"/>
        <path d="M5.35693 5.62249L5.8169 6.03752L6.58646 5.1333" stroke="#2A72AD" stroke-width="0.703125" stroke-miterlimit="10" stroke-linecap="round" stroke-linejoin="round"/>
        <path d="M5.35693 7.95156L5.8169 8.36662L6.58646 7.4624" stroke="#2A72AD" stroke-width="0.703125" stroke-miterlimit="10" stroke-linecap="round" stroke-linejoin="round"/>
        <path d="M5.35693 10.2807L5.8169 10.6957L6.58646 9.7915" stroke="#2A72AD" stroke-width="0.703125" stroke-miterlimit="10" stroke-linecap="round" stroke-linejoin="round"/>
        <path d="M5.35693 12.61L5.8169 13.0251L6.58646 12.1208" stroke="#2A72AD" stroke-width="0.703125" stroke-miterlimit="10" stroke-linecap="round" stroke-linejoin="round"/>
        <path d="M7.6665 5.58545H12.311" stroke="#2A72AD" stroke-width="0.703125" stroke-miterlimit="10" stroke-linecap="round" stroke-linejoin="round"/>
        <path d="M7.6665 8.3833H12.311" stroke="#2A72AD" stroke-width="0.703125" stroke-miterlimit="10" stroke-linecap="round" stroke-linejoin="round"/>
        <path d="M7.6665 7.4458H10.8454" stroke="#2A72AD" stroke-width="0.703125" stroke-miterlimit="10" stroke-linecap="round" stroke-linejoin="round"/>
        <path d="M7.6665 10.2437H12.311" stroke="#2A72AD" stroke-width="0.703125" stroke-miterlimit="10" stroke-linecap="round" stroke-linejoin="round"/>
        <path d="M7.6665 12.573H11.3408" stroke="#2A72AD" stroke-width="0.703125" stroke-miterlimit="10" stroke-linecap="round" stroke-linejoin="round"/>
        <path d="M13.7827 6.427H15.379" stroke="#2A72AD" stroke-width="0.703125" stroke-miterlimit="10" stroke-linecap="round" stroke-linejoin="round"/>
        <path d="M13.7827 8.55786H15.379" stroke="#2A72AD" stroke-width="0.703125" stroke-miterlimit="10" stroke-linecap="round" stroke-linejoin="round"/>
        <path d="M13.7827 10.739H15.379" stroke="#2A72AD" stroke-width="0.703125" stroke-miterlimit="10" stroke-linecap="round" stroke-linejoin="round"/>
    </g>
    <defs>
        <clipPath id="clip0_148_2427">
            <rect width="16" height="16" fill="white" transform="translate(0.833984)"/>
        </clipPath>
    </defs>
</svg>