<svg width="147" height="205" viewBox="0 0 147 205" fill="none" xmlns="http://www.w3.org/2000/svg">
    <g id="success">
        <path id="Path" d="M147 90.1494V102.203C147 126.539 135.252 148.328 117.078 161.883C116.022 162.674 115.397 163.912 115.397 165.23V198.724C115.397 202.189 112.585 205 109.11 205H37.1356C33.661 205 30.8485 202.189 30.8485 198.724V164.862C30.8485 163.552 30.2324 162.322 29.1888 161.531C11.4592 148.139 0 126.903 0 102.993V90.1494C0 82.7903 5.9811 76.8202 13.3495 76.8202C20.718 76.8202 26.7033 82.7819 26.7033 90.1494V103.236C26.7033 128.903 47.4632 149.75 73.1437 149.943C73.2611 149.947 73.3826 149.947 73.5042 149.947C99.344 149.947 120.297 129.028 120.297 103.236V90.1494C120.297 82.7903 126.278 76.8202 133.646 76.8202H133.65C141.019 76.8206 147 82.7907 147 90.1494Z" fill="#199AFF"/>
        <path id="Path_2" d="M147 90.1494V102.203C147 126.539 135.252 148.328 117.078 161.883C116.022 162.674 115.397 163.912 115.397 165.23V198.724C115.397 202.189 112.585 205 109.11 205H73.1437V149.943C73.2611 149.947 73.3826 149.947 73.5042 149.947C99.344 149.947 120.297 129.028 120.297 103.236V90.1494C120.297 82.7903 126.278 76.8202 133.646 76.8202H133.65C141.019 76.8206 147 82.7907 147 90.1494Z" fill="#2275FF"/>
        <path id="Path_3" d="M100.212 103.839C100.212 118.758 88.0902 130.857 73.1437 130.857C58.1931 130.857 46.0758 118.758 46.0758 103.839C46.0758 88.9156 58.1931 76.8206 73.1437 76.8206C88.0902 76.8206 100.212 88.9152 100.212 103.839Z" fill="#199AFF"/>
        <path id="Path_4" d="M73.1437 130.857V76.8202C88.0902 76.8202 100.212 88.9152 100.212 103.838C100.212 118.757 88.0902 130.857 73.1437 130.857Z" fill="#2275FF"/>
        <path id="Path_5" d="M108.029 30.8916L98.0908 42.9407C97.2232 43.9908 96.7831 45.3295 96.8544 46.6851L97.6842 62.7211C97.8896 66.6873 93.9162 69.5322 90.2194 68.0637L75.5161 62.2316C74.7574 61.9304 73.9443 61.8049 73.1437 61.8593C72.5779 61.8969 72.0204 62.0225 71.4839 62.2316L56.7806 68.0637C53.0838 69.5322 49.1104 66.6873 49.3158 62.7211L50.1456 46.6851C50.2169 45.3295 49.7768 43.9908 48.9092 42.9407L38.9714 30.8916C36.4692 27.8543 37.9152 23.2522 41.7084 22.1896L57.1746 17.8511C58.4404 17.4955 59.5343 16.7006 60.2552 15.6044L68.944 2.44674C69.9457 0.928061 71.5259 0.112242 73.1437 0.0118335C74.9963 -0.109493 76.9034 0.702142 78.056 2.44674L86.7448 15.6044C87.4657 16.7006 88.5596 17.4955 89.8254 17.8511L105.292 22.1896C109.085 23.2522 110.531 27.8543 108.029 30.8916Z" fill="#FFC43B"/>
        <path id="Path_6" d="M73.1437 61.8593V0.0118335C74.9963 -0.109493 76.9034 0.702142 78.056 2.44674L86.7448 15.6044C87.4657 16.7006 88.5596 17.4955 89.8254 17.8511L105.292 22.1896C109.085 23.2522 110.531 27.8543 108.029 30.8916L98.0908 42.9407C97.2232 43.9908 96.7831 45.3295 96.8544 46.6851L97.6843 62.7211C97.8896 66.6873 93.9162 69.5322 90.2194 68.0637L75.5161 62.2316C74.7574 61.9304 73.9443 61.8049 73.1437 61.8593Z" fill="#FFA433"/>
        <path id="Path_7" d="M12.2992 25.8754C9.84429 23.425 5.86332 23.425 3.40801 25.8754C0.952701 28.3258 0.952701 32.2994 3.40801 34.7503L26.3902 57.6903C28.8455 60.1411 32.826 60.1411 35.2813 57.6903C37.7367 55.2399 37.7367 51.2662 35.2813 48.8154L12.2992 25.8754Z" fill="#FFEBBE"/>
        <path id="Path_8" d="M145.028 25.8754C142.573 23.425 138.592 23.425 136.137 25.8754L113.155 48.8154C110.7 51.2658 110.7 55.2394 113.155 57.6903C115.61 60.1411 119.591 60.1411 122.046 57.6903L145.028 34.7503C147.484 32.2994 147.484 28.3258 145.028 25.8754Z" fill="#FFD87C"/>
    </g>
</svg>
