<svg viewBox="0 0 10 11" xmlns="http://www.w3.org/2000/svg">
    <g clip-path="url(#clip0_148_1936)">
        <path d="M4.77837 0.940735C2.36503 0.940735 0.396973 2.90879 0.396973 5.32213C0.396973 7.73548 2.36503 9.69965 4.77837 9.69965C7.19172 9.69965 9.15589 7.73548 9.15589 5.32213C9.15619 5.26954 9.14608 5.2174 9.12611 5.16874C9.10615 5.12008 9.07674 5.07585 9.03959 5.03862C9.00243 5.0014 8.95826 4.9719 8.90964 4.95185C8.86102 4.93179 8.8089 4.92157 8.7563 4.92178C8.70397 4.92198 8.65219 4.9325 8.60392 4.95274C8.55566 4.97298 8.51186 5.00254 8.47503 5.03973C8.43821 5.07691 8.40908 5.121 8.38931 5.16946C8.36954 5.21792 8.35952 5.2698 8.35983 5.32213C8.35983 7.30526 6.7615 8.90359 4.77837 8.90359C2.79524 8.90359 1.19303 7.30526 1.19303 5.32213C1.19303 3.33901 2.79524 1.73679 4.77837 1.73679C4.8834 1.73638 4.984 1.69448 5.05827 1.62021C5.13253 1.54595 5.17444 1.44534 5.17484 1.34032C5.17505 1.28805 5.16496 1.23625 5.14514 1.18788C5.12533 1.13951 5.09618 1.09552 5.05937 1.05841C5.02255 1.02131 4.97879 0.991818 4.93057 0.971627C4.88236 0.951436 4.83064 0.940939 4.77837 0.940735ZM6.28885 1.24003C6.13348 1.24154 5.98675 1.33432 5.92425 1.48724C5.84035 1.6909 5.93719 1.92399 6.14115 2.00732C6.14581 2.00928 6.14882 2.01183 6.15273 2.01349C6.35638 2.09969 6.59144 2.00326 6.67592 1.79893C6.76016 1.59609 6.66403 1.36333 6.46135 1.27885C6.45564 1.27644 6.44932 1.27238 6.44425 1.27028C6.39334 1.2493 6.34065 1.23951 6.28885 1.24003ZM7.58399 2.10139C7.47909 2.10225 7.37883 2.14435 7.30491 2.21877C7.14864 2.37435 7.14864 2.62758 7.30491 2.78316C7.30822 2.78647 7.31017 2.78842 7.31348 2.79173C7.46825 2.94881 7.72148 2.9503 7.87787 2.79489C8.03414 2.63931 8.03414 2.38608 7.87787 2.2305C7.87381 2.22644 7.87035 2.22283 7.86629 2.21892C7.79166 2.14378 7.68991 2.10148 7.58399 2.10139ZM4.77837 2.53362C4.72578 2.53331 4.67364 2.54343 4.62498 2.56339C4.57631 2.58335 4.53209 2.61276 4.49486 2.64992C4.45764 2.68707 4.42814 2.73124 4.40808 2.77986C4.38803 2.82849 4.37781 2.8806 4.37801 2.9332V5.32213C4.37823 5.39601 4.39899 5.46836 4.43798 5.5311C4.47697 5.59385 4.53265 5.6445 4.59879 5.6774L6.1909 6.47346C6.23774 6.49693 6.28875 6.51093 6.34102 6.51465C6.39328 6.51837 6.44576 6.51173 6.49545 6.49512C6.54514 6.47851 6.59107 6.45225 6.63058 6.41785C6.6701 6.38345 6.70244 6.34158 6.72575 6.29466C6.74922 6.24782 6.76322 6.1968 6.76694 6.14454C6.77066 6.09228 6.76402 6.03979 6.74741 5.9901C6.7308 5.94041 6.70454 5.89449 6.67014 5.85497C6.63574 5.81545 6.59387 5.78311 6.54695 5.75981L5.17484 5.07492V2.9332C5.17505 2.88093 5.16496 2.82913 5.14514 2.78076C5.12533 2.73239 5.09618 2.6884 5.05937 2.65129C5.02255 2.61419 4.97879 2.5847 4.93057 2.56451C4.88236 2.54432 4.83064 2.53382 4.77837 2.53362ZM8.4539 3.38953C8.40179 3.38923 8.34876 3.39916 8.29764 3.42062C8.09327 3.50511 7.99688 3.74017 8.08308 3.94381C8.08503 3.94863 8.08759 3.95133 8.08925 3.95539C8.17257 4.15928 8.40567 4.25696 8.60933 4.17307C8.81321 4.08974 8.9109 3.85664 8.827 3.65299C8.82474 3.64757 8.82278 3.64306 8.82083 3.63825C8.75834 3.48412 8.61021 3.39044 8.4539 3.38953Z" fill="currentColor"/>
    </g>
    <defs>
        <clipPath id="clip0_148_1936">
            <rect width="9.55263" height="9.55263" fill="white" transform="translate(0 0.543945)"/>
        </clipPath>
    </defs>
</svg>
