<svg width="85" height="85" viewBox="0 0 85 85" xmlns="http://www.w3.org/2000/svg">
    <path d="M52.6602 11.9664L58.4109 24.132L51.1328 27.3859L45.4617 15.3797C42.9516 10.0805 36.6164 7.80936 31.3172 10.3195C26.018 12.8164 23.7469 19.1648 26.2438 24.464L33.5219 39.8437H25.2344C25.0617 39.8437 24.8891 39.857 24.7164 39.8703L19.0453 27.864C14.6625 18.5937 18.6336 7.49061 27.9039 3.10779C37.1742 -1.27502 48.2774 2.69608 52.6602 11.9664Z"/>
    <path d="M41.1719 6.64066C34.5312 3.98441 27.8906 6.64066 23.9062 11.9532C19.9218 18.5938 25.2343 27.8907 23.9062 34.5313C23.9062 35.1701 23.5941 35.8063 23.0722 36.3893L24.7164 39.8704C24.889 39.8571 25.0617 39.8438 25.2343 39.8438H33.5218L26.2437 24.4641C23.7469 19.1649 26.0179 12.8164 31.3172 10.3196C36.6164 7.80941 42.9515 10.0805 45.4617 15.3797L51.1328 27.386L55.2354 25.5518C51.6348 17.3148 47.8125 9.29691 41.1719 6.64066Z"/>
    <path d="M47.0155 69.9657C47.2413 71.0016 46.4577 71.9844 45.3952 71.9844H39.6045C38.542 71.9844 37.7584 71.0016 37.9842 69.9657L40.242 59.8321C38.4092 58.8758 37.2272 56.8571 37.6123 54.586C37.9444 52.5672 39.578 50.9071 41.5967 50.5485C44.7311 49.9907 47.467 52.3946 47.467 55.436C47.467 57.3485 46.3647 58.9953 44.7577 59.8321L47.0155 69.9657Z"/>
    <path d="M33.5219 39.8438H59.7656C62.7008 39.8438 65.0781 42.2211 65.0781 45.1562V78.3594C65.0781 81.2945 62.7008 83.6719 59.7656 83.6719H25.2344C22.2992 83.6719 19.9219 81.2945 19.9219 78.3594V45.1562C19.9219 42.3938 22.0203 40.1227 24.7164 39.8703C24.8891 39.857 25.0617 39.8438 25.2344 39.8438H33.5219ZM45.3953 71.9844C46.4578 71.9844 47.2414 71.0016 47.0156 69.9656L44.7578 59.832C46.3648 58.9953 47.4672 57.3484 47.4672 55.4359C47.4672 52.3945 44.7312 49.9906 41.5969 50.5484C39.5781 50.907 37.9445 52.5672 37.6125 54.5859C37.2273 56.857 38.4094 58.8758 40.2422 59.832L37.9844 69.9656C37.7586 71.0016 38.5422 71.9844 39.6047 71.9844H45.3953Z"/>
    <path d="M65.0778 45.1562V78.3594C65.0778 81.2945 62.7005 83.6719 59.7653 83.6719H25.2341C22.7638 83.6719 20.6786 81.9852 20.0942 79.6875H54.4528C57.388 79.6875 59.7653 77.3102 59.7653 74.375V41.1719C59.7653 40.707 59.7122 40.2687 59.5927 39.8438H59.7653C62.7005 39.8438 65.0778 42.2211 65.0778 45.1562Z"/>
    <path d="M23.9062 48.1525V45.5042C23.9062 44.5785 24.6566 43.8281 25.5823 43.8281H28.6716C30.2281 43.8281 30.944 45.7645 29.762 46.7766L26.6727 49.4248C25.5863 50.3572 23.9062 49.5842 23.9062 48.1525Z"/>
    <path d="M61.0938 19.9219C60.3606 19.9219 59.7656 19.3282 59.7656 18.5938V11.9531C59.7656 11.2187 60.3606 10.625 61.0938 10.625C61.8269 10.625 62.4219 11.2187 62.4219 11.9531V18.5938C62.4219 19.3282 61.8269 19.9219 61.0938 19.9219Z"/>
    <path d="M65.0782 21.2501C64.7382 21.2501 64.3982 21.1199 64.1392 20.8609C63.6199 20.3416 63.6199 19.5022 64.1392 18.9829L69.4517 13.6704C69.971 13.1511 70.8104 13.1511 71.3297 13.6704C71.849 14.1897 71.849 15.0291 71.3297 15.5484L66.0172 20.8609C65.7582 21.1199 65.4182 21.2501 65.0782 21.2501Z"/>
    <path d="M73.0469 25.2344H67.7344C67.0013 25.2344 66.4062 24.6407 66.4062 23.9062C66.4062 23.1718 67.0013 22.5781 67.7344 22.5781H73.0469C73.78 22.5781 74.375 23.1718 74.375 23.9062C74.375 24.6407 73.78 25.2344 73.0469 25.2344Z"/>
</svg>
