<svg width="24" height="24" viewBox="0 0 24 24" fill="none" xmlns="http://www.w3.org/2000/svg">
    <g clip-path="url(#clip0_148_3575)">
        <path d="M22.1661 17.5962L13.4592 2.45352C13.0066 1.66643 12.1943 1.19559 11.2864 1.19399C10.3785 1.19239 9.56462 1.66037 9.10926 2.44581L0.348827 17.5575C-0.106529 18.3431 -0.108191 19.2818 0.344381 20.069C0.796952 20.856 1.60917 21.3269 2.51711 21.3285L19.9845 21.3594C20.8923 21.3611 21.7064 20.8931 22.1616 20.1075C22.617 19.3221 22.6187 18.3833 22.1661 17.5962ZM21.0203 19.4459C20.8041 19.8188 20.4179 20.0409 19.9868 20.0402L2.51945 20.0093C2.08845 20.0085 1.70286 19.7849 1.48803 19.4114C1.27321 19.0377 1.274 18.592 1.49015 18.2192L10.2506 3.10740C10.4668 2.73455 10.8531 2.51240 11.2841 2.51316C11.7151 2.51393 12.1007 2.73744 12.3155 3.11106L21.0225 18.2537C21.2373 18.6273 21.2364 19.073 21.0203 19.4459Z" fill="currentColor"/>
        <path d="M11.2605 15.6276C10.7755 15.6267 10.3803 16.0206 10.3794 16.5056C10.3786 16.9905 10.7724 17.3858 11.2574 17.3867C11.7423 17.3874 12.1376 16.9937 12.1384 16.5087C12.1393 16.0238 11.7454 15.6285 11.2605 15.6276Z" fill="currentColor"/>
        <path d="M11.9346 7.4930L10.6154 7.49066L10.6033 14.3067L11.9225 14.3090L11.9346 7.4930Z" fill="currentColor"/>
    </g>
    <defs>
        <clipPath id="clip0_148_3575">
            <rect width="22.4982" height="22.4982" fill="white" transform="translate(0.0395508) rotate(0.101421)"/>
        </clipPath>
    </defs>
</svg>