<svg width="32" height="32" viewBox="0 0 32 32" fill="none" xmlns="http://www.w3.org/2000/svg">
<g clip-path="url(#clip0_148_1964)">
<path d="M16.2865 11.1348C19.0986 11.1348 21.3782 8.85516 21.3782 6.0431C21.3782 3.23104 19.0986 0.951416 16.2865 0.951416C13.4744 0.951416 11.1948 3.23104 11.1948 6.0431C11.1948 8.85516 13.4744 11.1348 16.2865 11.1348Z" fill="white" style="fill:white;fill-opacity:1;"/>
<path d="M20.0284 11.825C18.9504 12.525 17.6654 12.9322 16.287 12.9322C14.9086 12.9322 13.6236 12.525 12.5456 11.825C11.3538 12.2804 10.2489 12.9523 9.28809 13.8147L16.287 16.4393L23.2859 13.8147C22.3251 12.9523 21.2202 12.2803 20.0284 11.825Z" fill="white" style="fill:white;fill-opacity:1;"/>
<path d="M27.0688 19.5212H26.4698C25.9736 19.5212 25.5713 19.9235 25.5713 20.4198V22.8159C25.5713 23.3121 25.9736 23.7144 26.4698 23.7144H27.0688C28.2268 23.7144 29.1654 22.7757 29.1654 21.6178C29.1654 20.4599 28.2268 19.5212 27.0688 19.5212Z" fill="white" style="fill:white;fill-opacity:1;"/>
<path d="M6.19044 14.985C5.9482 15.1529 5.80371 15.4288 5.80371 15.7236V17.724H6.10322C7.58957 17.724 8.79882 18.9332 8.79882 20.4196V22.8157C8.79882 24.302 7.58957 25.5113 6.10322 25.5113H5.80371V27.4045C5.80371 27.7791 6.03607 28.1143 6.38674 28.2458L15.3881 31.6213V18.0211L7.01775 14.8822C6.74178 14.7787 6.43262 14.8171 6.19044 14.985Z" fill="white" style="fill:white;fill-opacity:1;"/>
<path d="M23.7743 22.8157V20.4196C23.7743 18.9332 24.9835 17.724 26.4699 17.724H26.7694V15.7236C26.7694 15.4288 26.6249 15.1529 26.3827 14.985C26.1404 14.8171 25.8312 14.7787 25.5554 14.8822L17.1851 18.0211V31.6213L26.1864 28.2458C26.537 28.1143 26.7694 27.7791 26.7694 27.4045V25.5113H26.4699C24.9835 25.5113 23.7743 24.302 23.7743 22.8157Z" fill="white" style="fill:white;fill-opacity:1;"/>
<path d="M7.00185 22.8159V20.4198C7.00185 19.9235 6.59954 19.5212 6.10331 19.5212H5.50429C4.34638 19.5212 3.40771 20.4599 3.40771 21.6178C3.40771 22.7757 4.34638 23.7144 5.50429 23.7144H6.10331C6.59954 23.7144 7.00185 23.3121 7.00185 22.8159Z" fill="white" style="fill:white;fill-opacity:1;"/>
</g>
<defs>
<clipPath id="clip0_148_1964">
<rect width="30.6699" height="30.6699" fill="white" style="fill:white;fill-opacity:1;" transform="translate(0.95166 0.951416)"/>
</clipPath>
</defs>
</svg>
