<svg width="12" height="14" viewBox="0 0 12 14" xmlns="http://www.w3.org/2000/svg">
    <g id="write">
        <path id="Shape" fill-rule="evenodd" clip-rule="evenodd" d="M1.65198 11.7606C1.57264 11.7792 1.53297 11.7886 1.41858 11.7886C1.08234 11.7886 0.690057 11.6486 0.423868 11.3827C0.0876279 11.0467 -0.0524721 10.5849 0.0175779 10.109L0.549958 7.56161C0.620008 7.29568 0.760107 7.01575 0.956247 6.81979L7.0646 0.703324C8.00327 -0.234441 9.62843 -0.234441 10.5671 0.703324L11.0855 1.24919C12.0241 2.18695 12.0241 3.79655 11.0855 4.73432L4.97712 10.8368C4.76697 11.0467 4.50078 11.1727 4.23459 11.2427L1.71279 11.7466C1.68965 11.7517 1.66981 11.7564 1.65198 11.7606ZM8.00308 1.71105L1.89473 7.82752L1.39037 10.4029L3.98222 9.96899L10.0766 3.85252C10.5529 3.39063 10.5529 2.7188 10.0766 2.24292L9.54418 1.71105C9.1519 1.30515 8.40937 1.30515 8.00308 1.71105Z" fill="currentColor"/>
        <path id="Path" d="M11.0294 12.6562H0.690058C0.283768 12.6562 0.0175781 12.9222 0.0175781 13.3281C0.0175781 13.734 0.353818 13.9999 0.690058 13.9999H10.9734C11.3797 13.9999 11.7159 13.734 11.7159 13.3281C11.7019 12.9222 11.3657 12.6562 11.0294 12.6562Z" fill="currentColor"/>
    </g>
</svg>
